<svg preserveAspectRatio="none" width="100%" height="100%" overflow="visible" style="display: block;" viewBox="0 0 84 18" fill="none" xmlns="http://www.w3.org/2000/svg">
<g id="Logo 2" clip-path="url(#clip0_240_1726)">
<path id="Vector" d="M19.4102 0H0.838418C0.40261 0 0 0.362227 0 0.809056V3.17868C0 3.55794 0.306272 3.88629 0.667384 3.9685L15.8016 7.41362C16.1319 7.4888 16.4721 7.33979 16.6475 7.04318L20.0851 1.22844C20.4038 0.689247 20.0252 0 19.4102 0Z" fill="var(--fill-0, white)"/>
<path id="Vector_2" d="M0.789099 17.2748H8.41596C8.67182 17.2833 8.91173 17.1506 9.05974 16.9366L14.1047 9.63023C14.4313 9.15775 14.1822 8.4968 13.6306 8.37226L0.958818 5.5109C0.466409 5.3997 0 5.78405 0 6.30101V16.4602C0 16.9071 0.353292 17.2748 0.789099 17.2748Z" fill="var(--fill-0, white)"/>
<path id="Vector_3" d="M26.5444 15.7928L17.1459 9.08968C16.7903 8.83605 16.3019 8.92372 16.0514 9.28596L11.4174 15.9894C11.0471 16.5251 11.4207 17.2748 12.0613 17.2748L26.0938 17.2746C26.8665 17.2746 27.1788 16.2452 26.5444 15.7928Z" fill="var(--fill-0, white)"/>
<path id="Vector_4" d="M78.2294 17.2727C76.0726 17.2727 74.0059 16.5788 72.4244 15.3486C72.348 15.2893 72.3288 15.1804 72.3779 15.0961L73.4869 13.1941C73.5478 13.0898 73.6855 13.0671 73.7779 13.1433C74.9725 14.1285 76.5208 14.7056 78.1341 14.7056C79.7556 14.7056 81.1624 13.9477 81.1624 12.4808C81.1624 10.9161 79.4932 10.2561 77.6571 9.64483C74.9388 8.74027 72.8166 7.22448 72.8166 4.58409C72.8166 1.6503 75.2965 0.0122807 78.2294 0.0122807C80.0604 0.0122807 81.621 0.451119 83.3493 1.59819C83.4339 1.65434 83.4599 1.76884 83.4094 1.85823L82.383 3.67393C82.3286 3.77028 82.2067 3.8004 82.1141 3.74206C80.8022 2.91467 79.6532 2.55488 78.3725 2.55488C76.9418 2.55488 75.678 3.19054 75.678 4.43739C75.678 5.95318 77.3233 6.58883 78.9925 7.17559C81.8062 8.10462 84 9.49817 84 12.3342C84 15.439 81.4486 17.2727 78.2294 17.2727Z" fill="var(--fill-0, white)"/>
<path id="Vector_5" d="M67.3475 5.37742C68.142 6.6539 68.4435 8.18829 68.1933 9.6806C67.9789 10.9586 67.373 12.1312 66.472 13.0258C66.3638 13.1332 66.3991 13.3236 66.5409 13.3752L68.4771 14.0805C68.6507 14.1437 68.8452 14.0906 68.9586 13.9418C70.0585 12.4988 70.6843 10.7315 70.7341 8.88799C70.7903 6.80726 70.1089 4.77615 68.8161 3.17118C67.5232 1.56621 65.7067 0.496236 63.7033 0.15957C61.6998 -0.177096 59.6451 0.242384 57.9203 1.34026C56.1953 2.43813 54.9172 4.13994 54.3226 6.13025C53.7281 8.12056 53.8575 10.2643 54.6868 12.1643C55.5161 14.0643 56.9892 15.5916 58.8329 16.4631C60.4722 17.2379 62.2494 17.4786 63.9979 17.1067C64.1643 17.0712 64.238 16.874 64.143 16.7295L63.0257 15.0314C62.9468 14.9114 62.8113 14.8455 62.6702 14.8495C61.6904 14.8776 60.6328 14.6086 59.7494 14.1677C58.4214 13.505 57.3823 12.3098 56.8352 10.9033C56.2881 9.49681 56.2723 7.93163 56.7908 6.5138C57.3093 5.09598 58.3251 3.92743 59.6393 3.2366C60.9535 2.54577 62.4718 2.38234 63.8973 2.77824C65.3228 3.17415 66.553 4.10094 67.3475 5.37742Z" fill="var(--fill-0, white)"/>
<path id="Vector_6" d="M68.7625 15.6324L64.6361 14.1271C64.3713 14.0305 64.1457 14.3454 64.3147 14.5756L66.5103 17.8315C66.6043 17.9595 66.7816 17.9853 66.9066 17.8892L68.8374 16.1387C69.0183 15.9997 68.9754 15.7101 68.7625 15.6324Z" fill="var(--fill-0, white)"/>
<path id="Vector_7" d="M48.1631 17.2748H50.6732C50.7819 17.2748 50.8701 17.1844 50.8701 17.0728V6.66249C50.8701 6.52302 50.8 6.39341 50.6846 6.31963L48.2673 4.77487C48.1361 4.69101 47.9661 4.78776 47.9661 4.9463V17.0728C47.9661 17.1844 48.0543 17.2748 48.1631 17.2748Z" fill="var(--fill-0, white)"/>
<path id="Vector_8" d="M50.6732 0.00139215H48.1631C48.0543 0.00139215 47.9661 0.091831 47.9661 0.203393V2.67806C47.9661 2.81753 48.0362 2.94713 48.1516 3.02091L50.5689 4.56567C50.7001 4.64953 50.8701 4.55279 50.8701 4.39424V0.203393C50.8701 0.091831 50.7819 0.00139215 50.6732 0.00139215Z" fill="var(--fill-0, white)"/>
<path id="Vector_9" d="M41.0152 10.3908L45.1859 17.06C45.2458 17.1517 45.1816 17.2748 45.074 17.2748H42.1166C42.048 17.2748 41.9842 17.2384 41.948 17.1786L38.0421 10.721H35.4903V17.0715C35.4903 17.1838 35.4015 17.2748 35.292 17.2748H32.7651C32.6555 17.2748 32.5667 17.1838 32.5667 17.0715V0.204744C32.5667 0.0924365 32.6555 0.00139215 32.7651 0.00139215H39.1818C42.5265 0.00139215 44.9049 2.31298 44.9049 5.38663C44.9049 7.79983 43.4185 9.67962 41.0152 10.3908ZM35.4903 8.23167H38.8845C40.817 8.23167 41.9567 7.13938 41.9567 5.43744C41.9567 3.8117 40.7426 2.59241 38.934 2.59241H35.4903V8.23167Z" fill="var(--fill-0, white)"/>
<path id="Vector_10" d="M41.0152 10.3908L45.1859 17.06C45.2458 17.1517 45.1816 17.2748 45.074 17.2748H42.1166C42.048 17.2748 41.9842 17.2384 41.948 17.1786L38.0421 10.721H35.4903V17.0715C35.4903 17.1838 35.4015 17.2748 35.292 17.2748H32.7651C32.6555 17.2748 32.5667 17.1838 32.5667 17.0715V0.204744C32.5667 0.0924365 32.6555 0.00139215 32.7651 0.00139215H39.1818C42.5265 0.00139215 44.9049 2.31298 44.9049 5.38663C44.9049 7.79983 43.4185 9.67962 41.0152 10.3908ZM35.4903 8.23167H38.8845C40.817 8.23167 41.9567 7.13938 41.9567 5.43744C41.9567 3.8117 40.7426 2.59241 38.934 2.59241H35.4903V8.23167Z" fill="var(--fill-0, white)"/>
<path id="Vector_11" d="M41.0152 10.3908L45.1859 17.06C45.2458 17.1517 45.1816 17.2748 45.074 17.2748H42.1166C42.048 17.2748 41.9842 17.2384 41.948 17.1786L38.0421 10.721H35.4903V17.0715C35.4903 17.1838 35.4015 17.2748 35.292 17.2748H32.7651C32.6555 17.2748 32.5667 17.1838 32.5667 17.0715V0.204744C32.5667 0.0924365 32.6555 0.00139215 32.7651 0.00139215H39.1818C42.5265 0.00139215 44.9049 2.31298 44.9049 5.38663C44.9049 7.79983 43.4185 9.67962 41.0152 10.3908ZM35.4903 8.23167H38.8845C40.817 8.23167 41.9567 7.13938 41.9567 5.43744C41.9567 3.8117 40.7426 2.59241 38.934 2.59241H35.4903V8.23167Z" fill="var(--fill-0, white)"/>
</g>
<defs>
<clipPath id="clip0_240_1726">
<rect width="84" height="18" fill="white"/>
</clipPath>
</defs>
</svg>
