<svg preserveAspectRatio="none" width="100%" height="100%" overflow="visible" style="display: block;" viewBox="0 0 800 367.998" fill="none" xmlns="http://www.w3.org/2000/svg">
<g id="RAHAT HASAN">
<path id="Vector" d="M765.925 364.998L663.702 244.287L664.349 310.483C664.565 334.928 671.682 345.745 685.268 363.916V364.349H632V363.916C646.449 345.745 653.135 335.577 653.135 310.267V252.941C653.135 230.875 647.096 222.222 634.588 206.43V205.998H693.248L768.298 295.124L768.082 260.512C767.866 234.985 761.397 224.818 746.947 206.43V205.998H800V206.43C786.198 224.602 779.512 235.418 779.512 259.863V364.132L765.925 364.998Z" fill="var(--fill-0, white)"/>
<path id="Vector_2" d="M518.261 364.998H468V364.563C476.882 356.744 486.198 340.67 492.697 322.424L534.077 205.998H569.606L611.202 322.641C616.835 338.498 623.984 354.354 632 364.563V364.998H555.524V364.563C565.49 352.617 569.39 337.412 562.457 317.211L559.857 309.391H508.079L506.129 315.039C497.464 338.932 503.096 355.44 518.261 364.563V364.998ZM511.546 299.617H556.608L534.726 234.453L511.546 299.617Z" fill="var(--fill-0, white)"/>
<path id="Vector_3" d="M449.702 207.539L455.786 247.546L451.005 249.059C433.838 225.272 421.451 212.513 402.545 212.513C390.158 212.513 381.901 218.784 381.901 228.732C381.901 243.653 401.459 251.006 421.886 260.953C443.834 271.766 466 284.957 466 316.746C466 354.158 436.228 367.998 403.632 367.998C383.639 367.998 364.733 362.808 354.519 357.401L348 311.123L352.781 309.826C375.164 343.561 389.724 358.483 410.803 358.483C424.494 358.483 434.273 351.346 434.273 338.804C434.273 321.504 415.366 313.286 394.722 303.338C372.773 292.526 350.173 280.632 350.173 251.222C350.173 216.189 381.683 202.998 415.584 202.998C427.319 202.998 439.271 204.728 449.702 207.539Z" fill="var(--fill-0, white)"/>
<path id="Vector_4" d="M228.262 364.998H178V364.563C186.882 356.744 196.198 340.67 202.697 322.424L244.077 205.998H279.606L321.202 322.641C326.835 338.498 333.984 354.354 342 364.563V364.998H265.524V364.563C275.49 352.617 279.39 337.412 272.457 317.211L269.857 309.391H218.079L216.129 315.039C207.464 338.932 213.096 355.44 228.262 364.563V364.998ZM221.546 299.617H266.608L244.727 234.453L221.546 299.617Z" fill="var(--fill-0, white)"/>
<path id="Vector_5" d="M0 364.998V364.563C7.12261 346.317 10.576 336.108 10.576 310.694V260.301C10.576 234.887 7.12261 224.678 0 206.432V205.998H67.5568V206.432C60.4342 224.678 56.765 235.539 56.765 260.084V279.416H112.235V260.301C112.235 234.887 108.782 224.678 101.443 206.432V205.998H169V206.432C162.093 224.678 158.424 235.539 158.424 260.084V310.912C158.424 335.457 162.093 346.317 169 364.563V364.998H101.443V364.563C108.782 346.317 112.235 336.108 112.235 310.694V289.19H56.765V310.912C56.765 335.457 60.4342 346.317 67.5568 364.563V364.998H0Z" fill="var(--fill-0, white)"/>
<path id="Vector_6" d="M751.78 152.369V152.787H686.658V152.369C693.545 134.836 696.885 125.235 696.885 100.814V9.18391L693.337 9.60135C680.187 10.8537 659.732 38.6141 649.296 53.6423L644.704 52.3899L653.679 7.62939e-06H784.758L793.733 52.3899L789.141 53.6423C778.705 38.6141 758.25 10.8537 745.1 9.60135L741.552 9.18391V100.814C741.552 125.026 744.892 134.836 751.78 152.369Z" fill="var(--fill-0, white)"/>
<path id="Vector_7" d="M542.577 152.787H494.153V152.369C502.711 144.855 511.686 129.409 517.948 111.877L557.814 7.62939e-06H592.045L632.12 112.085C637.547 127.322 644.435 142.559 652.158 152.369V152.787H578.478V152.369C588.079 140.889 591.836 126.279 585.157 106.867L582.652 99.3531H532.767L530.888 104.78C522.539 127.74 527.966 143.603 542.577 152.369V152.787ZM536.107 89.9604H579.521L558.44 27.343L536.107 89.9604Z" fill="var(--fill-0, white)"/>
<path id="Vector_8" d="M322.667 152.787V152.369C329.555 134.836 332.895 125.026 332.895 100.605V52.1812C332.895 27.7604 329.555 17.9504 322.667 0.417464V7.62939e-06H387.998V0.417464C381.11 17.9504 377.562 28.3866 377.562 51.9725V70.549H431.204V52.1812C431.204 27.7604 427.865 17.9504 420.768 0.417464V7.62939e-06H486.099V0.417464C479.42 17.9504 475.871 28.3866 475.871 51.9725V100.814C475.871 124.4 479.42 134.836 486.099 152.369V152.787H420.768V152.369C427.865 134.836 431.204 125.026 431.204 100.605V79.9416H377.562V100.814C377.562 124.4 381.11 134.836 387.998 152.369V152.787H322.667Z" fill="var(--fill-0, white)"/>
<path id="Vector_9" d="M205.03 152.787H156.606V152.369C165.163 144.855 174.139 129.409 180.4 111.877L220.267 7.62939e-06H254.498L294.573 112.085C300 127.322 306.888 142.559 314.61 152.369V152.787H240.93V152.369C250.532 140.889 254.289 126.279 247.61 106.867L245.105 99.3531H195.22L193.341 104.78C184.992 127.74 190.419 143.603 205.03 152.369V152.787ZM198.559 89.9604H241.974L220.893 27.343L198.559 89.9604Z" fill="var(--fill-0, white)"/>
<path id="Vector_10" d="M61.7826 152.369V152.787H0V152.369C5.8443 136.506 8.55772 127.531 8.55772 105.406V47.3806C8.55772 25.2557 5.8443 16.2805 0 0.417464V7.62939e-06H72.4275C120.852 7.62939e-06 135.88 15.2369 135.88 38.1967C135.88 55.1034 128.992 70.9665 110.624 79.9416L129.827 119.391C137.341 134.628 141.933 144.438 154.456 152.369V152.787H96.8483L66.792 87.6645H53.2248V105.615C53.2248 126.905 55.9383 136.506 61.7826 152.369ZM60.7389 8.97519C58.6517 8.97519 55.9383 9.18391 53.2248 9.18391V78.2718H62.2C84.1161 78.2718 90.1691 57.3994 90.1691 39.2403C90.1691 23.3772 83.6987 8.97519 60.7389 8.97519Z" fill="var(--fill-0, white)"/>
</g>
</svg>
