<svg preserveAspectRatio="none" width="100%" height="100%" overflow="visible" style="display: block;" viewBox="0 0 19.1166 8.25491" fill="none" xmlns="http://www.w3.org/2000/svg">
<g id="digital platforms -white" clip-path="url(#clip0_240_1611)">
<g id="telco toolsuite">
<path d="M8.72394 6.44873C8.69453 6.43985 8.671 6.43442 8.65335 6.43244C8.63669 6.42948 8.61512 6.428 8.58865 6.428C8.53767 6.428 8.49111 6.43639 8.44895 6.45317C8.40778 6.46896 8.372 6.49167 8.34161 6.52128C8.3122 6.55089 8.28916 6.58643 8.27249 6.62788C8.25681 6.66934 8.24896 6.71573 8.24896 6.76706C8.24896 6.84307 8.26857 6.90377 8.30778 6.94918C8.34798 6.9936 8.40141 7.0158 8.46807 7.0158C8.55924 7.0158 8.6264 6.97385 8.66953 6.88995C8.68718 6.85738 8.69894 6.82332 8.70482 6.78779C8.70678 6.77298 8.70825 6.75867 8.70923 6.74485C8.71119 6.73005 8.71267 6.71228 8.71365 6.69155C8.71561 6.66983 8.71708 6.64417 8.71806 6.61456C8.71904 6.58396 8.72051 6.54596 8.72247 6.50055L8.72394 6.44873ZM8.85776 6.17334C8.85579 6.20295 8.85383 6.23404 8.85187 6.26661C8.85089 6.2982 8.84942 6.33571 8.84746 6.37914C8.8455 6.42158 8.84305 6.47242 8.84011 6.53164C8.83815 6.58988 8.8357 6.66095 8.83276 6.74485C8.83178 6.78137 8.8308 6.81395 8.82982 6.84257C8.82884 6.8712 8.82785 6.89686 8.82687 6.91956C8.82687 6.94227 8.82687 6.96349 8.82687 6.98323C8.82687 7.00199 8.82687 7.02025 8.82687 7.03801V7.09132H8.80923C8.80041 7.09132 8.79256 7.09132 8.7857 7.09132C8.77884 7.09033 8.77296 7.08984 8.76805 7.08984C8.76315 7.08984 8.75678 7.09033 8.74894 7.09132C8.74208 7.09132 8.73423 7.09132 8.72541 7.09132H8.70629L8.71512 6.93437C8.71021 6.94325 8.70531 6.95164 8.70041 6.95954C8.69551 6.96744 8.69061 6.97484 8.68571 6.98175C8.65924 7.02321 8.62492 7.05479 8.58277 7.07651C8.54062 7.09724 8.49258 7.1076 8.43866 7.1076C8.3916 7.1076 8.34847 7.09971 8.30926 7.08391C8.27102 7.06812 8.23818 7.04542 8.21073 7.0158C8.18426 6.98619 8.16318 6.95115 8.1475 6.91068C8.13279 6.86922 8.12544 6.82332 8.12544 6.77298C8.12544 6.70685 8.13574 6.64763 8.15632 6.59531C8.17789 6.54201 8.20779 6.4966 8.24602 6.45909C8.28524 6.42158 8.33229 6.39296 8.38719 6.37322C8.44209 6.35249 8.50336 6.34213 8.57101 6.34213C8.58473 6.34213 8.59699 6.34262 8.60777 6.34361C8.61953 6.34361 8.6313 6.3441 8.64306 6.34509C8.65483 6.34607 8.66708 6.34755 8.67982 6.34953C8.69355 6.3515 8.70972 6.35397 8.72835 6.35693C8.73031 6.32436 8.73129 6.29721 8.73129 6.2755C8.73227 6.2528 8.73276 6.22713 8.73276 6.19851V6.14372L8.73129 6.10375L8.75188 6.10523H8.79894H8.84452L8.86217 6.10375L8.85776 6.17334Z" fill="var(--fill-0, #1C4382)"/>
<path d="M9.18728 6.35841C9.18532 6.37618 9.18385 6.39197 9.18287 6.40579C9.18287 6.41862 9.18238 6.42948 9.1814 6.43837C9.17846 6.47686 9.17552 6.52177 9.17258 6.5731C9.17061 6.62344 9.16865 6.67576 9.16669 6.73005C9.16473 6.78335 9.16277 6.83616 9.16081 6.88847C9.15983 6.9398 9.15934 6.98521 9.15934 7.02469V7.09132H9.13875C9.12993 7.09132 9.1216 7.09132 9.11376 7.09132C9.10689 7.09033 9.10003 7.08984 9.09317 7.08984C9.08827 7.08984 9.08189 7.09033 9.07405 7.09132C9.06621 7.09132 9.0569 7.09132 9.04611 7.09132H9.02552C9.02749 7.07256 9.02847 7.05627 9.02847 7.04246C9.02945 7.02864 9.03043 7.01679 9.03141 7.00692C9.03337 6.97336 9.03582 6.9319 9.03876 6.88255C9.0417 6.8332 9.04415 6.77545 9.04611 6.70932C9.04905 6.64121 9.0515 6.58198 9.05346 6.53164C9.05543 6.4813 9.05641 6.43886 9.05641 6.40431V6.35841H9.07699C9.0868 6.35841 9.09513 6.35891 9.10199 6.35989C9.10983 6.35989 9.11621 6.35989 9.12111 6.35989C9.12601 6.35989 9.13189 6.35989 9.13875 6.35989C9.1466 6.35891 9.15591 6.35841 9.16669 6.35841H9.18728ZM9.1961 6.11707V6.14965L9.19463 6.18074L9.19316 6.20147H9.17699C9.16914 6.20048 9.16081 6.19999 9.15199 6.19999C9.14317 6.19999 9.13483 6.19999 9.12699 6.19999C9.11915 6.19999 9.11081 6.20048 9.10199 6.20147C9.09317 6.20147 9.08435 6.20147 9.07552 6.20147H9.05641L9.05788 6.17778C9.05886 6.16889 9.05935 6.15853 9.05935 6.14668C9.05935 6.13484 9.05935 6.12497 9.05935 6.11707V6.0993C9.07601 6.0993 9.08876 6.0998 9.09758 6.10079C9.10738 6.10079 9.11915 6.10079 9.13287 6.10079C9.1466 6.10079 9.15738 6.10079 9.16522 6.10079C9.17307 6.0998 9.18385 6.0993 9.19757 6.0993L9.1961 6.11707Z" fill="var(--fill-0, #1C4382)"/>
<path d="M9.95184 6.45021C9.91752 6.4433 9.89007 6.43886 9.86949 6.43688C9.84988 6.43491 9.82684 6.43392 9.80037 6.43392C9.74449 6.43392 9.69597 6.44133 9.65479 6.45613C9.6146 6.46995 9.57931 6.49216 9.54892 6.52276C9.51951 6.55237 9.49647 6.58939 9.4798 6.63381C9.46314 6.67724 9.4548 6.72314 9.4548 6.7715C9.4548 6.8485 9.47441 6.90871 9.51362 6.95214C9.55284 6.99458 9.60774 7.0158 9.67832 7.0158C9.76655 7.0158 9.83419 6.97978 9.88125 6.90772C9.89302 6.88897 9.90282 6.87021 9.91066 6.85146C9.9185 6.8327 9.92488 6.80951 9.92978 6.78187C9.93468 6.75324 9.93811 6.71869 9.94007 6.67822C9.94301 6.63677 9.94595 6.58396 9.94889 6.5198L9.95184 6.45021ZM10.0798 6.37174C10.0778 6.38852 10.0763 6.40332 10.0754 6.41616C10.0754 6.42899 10.0749 6.43985 10.0739 6.44873C10.0709 6.47933 10.0665 6.54842 10.0607 6.65602C10.0577 6.71721 10.0553 6.76755 10.0533 6.80704C10.0523 6.84553 10.0513 6.87367 10.0504 6.89143L10.0445 7.13721C10.0425 7.24283 10.0126 7.31982 9.95478 7.36819C9.89792 7.41754 9.81018 7.44222 9.69156 7.44222C9.67293 7.44222 9.6543 7.44173 9.63568 7.44074C9.61803 7.43975 9.59989 7.43827 9.58127 7.4363C9.56558 7.43531 9.55137 7.43383 9.53862 7.43186C9.52588 7.43087 9.51264 7.4289 9.49892 7.42593C9.48617 7.42396 9.47245 7.42149 9.45774 7.41853C9.44304 7.41557 9.42588 7.41162 9.40628 7.40669L9.40481 7.39188C9.40383 7.38201 9.40334 7.37411 9.40334 7.36819C9.40334 7.36227 9.40334 7.35832 9.40334 7.35635C9.40334 7.35437 9.40285 7.35042 9.40187 7.3445C9.40187 7.33858 9.40137 7.33019 9.40039 7.31933L9.39892 7.30304C9.41265 7.30699 9.42392 7.31045 9.43275 7.31341C9.44255 7.31637 9.45137 7.31884 9.45921 7.32081C9.53666 7.34154 9.60725 7.3519 9.67097 7.3519C9.72391 7.3519 9.76949 7.34351 9.80773 7.32673C9.84596 7.30995 9.87341 7.28626 9.89007 7.25566C9.89694 7.24283 9.90282 7.22901 9.90772 7.21421C9.91262 7.1994 9.91654 7.18065 9.91948 7.15794C9.92243 7.13524 9.92439 7.10662 9.92537 7.07207C9.92733 7.03653 9.92929 6.99162 9.93125 6.93733C9.92046 6.95806 9.91066 6.97484 9.90184 6.98767C9.87635 7.02518 9.84106 7.0543 9.79596 7.07503C9.75087 7.09477 9.69989 7.10464 9.64303 7.10464C9.54597 7.10464 9.46951 7.07602 9.41363 7.01877C9.35873 6.96152 9.33128 6.88206 9.33128 6.78039C9.33128 6.71327 9.34206 6.65256 9.36363 6.59827C9.38618 6.54398 9.41755 6.49808 9.45774 6.46057C9.49892 6.42208 9.54843 6.39296 9.60627 6.37322C9.66411 6.35249 9.7293 6.34213 9.80184 6.34213C9.844 6.34213 9.89007 6.34509 9.94007 6.35101C9.95086 6.352 9.96115 6.35348 9.97095 6.35545C9.98076 6.35644 9.99056 6.35792 10.0004 6.35989C10.0111 6.36088 10.0229 6.36236 10.0357 6.36433C10.0484 6.36631 10.0631 6.36878 10.0798 6.37174Z" fill="var(--fill-0, #1C4382)"/>
<path d="M10.4075 6.35841C10.4055 6.37618 10.404 6.39197 10.4031 6.40579C10.4031 6.41862 10.4026 6.42948 10.4016 6.43837C10.3987 6.47686 10.3957 6.52177 10.3928 6.5731C10.3908 6.62344 10.3889 6.67576 10.3869 6.73005C10.3849 6.78335 10.383 6.83616 10.381 6.88847C10.38 6.9398 10.3795 6.98521 10.3795 7.02469V7.09132H10.359C10.3501 7.09132 10.3418 7.09132 10.334 7.09132C10.3271 7.09033 10.3202 7.08984 10.3134 7.08984C10.3085 7.08984 10.3021 7.09033 10.2943 7.09132C10.2864 7.09132 10.2771 7.09132 10.2663 7.09132H10.2457C10.2477 7.07256 10.2487 7.05627 10.2487 7.04246C10.2496 7.02864 10.2506 7.01679 10.2516 7.00692C10.2536 6.97336 10.256 6.9319 10.259 6.88255C10.2619 6.8332 10.2644 6.77545 10.2663 6.70932C10.2693 6.64121 10.2717 6.58198 10.2737 6.53164C10.2756 6.4813 10.2766 6.43886 10.2766 6.40431V6.35841H10.2972C10.307 6.35841 10.3153 6.35891 10.3222 6.35989C10.33 6.35989 10.3364 6.35989 10.3413 6.35989C10.3462 6.35989 10.3521 6.35989 10.359 6.35989C10.3668 6.35891 10.3761 6.35841 10.3869 6.35841H10.4075ZM10.4163 6.11707V6.14965L10.4148 6.18074L10.4134 6.20147H10.3972C10.3893 6.20048 10.381 6.19999 10.3722 6.19999C10.3634 6.19999 10.355 6.19999 10.3472 6.19999C10.3393 6.19999 10.331 6.20048 10.3222 6.20147C10.3134 6.20147 10.3045 6.20147 10.2957 6.20147H10.2766L10.2781 6.17778C10.2791 6.16889 10.2795 6.15853 10.2795 6.14668C10.2795 6.13484 10.2795 6.12497 10.2795 6.11707V6.0993C10.2962 6.0993 10.309 6.0998 10.3178 6.10079C10.3276 6.10079 10.3393 6.10079 10.3531 6.10079C10.3668 6.10079 10.3776 6.10079 10.3854 6.10079C10.3933 6.0998 10.404 6.0993 10.4178 6.0993L10.4163 6.11707Z" fill="var(--fill-0, #1C4382)"/>
<path d="M10.9559 6.36137C10.9539 6.37914 10.9524 6.39395 10.9515 6.40579C10.9515 6.41764 10.9515 6.43195 10.9515 6.44873H10.7515L10.75 6.49463L10.7426 6.63973L10.7382 6.70636C10.7363 6.74189 10.7348 6.77397 10.7338 6.8026C10.7328 6.83122 10.7324 6.85689 10.7324 6.87959V6.88699C10.7324 6.9324 10.7397 6.96546 10.7544 6.98619C10.7701 7.00593 10.7951 7.0158 10.8294 7.0158C10.8451 7.0158 10.8598 7.01432 10.8735 7.01136C10.8882 7.0084 10.9103 7.00297 10.9397 6.99508C10.9368 7.00988 10.9343 7.02271 10.9323 7.03357C10.9314 7.04344 10.9294 7.05677 10.9265 7.07355L10.9235 7.08984C10.9078 7.09378 10.8941 7.09674 10.8823 7.09872C10.8716 7.10069 10.8608 7.10217 10.85 7.10316C10.8402 7.10513 10.8304 7.10612 10.8206 7.10612C10.8108 7.10711 10.8 7.1076 10.7882 7.1076C10.7255 7.1076 10.6794 7.09428 10.65 7.06763C10.6216 7.04097 10.6074 6.99902 10.6074 6.94177C10.6074 6.93388 10.6074 6.9245 10.6074 6.91364C10.6083 6.90278 10.6093 6.88995 10.6103 6.87515L10.6191 6.71376L10.6235 6.63973L10.6309 6.49907L10.6324 6.44873H10.5368C10.5387 6.43491 10.5392 6.42405 10.5382 6.41616C10.5382 6.40727 10.5392 6.39444 10.5412 6.37766L10.5427 6.36137H10.6397C10.6417 6.34163 10.6427 6.32633 10.6427 6.31547C10.6436 6.30363 10.6446 6.28636 10.6456 6.26365L10.6471 6.22368L10.6662 6.21923C10.677 6.21627 10.6858 6.2143 10.6926 6.21331C10.7005 6.21134 10.7078 6.20986 10.7147 6.20887C10.7216 6.20788 10.7284 6.2069 10.7353 6.20591C10.7431 6.20393 10.752 6.20196 10.7618 6.19999L10.7603 6.23108L10.7574 6.27846L10.7559 6.32584V6.36137H10.9559Z" fill="var(--fill-0, #1C4382)"/>
<path d="M11.6553 6.52868C11.6553 6.57014 11.6523 6.63874 11.6464 6.73449C11.6445 6.75522 11.643 6.7794 11.642 6.80704C11.641 6.83369 11.6396 6.8633 11.6376 6.89587C11.6366 6.91858 11.6356 6.93783 11.6347 6.95362C11.6347 6.96941 11.6342 6.98422 11.6332 6.99804C11.6332 7.01186 11.6332 7.02617 11.6332 7.04097C11.6332 7.05479 11.6332 7.07157 11.6332 7.09132H11.6155C11.6077 7.09033 11.5999 7.08984 11.592 7.08984C11.5852 7.08984 11.5778 7.08984 11.57 7.08984C11.5631 7.08984 11.5557 7.09033 11.5479 7.09132C11.5401 7.09132 11.5317 7.09132 11.5229 7.09132H11.5053C11.5072 7.06565 11.5092 7.04344 11.5111 7.02469C11.5131 7.00593 11.5146 6.98817 11.5156 6.97139C11.5165 6.95461 11.5175 6.93832 11.5185 6.92253C11.5195 6.90575 11.5205 6.88699 11.5214 6.86626L11.5273 6.71672L11.5303 6.66046C11.5185 6.66934 11.5077 6.67724 11.4979 6.68415C11.4891 6.69007 11.4798 6.6955 11.47 6.70043C11.4611 6.70438 11.4509 6.70833 11.4391 6.71228C11.4273 6.71623 11.4131 6.72067 11.3964 6.7256L11.3229 6.74633C11.2474 6.76805 11.1935 6.79174 11.1612 6.8174C11.1298 6.84208 11.1141 6.87367 11.1141 6.91216C11.1141 6.95066 11.1283 6.98027 11.1567 7.001C11.1862 7.02173 11.2278 7.03209 11.2817 7.03209C11.2945 7.03209 11.3063 7.0316 11.317 7.03061C11.3278 7.02962 11.3386 7.02814 11.3494 7.02617C11.3611 7.02419 11.3734 7.02173 11.3861 7.01877C11.3989 7.01482 11.4136 7.01038 11.4303 7.00544C11.4263 7.01729 11.4229 7.02864 11.42 7.03949C11.417 7.04937 11.4136 7.06269 11.4097 7.07947L11.4067 7.0928C11.3901 7.09576 11.3754 7.09823 11.3626 7.1002C11.3499 7.10217 11.3376 7.10365 11.3259 7.10464C11.3151 7.10563 11.3038 7.10612 11.292 7.10612C11.2803 7.10711 11.267 7.1076 11.2523 7.1076C11.0818 7.1076 10.9965 7.04196 10.9965 6.91068C10.9965 6.85738 11.0161 6.81247 11.0553 6.77595C11.069 6.76311 11.0842 6.75176 11.1009 6.74189C11.1175 6.73103 11.1376 6.72116 11.1612 6.71228C11.1847 6.70241 11.2126 6.69303 11.245 6.68415C11.2773 6.67428 11.317 6.66391 11.3641 6.65305C11.4239 6.63924 11.4665 6.62196 11.492 6.60123C11.5185 6.5805 11.5317 6.55435 11.5317 6.52276C11.5317 6.49019 11.517 6.46502 11.4876 6.44725C11.4582 6.42849 11.417 6.41912 11.3641 6.41912C11.3484 6.41912 11.3327 6.41961 11.317 6.4206C11.3013 6.42158 11.2852 6.42307 11.2685 6.42504C11.2518 6.428 11.2371 6.43096 11.2244 6.43392C11.2116 6.4359 11.1984 6.43886 11.1847 6.44281C11.1719 6.44676 11.1582 6.4512 11.1435 6.45613C11.1288 6.46107 11.1117 6.46748 11.092 6.47538C11.093 6.47143 11.0935 6.46847 11.0935 6.4665C11.0935 6.46354 11.094 6.46107 11.095 6.45909C11.096 6.45416 11.0965 6.44922 11.0965 6.44429C11.0974 6.43837 11.0984 6.43294 11.0994 6.428C11.1014 6.42603 11.1028 6.41517 11.1038 6.39543L11.1053 6.38062C11.119 6.37766 11.1303 6.37519 11.1391 6.37322C11.1489 6.37124 11.1572 6.36927 11.1641 6.3673C11.2396 6.35052 11.3107 6.34213 11.3773 6.34213C11.4724 6.34213 11.5425 6.35742 11.5876 6.38802C11.6327 6.41862 11.6553 6.46551 11.6553 6.52868Z" fill="var(--fill-0, #1C4382)"/>
<path d="M12.0002 6.17778C11.9982 6.21529 11.9963 6.25082 11.9943 6.28438C11.9923 6.31695 11.9904 6.35397 11.9884 6.39543C11.9865 6.4359 11.984 6.48377 11.9811 6.53905C11.9791 6.59334 11.9767 6.66046 11.9737 6.74041C11.9718 6.80358 11.9698 6.85787 11.9678 6.90328C11.9669 6.94868 11.9659 6.9857 11.9649 7.01432L11.9634 7.09132H11.9458C11.937 7.09132 11.9286 7.09132 11.9208 7.09132C11.9139 7.09033 11.9075 7.08984 11.9017 7.08984C11.8987 7.08984 11.8933 7.09033 11.8855 7.09132C11.8776 7.09132 11.8669 7.09132 11.8531 7.09132H11.8325L11.837 7.01136C11.8389 6.9778 11.8409 6.93881 11.8428 6.89439C11.8458 6.84899 11.8487 6.79717 11.8517 6.73893C11.8546 6.67576 11.8571 6.61801 11.859 6.5657C11.862 6.51338 11.8639 6.46502 11.8649 6.4206C11.8669 6.37618 11.8683 6.33423 11.8693 6.29475C11.8703 6.25526 11.8713 6.21578 11.8722 6.1763L11.8737 6.10375L11.8958 6.10523H11.9399H11.9855L12.0046 6.10375L12.0002 6.17778Z" fill="var(--fill-0, #1C4382)"/>
<path d="M13.1329 6.70636C13.1329 6.61949 13.1113 6.55237 13.0682 6.50499C13.026 6.45663 12.9667 6.43244 12.8902 6.43244C12.8765 6.43244 12.8628 6.43343 12.8491 6.4354C12.8353 6.43639 12.8211 6.43787 12.8064 6.43985C12.7839 6.44379 12.7643 6.44774 12.7476 6.45169C12.7319 6.45564 12.7098 6.46255 12.6814 6.47242C12.6785 6.49216 12.677 6.50647 12.677 6.51536C12.676 6.52621 12.675 6.54053 12.6741 6.55829C12.6731 6.57606 12.6721 6.59827 12.6711 6.62492C12.6682 6.68415 12.6667 6.7261 12.6667 6.75077C12.6667 6.79815 12.6716 6.83714 12.6814 6.86774C12.6922 6.89834 12.7094 6.92598 12.7329 6.95066C12.7535 6.97237 12.778 6.98915 12.8064 7.001C12.8348 7.01284 12.8643 7.01877 12.8946 7.01877C12.9299 7.01877 12.9623 7.01136 12.9917 6.99656C13.0211 6.98076 13.0461 6.95954 13.0667 6.93289C13.0873 6.90525 13.1035 6.87218 13.1152 6.83369C13.127 6.79519 13.1329 6.75275 13.1329 6.70636ZM13.2564 6.70932C13.2564 6.76854 13.2481 6.82283 13.2314 6.87218C13.2157 6.92055 13.1932 6.9625 13.1637 6.99804C13.1343 7.03258 13.099 7.05973 13.0579 7.07947C13.0177 7.09823 12.9731 7.1076 12.9241 7.1076C12.8848 7.1076 12.8476 7.10168 12.8123 7.08984C12.7946 7.08391 12.779 7.0775 12.7652 7.07059C12.7525 7.06368 12.7402 7.05529 12.7285 7.04542C12.7167 7.03555 12.7049 7.0237 12.6932 7.00988C12.6824 6.99606 12.6706 6.97928 12.6579 6.95954L12.6564 7.02765L12.652 7.17423L12.6461 7.34598V7.41705H12.5829H12.5373H12.5167C12.5197 7.37954 12.5221 7.34697 12.5241 7.31933C12.526 7.29169 12.5275 7.26405 12.5285 7.23642C12.5304 7.20976 12.5319 7.18065 12.5329 7.14906C12.5349 7.11747 12.5368 7.07898 12.5388 7.03357C12.5417 6.97632 12.5437 6.92055 12.5447 6.86626C12.5466 6.81099 12.5481 6.75867 12.5491 6.70932C12.551 6.65898 12.5525 6.61308 12.5535 6.57162C12.5545 6.52918 12.5554 6.49216 12.5564 6.46057L12.5579 6.38654C12.5726 6.3826 12.5853 6.37963 12.5961 6.37766C12.6079 6.37569 12.6177 6.37371 12.6255 6.37174C12.6775 6.36088 12.7231 6.35348 12.7623 6.34953C12.8025 6.34459 12.8432 6.34213 12.8843 6.34213C12.953 6.34213 13.0103 6.35101 13.0564 6.36878C13.1035 6.38556 13.1427 6.41221 13.174 6.44873C13.1995 6.47834 13.2196 6.51634 13.2343 6.56274C13.249 6.60814 13.2564 6.657 13.2564 6.70932Z" fill="var(--fill-0, #1C4382)"/>
<path d="M13.5684 6.17778C13.5664 6.21529 13.5645 6.25082 13.5625 6.28438C13.5606 6.31695 13.5586 6.35397 13.5566 6.39543C13.5547 6.4359 13.5522 6.48377 13.5493 6.53905C13.5473 6.59334 13.5449 6.66046 13.5419 6.74041C13.54 6.80358 13.538 6.85787 13.5361 6.90328C13.5351 6.94868 13.5341 6.9857 13.5331 7.01432L13.5316 7.09132H13.514C13.5052 7.09132 13.4968 7.09132 13.489 7.09132C13.4821 7.09033 13.4758 7.08984 13.4699 7.08984C13.4669 7.08984 13.4615 7.09033 13.4537 7.09132C13.4459 7.09132 13.4351 7.09132 13.4214 7.09132H13.4008L13.4052 7.01136C13.4071 6.9778 13.4091 6.93881 13.4111 6.89439C13.414 6.84899 13.4169 6.79717 13.4199 6.73893C13.4228 6.67576 13.4253 6.61801 13.4272 6.5657C13.4302 6.51338 13.4321 6.46502 13.4331 6.4206C13.4351 6.37618 13.4365 6.33423 13.4375 6.29475C13.4385 6.25526 13.4395 6.21578 13.4405 6.1763L13.4419 6.10375L13.464 6.10523H13.5081H13.5537L13.5728 6.10375L13.5684 6.17778Z" fill="var(--fill-0, #1C4382)"/>
<path d="M14.3374 6.52868C14.3374 6.57014 14.3345 6.63874 14.3286 6.73449C14.3266 6.75522 14.3252 6.7794 14.3242 6.80704C14.3232 6.83369 14.3217 6.8633 14.3198 6.89587C14.3188 6.91858 14.3178 6.93783 14.3168 6.95362C14.3168 6.96941 14.3163 6.98422 14.3153 6.99804C14.3153 7.01186 14.3153 7.02617 14.3153 7.04097C14.3153 7.05479 14.3153 7.07157 14.3153 7.09132H14.2977C14.2899 7.09033 14.282 7.08984 14.2742 7.08984C14.2673 7.08984 14.26 7.08984 14.2521 7.08984C14.2453 7.08984 14.2379 7.09033 14.2301 7.09132C14.2222 7.09132 14.2139 7.09132 14.2051 7.09132H14.1874C14.1894 7.06565 14.1913 7.04344 14.1933 7.02469C14.1953 7.00593 14.1967 6.98817 14.1977 6.97139C14.1987 6.95461 14.1997 6.93832 14.2006 6.92253C14.2016 6.90575 14.2026 6.88699 14.2036 6.86626L14.2095 6.71672L14.2124 6.66046C14.2006 6.66934 14.1899 6.67724 14.1801 6.68415C14.1712 6.69007 14.1619 6.6955 14.1521 6.70043C14.1433 6.70438 14.133 6.70833 14.1212 6.71228C14.1095 6.71623 14.0953 6.72067 14.0786 6.7256L14.0051 6.74633C13.9296 6.76805 13.8757 6.79174 13.8433 6.8174C13.8119 6.84208 13.7963 6.87367 13.7963 6.91216C13.7963 6.95066 13.8105 6.98027 13.8389 7.001C13.8683 7.02173 13.91 7.03209 13.9639 7.03209C13.9766 7.03209 13.9884 7.0316 13.9992 7.03061C14.01 7.02962 14.0208 7.02814 14.0315 7.02617C14.0433 7.02419 14.0556 7.02173 14.0683 7.01877C14.081 7.01482 14.0958 7.01038 14.1124 7.00544C14.1085 7.01729 14.1051 7.02864 14.1021 7.03949C14.0992 7.04937 14.0958 7.06269 14.0918 7.07947L14.0889 7.0928C14.0722 7.09576 14.0575 7.09823 14.0448 7.1002C14.032 7.10217 14.0198 7.10365 14.008 7.10464C13.9972 7.10563 13.986 7.10612 13.9742 7.10612C13.9624 7.10711 13.9492 7.1076 13.9345 7.1076C13.7639 7.1076 13.6786 7.04196 13.6786 6.91068C13.6786 6.85738 13.6982 6.81247 13.7374 6.77595C13.7512 6.76311 13.7664 6.75176 13.783 6.74189C13.7997 6.73103 13.8198 6.72116 13.8433 6.71228C13.8668 6.70241 13.8948 6.69303 13.9271 6.68415C13.9595 6.67428 13.9992 6.66391 14.0462 6.65305C14.106 6.63924 14.1487 6.62196 14.1742 6.60123C14.2006 6.5805 14.2139 6.55435 14.2139 6.52276C14.2139 6.49019 14.1992 6.46502 14.1698 6.44725C14.1404 6.42849 14.0992 6.41912 14.0462 6.41912C14.0306 6.41912 14.0149 6.41961 13.9992 6.4206C13.9835 6.42158 13.9673 6.42307 13.9507 6.42504C13.934 6.428 13.9193 6.43096 13.9065 6.43392C13.8938 6.4359 13.8806 6.43886 13.8668 6.44281C13.8541 6.44676 13.8404 6.4512 13.8257 6.45613C13.811 6.46107 13.7938 6.46748 13.7742 6.47538C13.7752 6.47143 13.7757 6.46847 13.7757 6.4665C13.7757 6.46354 13.7762 6.46107 13.7771 6.45909C13.7781 6.45416 13.7786 6.44922 13.7786 6.44429C13.7796 6.43837 13.7806 6.43294 13.7816 6.428C13.7835 6.42603 13.785 6.41517 13.786 6.39543L13.7874 6.38062C13.8012 6.37766 13.8124 6.37519 13.8213 6.37322C13.8311 6.37124 13.8394 6.36927 13.8463 6.3673C13.9217 6.35052 13.9928 6.34213 14.0595 6.34213C14.1546 6.34213 14.2247 6.35742 14.2698 6.38802C14.3149 6.41862 14.3374 6.46551 14.3374 6.52868Z" fill="var(--fill-0, #1C4382)"/>
<path d="M14.8956 6.36137C14.8936 6.37914 14.8921 6.39395 14.8911 6.40579C14.8911 6.41764 14.8911 6.43195 14.8911 6.44873H14.6912L14.6897 6.49463L14.6823 6.63973L14.6779 6.70636C14.676 6.74189 14.6745 6.77397 14.6735 6.8026C14.6725 6.83122 14.672 6.85689 14.672 6.87959V6.88699C14.672 6.9324 14.6794 6.96546 14.6941 6.98619C14.7098 7.00593 14.7348 7.0158 14.7691 7.0158C14.7848 7.0158 14.7995 7.01432 14.8132 7.01136C14.8279 7.0084 14.85 7.00297 14.8794 6.99508C14.8764 7.00988 14.874 7.02271 14.872 7.03357C14.8711 7.04344 14.8691 7.05677 14.8662 7.07355L14.8632 7.08984C14.8475 7.09378 14.8338 7.09674 14.822 7.09872C14.8113 7.10069 14.8005 7.10217 14.7897 7.10316C14.7799 7.10513 14.7701 7.10612 14.7603 7.10612C14.7505 7.10711 14.7397 7.1076 14.7279 7.1076C14.6652 7.1076 14.6191 7.09428 14.5897 7.06763C14.5613 7.04097 14.547 6.99902 14.547 6.94177C14.547 6.93388 14.547 6.9245 14.547 6.91364C14.548 6.90278 14.549 6.88995 14.55 6.87515L14.5588 6.71376L14.5632 6.63973L14.5706 6.49907L14.572 6.44873H14.4765C14.4784 6.43491 14.4789 6.42405 14.4779 6.41616C14.4779 6.40727 14.4789 6.39444 14.4809 6.37766L14.4823 6.36137H14.5794C14.5814 6.34163 14.5823 6.32633 14.5823 6.31547C14.5833 6.30363 14.5843 6.28636 14.5853 6.26365L14.5868 6.22368L14.6059 6.21923C14.6167 6.21627 14.6255 6.2143 14.6323 6.21331C14.6402 6.21134 14.6475 6.20986 14.6544 6.20887C14.6613 6.20788 14.6681 6.2069 14.675 6.20591C14.6828 6.20393 14.6916 6.20196 14.7015 6.19999L14.7 6.23108L14.697 6.27846L14.6956 6.32584V6.36137H14.8956Z" fill="var(--fill-0, #1C4382)"/>
<path d="M15.4052 6.18666C15.3798 6.17778 15.3577 6.17185 15.3391 6.16889C15.3204 6.16495 15.3018 6.16297 15.2832 6.16297C15.241 6.16297 15.2092 6.17383 15.1876 6.19554C15.1758 6.20838 15.1675 6.22417 15.1626 6.24292C15.1577 6.26069 15.1553 6.28932 15.1553 6.3288V6.35989H15.3552C15.3533 6.37174 15.3518 6.38408 15.3508 6.39691C15.3499 6.40875 15.3494 6.42208 15.3494 6.43688V6.44873H15.1553L15.1538 6.50351L15.145 6.74485L15.1391 7.01136L15.1361 7.09132H15.117C15.1082 7.09132 15.0999 7.09132 15.092 7.09132C15.0852 7.09033 15.0783 7.08984 15.0714 7.08984C15.0656 7.08984 15.0587 7.09033 15.0509 7.09132C15.044 7.09132 15.0357 7.09132 15.0259 7.09132H15.0067C15.0087 7.07256 15.0097 7.05677 15.0097 7.04394C15.0107 7.03012 15.0116 7.01827 15.0126 7.0084C15.0156 6.95806 15.0185 6.89143 15.0214 6.80852C15.0254 6.7256 15.0293 6.62097 15.0332 6.49463L15.0347 6.44873H14.945C14.9469 6.43787 14.9479 6.42455 14.9479 6.40875C14.9489 6.39296 14.9499 6.37667 14.9509 6.35989H15.0435V6.33028C15.0435 6.30955 15.0435 6.29228 15.0435 6.27846C15.0445 6.26365 15.0455 6.25131 15.0464 6.24144C15.0474 6.23059 15.0489 6.22121 15.0509 6.21331C15.0528 6.20443 15.0548 6.19604 15.0567 6.18814C15.0675 6.15162 15.0896 6.12398 15.1229 6.10523C15.1572 6.08549 15.2018 6.07561 15.2567 6.07561C15.2793 6.07561 15.3003 6.0771 15.32 6.08006C15.3405 6.08203 15.367 6.08697 15.3994 6.09486C15.3994 6.11164 15.3994 6.12546 15.3994 6.13632C15.4003 6.14619 15.4018 6.15804 15.4038 6.17185L15.4052 6.18666Z" fill="var(--fill-0, #1C4382)"/>
<path d="M16.0232 6.70339C16.0232 6.61555 16.0026 6.54892 15.9614 6.50351C15.9213 6.45712 15.8619 6.43392 15.7835 6.43392C15.7031 6.43392 15.6404 6.46156 15.5953 6.51684C15.5502 6.57113 15.5276 6.64763 15.5276 6.74633C15.5276 6.83023 15.5487 6.89637 15.5909 6.94473C15.634 6.9931 15.6928 7.01729 15.7673 7.01729C15.8477 7.01729 15.9105 6.98965 15.9556 6.93437C16.0007 6.87909 16.0232 6.8021 16.0232 6.70339ZM16.1482 6.70488C16.1482 6.76904 16.1364 6.82974 16.1129 6.88699C16.0541 7.03407 15.9364 7.1076 15.76 7.1076C15.7061 7.1076 15.6571 7.09921 15.6129 7.08243C15.5688 7.06466 15.5311 7.03999 15.4997 7.0084C15.4683 6.97583 15.4438 6.93733 15.4262 6.89291C15.4095 6.8485 15.4012 6.79865 15.4012 6.74337C15.4012 6.68119 15.41 6.62542 15.4277 6.57606C15.4463 6.52671 15.4723 6.48476 15.5056 6.45021C15.5389 6.41566 15.5796 6.38901 15.6276 6.37026C15.6757 6.3515 15.7296 6.34213 15.7894 6.34213C15.9021 6.34213 15.9899 6.37421 16.0526 6.43837C16.1163 6.50253 16.1482 6.59136 16.1482 6.70488Z" fill="var(--fill-0, #1C4382)"/>
<path d="M16.7146 6.45613C16.695 6.4512 16.6803 6.44824 16.6705 6.44725C16.6607 6.44527 16.6489 6.44429 16.6352 6.44429C16.5882 6.44429 16.5475 6.45811 16.5132 6.48574C16.4798 6.51338 16.4563 6.55139 16.4426 6.59975C16.4357 6.62245 16.4308 6.65059 16.4279 6.68415C16.4259 6.70488 16.4244 6.72857 16.4235 6.75522C16.4225 6.78187 16.4215 6.81049 16.4205 6.84109C16.4195 6.8707 16.4186 6.9018 16.4176 6.93437C16.4176 6.96596 16.4176 6.99705 16.4176 7.02765V7.09132H16.3999C16.3921 7.09033 16.3842 7.08984 16.3764 7.08984C16.3695 7.08984 16.3627 7.08984 16.3558 7.08984C16.348 7.08984 16.3401 7.09033 16.3323 7.09132C16.3254 7.09132 16.3176 7.09132 16.3088 7.09132H16.2896L16.2941 7.02025C16.297 6.96694 16.2999 6.91315 16.3029 6.85886C16.3058 6.80457 16.3078 6.75275 16.3088 6.70339C16.3107 6.65305 16.3122 6.60666 16.3132 6.56422C16.3141 6.52079 16.3146 6.48278 16.3146 6.45021V6.35841C16.3293 6.3594 16.3406 6.35989 16.3485 6.35989C16.3563 6.35989 16.3651 6.35989 16.3749 6.35989C16.3857 6.35989 16.3945 6.35989 16.4014 6.35989C16.4092 6.35989 16.4205 6.3594 16.4352 6.35841L16.4308 6.47834C16.4357 6.46946 16.4406 6.46107 16.4455 6.45317C16.4504 6.44527 16.4553 6.43787 16.4602 6.43096C16.5024 6.37174 16.5666 6.34213 16.6529 6.34213C16.6636 6.34213 16.6725 6.34262 16.6793 6.34361C16.6862 6.34459 16.6965 6.34657 16.7102 6.34953C16.7102 6.36927 16.7102 6.38506 16.7102 6.39691C16.7102 6.40777 16.7112 6.42208 16.7131 6.43985L16.7146 6.45613Z" fill="var(--fill-0, #1C4382)"/>
<path d="M17.9027 6.53905C17.9027 6.55188 17.9022 6.56767 17.9012 6.58643C17.9002 6.60518 17.8988 6.6269 17.8968 6.65157C17.8948 6.67132 17.8929 6.69698 17.8909 6.72857C17.8899 6.75916 17.8885 6.79519 17.8865 6.83665C17.8845 6.87021 17.8831 6.89785 17.8821 6.91956C17.8821 6.94128 17.8816 6.96102 17.8806 6.97879C17.8806 6.99656 17.8801 7.01383 17.8792 7.03061C17.8792 7.04739 17.8792 7.06763 17.8792 7.09132H17.8615C17.8537 7.09033 17.8463 7.08984 17.8394 7.08984C17.8336 7.08984 17.8272 7.08984 17.8203 7.08984C17.8125 7.08984 17.8046 7.09033 17.7968 7.09132C17.789 7.09132 17.7806 7.09132 17.7718 7.09132H17.7512C17.7532 7.06861 17.7546 7.04937 17.7556 7.03357C17.7566 7.01679 17.7576 7.00001 17.7586 6.98323C17.7596 6.96645 17.7605 6.94819 17.7615 6.92845C17.7625 6.90772 17.764 6.88156 17.7659 6.84998L17.7747 6.68267C17.7757 6.66589 17.7762 6.6496 17.7762 6.63381C17.7772 6.61801 17.7777 6.60321 17.7777 6.58939C17.7777 6.49068 17.7287 6.44133 17.6306 6.44133C17.5963 6.44133 17.565 6.44922 17.5365 6.46502C17.5091 6.47982 17.486 6.50154 17.4674 6.53016C17.4586 6.54497 17.4507 6.56076 17.4439 6.57754C17.438 6.59432 17.4331 6.61555 17.4292 6.64121C17.4253 6.66589 17.4218 6.6955 17.4189 6.73005C17.4169 6.76459 17.4155 6.80704 17.4145 6.85738L17.4101 7.01877L17.4071 7.09132H17.3895C17.3816 7.09033 17.3738 7.08984 17.3659 7.08984C17.3591 7.08984 17.3522 7.08984 17.3454 7.08984C17.3395 7.08984 17.3326 7.09033 17.3248 7.09132C17.3179 7.09132 17.3096 7.09132 17.2998 7.09132H17.2807C17.2816 7.0696 17.2826 7.05183 17.2836 7.03801C17.2856 7.02321 17.2865 7.0084 17.2865 6.9936C17.2875 6.9778 17.2885 6.96003 17.2895 6.94029C17.2905 6.91956 17.2919 6.89242 17.2939 6.85886C17.2968 6.80951 17.2988 6.77052 17.2998 6.74189C17.3008 6.71327 17.3017 6.69056 17.3027 6.67378C17.3037 6.65602 17.3042 6.6422 17.3042 6.63233C17.3042 6.62147 17.3042 6.60913 17.3042 6.59531C17.3042 6.54497 17.2919 6.50697 17.2674 6.4813C17.2429 6.45465 17.2071 6.44133 17.1601 6.44133C17.116 6.44133 17.0767 6.45465 17.0424 6.4813C17.0081 6.50795 16.9841 6.54448 16.9704 6.59087C16.9655 6.60469 16.9616 6.61949 16.9586 6.63529C16.9557 6.65108 16.9532 6.66934 16.9513 6.69007C16.9493 6.7108 16.9473 6.73498 16.9454 6.76262C16.9434 6.78927 16.9419 6.82086 16.941 6.85738C16.939 6.886 16.9375 6.91019 16.9366 6.92993C16.9366 6.94868 16.9361 6.96645 16.9351 6.98323C16.9351 6.99902 16.9351 7.01531 16.9351 7.03209C16.9351 7.04788 16.9351 7.06763 16.9351 7.09132H16.9145C16.9057 7.09132 16.8973 7.09132 16.8895 7.09132C16.8826 7.09033 16.8768 7.08984 16.8719 7.08984C16.866 7.08984 16.8591 7.09033 16.8513 7.09132C16.8444 7.09132 16.8361 7.09132 16.8263 7.09132H16.8057C16.8086 7.05874 16.8111 7.0311 16.813 7.0084C16.815 6.98471 16.8165 6.96003 16.8174 6.93437C16.8194 6.90871 16.8209 6.87811 16.8219 6.84257C16.8238 6.80704 16.8258 6.76015 16.8277 6.70191C16.8297 6.65059 16.8312 6.60962 16.8321 6.57902C16.8341 6.54744 16.8351 6.52029 16.8351 6.49759C16.8361 6.47489 16.8366 6.45366 16.8366 6.43392C16.8375 6.41319 16.838 6.38802 16.838 6.35841C16.8518 6.3594 16.8625 6.35989 16.8704 6.35989C16.8782 6.35989 16.888 6.35989 16.8998 6.35989C16.9106 6.35989 16.9199 6.35989 16.9277 6.35989C16.9356 6.35989 16.9459 6.3594 16.9586 6.35841L16.9527 6.49315C16.9655 6.47143 16.9772 6.45366 16.988 6.43985C17.0106 6.40925 17.041 6.38556 17.0792 6.36878C17.1184 6.35101 17.1601 6.34213 17.2042 6.34213C17.2512 6.34213 17.2939 6.35249 17.3321 6.37322C17.3566 6.38605 17.3748 6.40086 17.3865 6.41764C17.3993 6.43343 17.4105 6.45811 17.4204 6.49167C17.4253 6.48377 17.4297 6.47637 17.4336 6.46946C17.4375 6.46255 17.4414 6.45663 17.4454 6.45169C17.4689 6.41714 17.5003 6.39049 17.5395 6.37174C17.5797 6.352 17.6248 6.34213 17.6748 6.34213C17.7453 6.34213 17.8007 6.3594 17.8409 6.39395C17.8821 6.42849 17.9027 6.47686 17.9027 6.53905Z" fill="var(--fill-0, #1C4382)"/>
<path d="M18.5096 6.46502C18.4782 6.45317 18.4508 6.44478 18.4272 6.43985C18.4047 6.43491 18.3802 6.43244 18.3537 6.43244C18.3057 6.43244 18.2684 6.44083 18.2419 6.45761C18.2155 6.47341 18.2022 6.4966 18.2022 6.5272C18.2022 6.5578 18.2194 6.58889 18.2537 6.62048C18.2576 6.62443 18.2616 6.62838 18.2655 6.63233C18.2694 6.63529 18.2743 6.63924 18.2802 6.64417C18.2861 6.64911 18.2934 6.65552 18.3022 6.66342C18.312 6.67033 18.3243 6.67971 18.339 6.69155C18.3782 6.72314 18.4062 6.74683 18.4228 6.76262C18.4767 6.81296 18.5037 6.86626 18.5037 6.92253C18.5037 6.9778 18.4807 7.02271 18.4346 7.05726C18.3885 7.09082 18.3277 7.1076 18.2522 7.1076C18.2415 7.1076 18.2282 7.10711 18.2125 7.10612C18.1969 7.10513 18.1812 7.10365 18.1655 7.10168C18.1518 7.10069 18.14 7.09921 18.1302 7.09724C18.1204 7.09625 18.1106 7.09477 18.1008 7.0928C18.092 7.09082 18.0826 7.08885 18.0728 7.08687C18.063 7.08391 18.0513 7.08095 18.0375 7.07799L18.0361 7.06022L18.0331 7.02173L18.0287 6.98471L18.0273 6.96991C18.0557 6.98175 18.0777 6.99014 18.0934 6.99508C18.1101 7.00001 18.1287 7.00495 18.1493 7.00988C18.1768 7.0158 18.2042 7.01877 18.2317 7.01877C18.2787 7.01877 18.3155 7.00939 18.3419 6.99063C18.3684 6.97188 18.3816 6.94572 18.3816 6.91216C18.3816 6.88452 18.3718 6.86083 18.3522 6.84109C18.3444 6.8332 18.3356 6.82481 18.3258 6.81592C18.316 6.80704 18.3027 6.79569 18.2861 6.78187L18.2375 6.74189C18.215 6.72412 18.1969 6.70932 18.1831 6.69747C18.1694 6.68464 18.1581 6.67378 18.1493 6.6649C18.1022 6.61752 18.0787 6.56866 18.0787 6.51832C18.0787 6.46403 18.1008 6.42109 18.1449 6.3895C18.189 6.35792 18.2493 6.34213 18.3258 6.34213C18.3522 6.34213 18.3792 6.34361 18.4066 6.34657C18.4341 6.34953 18.4664 6.35446 18.5037 6.36137V6.37618C18.5037 6.39099 18.5037 6.40431 18.5037 6.41616C18.5047 6.42701 18.5061 6.43837 18.5081 6.45021L18.5096 6.46502Z" fill="var(--fill-0, #1C4382)"/>
</g>
<g id="Group 28">
<path id="Fill 2" fill-rule="evenodd" clip-rule="evenodd" d="M3.12181 5.68052C3.12073 5.52871 3.11508 5.39678 3.10463 5.28495C3.2701 5.36475 3.4194 5.42109 3.55237 5.4539C3.68541 5.48671 3.81381 5.50315 3.93772 5.50315C4.05683 5.50315 4.16829 5.48273 4.272 5.44198C4.37594 5.40122 4.45496 5.34363 4.50914 5.26929C4.56324 5.19502 4.59203 5.10993 4.59528 5.01384C4.59729 4.95804 4.59033 4.9056 4.57462 4.85689C4.55875 4.80803 4.53243 4.75863 4.49521 4.70813C4.45806 4.65779 4.39289 4.58983 4.29994 4.50427C4.20683 4.41886 4.07471 4.30088 3.90359 4.15063L3.73262 3.99961C3.66807 3.94202 3.60964 3.88482 3.55755 3.82809C3.50554 3.77143 3.46212 3.71704 3.42753 3.66506C3.39278 3.61316 3.36631 3.56594 3.34789 3.52354C3.32947 3.48123 3.31561 3.434 3.30632 3.3821C3.29711 3.33013 3.29332 3.27698 3.29518 3.22266C3.29998 3.08512 3.34169 2.95646 3.42056 2.83661C3.49927 2.71668 3.61498 2.62075 3.76753 2.54882C3.92 2.47689 4.11937 2.44089 4.36534 2.44089C4.5418 2.44089 4.75766 2.46481 5.01314 2.51289C5.01276 2.61584 5.01949 2.74216 5.03334 2.89178C4.79341 2.80536 4.57423 2.76226 4.37571 2.76226C4.23918 2.76226 4.12409 2.78486 4.03037 2.83022C3.93679 2.87557 3.86489 2.93363 3.81482 3.00439C3.76474 3.07514 3.73835 3.14793 3.7358 3.22266C3.73425 3.26739 3.73912 3.31095 3.75027 3.35335C3.76157 3.39574 3.77921 3.43603 3.80328 3.47445C3.8378 3.5304 3.88115 3.58674 3.93316 3.64347C3.98517 3.70028 4.05745 3.76948 4.14979 3.85092C4.17293 3.87009 4.26124 3.94513 4.41472 4.07636C4.56811 4.20736 4.6798 4.30882 4.74945 4.38083C4.81934 4.45276 4.87453 4.51962 4.91531 4.58111C4.95595 4.64267 4.98698 4.70899 5.00827 4.78013C5.02963 4.8512 5.03899 4.92835 5.03605 5.0115C5.03164 5.13946 5.00014 5.25737 4.94163 5.36514C4.88312 5.47323 4.80139 5.56152 4.69667 5.63017C4.5918 5.69891 4.47617 5.74761 4.34978 5.77637C4.22331 5.80528 4.0919 5.81962 3.95537 5.81962C3.84578 5.81962 3.73293 5.81128 3.61684 5.79445C3.50074 5.77769 3.33566 5.73974 3.12181 5.68052" fill="var(--fill-0, #1C4382)"/>
<path id="Fill 4" fill-rule="evenodd" clip-rule="evenodd" d="M6.05715 5.76677L6.1484 4.86514L6.27393 3.1794L6.29382 2.81243C6.29862 2.71978 6.30319 2.6134 6.30721 2.49355C6.66579 2.49519 7.03327 2.49589 7.40941 2.49589L8.16898 2.49355H8.41177C8.39676 2.60468 8.38577 2.7165 8.37865 2.82927L8.1672 2.81726C8.11488 2.81399 8.02479 2.81165 7.89701 2.8101C7.76938 2.80854 7.64261 2.8076 7.5173 2.8076C7.14255 2.8076 6.88134 2.8101 6.73351 2.81485L6.65139 3.93709C6.89573 3.94192 7.11484 3.94426 7.30857 3.94426C7.51978 3.94426 7.79701 3.94107 8.14027 3.93468C8.12533 4.04658 8.11426 4.15693 8.10737 4.26556L7.28798 4.25847C7.12761 4.25847 6.90432 4.26174 6.61819 4.26813L6.53391 5.45272L6.78165 5.45505C7.23132 5.45505 7.52953 5.45342 7.67666 5.45022C7.82372 5.44703 7.99592 5.43994 8.19328 5.42864C8.17804 5.54693 8.16705 5.65961 8.16008 5.76677C7.77759 5.76349 7.45446 5.76193 7.19092 5.76193L6.05715 5.76677Z" fill="var(--fill-0, #1C4382)"/>
<path id="Fill 6" fill-rule="evenodd" clip-rule="evenodd" d="M9.29338 5.76677C9.344 5.35429 9.39268 4.85033 9.43943 4.2548C9.48625 3.65936 9.52286 3.07225 9.54933 2.49355C9.65892 2.49519 9.7422 2.49589 9.79947 2.49589L10.0212 2.49355L9.89243 4.01268L9.7857 5.44539L10.238 5.44773C10.5747 5.44773 10.8115 5.44671 10.9491 5.44422C11.0863 5.44188 11.2195 5.43666 11.3485 5.42864C11.3353 5.53002 11.3235 5.6427 11.3128 5.76677C10.9525 5.76349 10.6342 5.76193 10.358 5.76193L9.29338 5.76677Z" fill="var(--fill-0, #1C4382)"/>
<path id="Fill 8" fill-rule="evenodd" clip-rule="evenodd" d="M12.1936 5.76677L12.2483 5.21519L12.3379 4.06669L12.4105 2.9347C12.4143 2.86924 12.4175 2.80371 12.4197 2.73817L12.4258 2.49355L12.6713 2.49589L12.9025 2.49355C12.86 2.89317 12.8242 3.31039 12.7949 3.74531C12.7455 4.44222 12.7038 5.11614 12.6702 5.76677L12.4464 5.76193C12.4177 5.76193 12.3336 5.76349 12.1936 5.76677" fill="var(--fill-0, #1C4382)"/>
<path id="Fill 10" fill-rule="evenodd" clip-rule="evenodd" d="M13.7655 5.68049C13.7644 5.52868 13.7587 5.39675 13.7482 5.28492C13.9138 5.36472 14.063 5.42106 14.1961 5.45387C14.3292 5.48668 14.4575 5.50312 14.5813 5.50312C14.7005 5.50312 14.8119 5.48271 14.9157 5.44195C15.0196 5.40119 15.0987 5.3436 15.1528 5.26926C15.2069 5.19499 15.2356 5.1099 15.2389 5.01381C15.241 4.95801 15.2339 4.90557 15.2182 4.85686C15.2024 4.808 15.1761 4.7586 15.1388 4.7081C15.1017 4.65776 15.0367 4.5898 14.9436 4.50424C14.8504 4.41883 14.7183 4.30085 14.5474 4.1506L14.3764 3.99958C14.3117 3.94199 14.2533 3.88479 14.2013 3.82806C14.1493 3.7714 14.1057 3.71701 14.0711 3.66503C14.0364 3.61313 14.0099 3.56591 13.9917 3.52351C13.9731 3.4812 13.9593 3.43397 13.9501 3.38207C13.9407 3.3301 13.9369 3.27695 13.9389 3.22263C13.9436 3.08509 13.9853 2.95643 14.0642 2.83658C14.143 2.71665 14.2586 2.62072 14.4111 2.54879C14.5637 2.47686 14.7631 2.44086 15.0091 2.44086C15.1854 2.44086 15.4013 2.46478 15.6568 2.51286C15.6565 2.61581 15.6631 2.74213 15.677 2.89175C15.4371 2.80533 15.2179 2.76223 15.0194 2.76223C14.883 2.76223 14.7677 2.78483 14.6741 2.83019C14.5804 2.87554 14.5087 2.9336 14.4584 3.00436C14.4084 3.07512 14.382 3.1479 14.3794 3.22263C14.3779 3.26736 14.3827 3.31093 14.3939 3.35332C14.4053 3.39571 14.4229 3.436 14.447 3.47442C14.4814 3.53037 14.5248 3.58671 14.5768 3.64345C14.6288 3.70026 14.7011 3.76946 14.7936 3.85089C14.8167 3.87006 14.905 3.94511 15.0584 4.07634C15.2117 4.20733 15.3234 4.3088 15.3931 4.3808C15.463 4.45273 15.5181 4.51959 15.5589 4.58108C15.5996 4.64264 15.6306 4.70896 15.652 4.78011C15.6733 4.85118 15.6826 4.92832 15.6797 5.01147C15.6753 5.13943 15.6439 5.25734 15.5852 5.36511C15.5267 5.4732 15.4451 5.56149 15.3404 5.63014C15.2354 5.69888 15.1198 5.74758 14.9934 5.77634C14.867 5.80525 14.7355 5.81959 14.5991 5.81959C14.4895 5.81959 14.3766 5.81125 14.2605 5.79442C14.1444 5.77766 13.9794 5.73971 13.7655 5.68049" fill="var(--fill-0, #1C4382)"/>
<path id="Fill 12" fill-rule="evenodd" clip-rule="evenodd" d="M16.701 5.76677L16.7922 4.86514L16.9178 3.1794L16.9376 2.81243C16.9424 2.71978 16.947 2.6134 16.9511 2.49355C17.3097 2.49519 17.677 2.49589 18.0533 2.49589L18.8128 2.49355H19.0557C19.0407 2.60468 19.0297 2.7165 19.0226 2.82927L18.811 2.81726C18.7587 2.81399 18.6687 2.81165 18.5408 2.8101C18.4131 2.80854 18.2865 2.8076 18.1611 2.8076C17.7863 2.8076 17.5251 2.8101 17.3773 2.81485L17.2953 3.93709C17.5395 3.94192 17.7587 3.94426 17.9525 3.94426C18.1636 3.94426 18.4409 3.94107 18.7842 3.93468C18.7691 4.04658 18.7582 4.15693 18.7511 4.26556L17.9318 4.25847C17.7714 4.25847 17.5481 4.26174 17.2621 4.26813L17.1778 5.45272L17.4255 5.45505C17.8751 5.45505 18.1735 5.45342 18.3206 5.45022C18.4675 5.44703 18.6397 5.43994 18.8371 5.42864C18.8218 5.54693 18.8108 5.65961 18.8039 5.76677C18.4214 5.76349 18.0984 5.76193 17.8349 5.76193L16.701 5.76677Z" fill="var(--fill-0, #1C4382)"/>
<path id="Fill 14" fill-rule="evenodd" clip-rule="evenodd" d="M3.12181 5.68052C3.12073 5.52871 3.11508 5.39678 3.10463 5.28495C3.2701 5.36475 3.4194 5.42109 3.55237 5.4539C3.68541 5.48671 3.81381 5.50315 3.93772 5.50315C4.05683 5.50315 4.16829 5.48273 4.272 5.44198C4.37594 5.40122 4.45496 5.34363 4.50914 5.26929C4.56324 5.19502 4.59203 5.10993 4.59528 5.01384C4.59729 4.95804 4.59033 4.9056 4.57462 4.85689C4.55875 4.80803 4.53243 4.75863 4.49521 4.70813C4.45806 4.65779 4.39289 4.58983 4.29994 4.50427C4.20683 4.41886 4.07471 4.30088 3.90359 4.15063L3.73262 3.99961C3.66807 3.94202 3.60964 3.88482 3.55755 3.82809C3.50554 3.77143 3.46212 3.71704 3.42753 3.66506C3.39278 3.61316 3.36631 3.56594 3.34789 3.52354C3.32947 3.48123 3.31561 3.434 3.30632 3.3821C3.29711 3.33013 3.29332 3.27698 3.29518 3.22266C3.29998 3.08512 3.34169 2.95646 3.42056 2.83661C3.49927 2.71668 3.61498 2.62075 3.76753 2.54882C3.92 2.47689 4.11937 2.44089 4.36534 2.44089C4.5418 2.44089 4.75766 2.46481 5.01314 2.51289C5.01276 2.61584 5.01949 2.74216 5.03334 2.89178C4.79341 2.80536 4.57423 2.76226 4.37571 2.76226C4.23918 2.76226 4.12409 2.78486 4.03037 2.83022C3.93679 2.87557 3.86489 2.93363 3.81482 3.00439C3.76474 3.07514 3.73835 3.14793 3.7358 3.22266C3.73425 3.26739 3.73912 3.31095 3.75027 3.35335C3.76157 3.39574 3.77921 3.43603 3.80328 3.47445C3.8378 3.5304 3.88115 3.58674 3.93316 3.64347C3.98517 3.70028 4.05745 3.76948 4.14979 3.85092C4.17293 3.87009 4.26124 3.94513 4.41472 4.07636C4.56811 4.20736 4.6798 4.30882 4.74945 4.38083C4.81934 4.45276 4.87453 4.51962 4.91531 4.58111C4.95595 4.64267 4.98698 4.70899 5.00827 4.78013C5.02963 4.8512 5.03899 4.92835 5.03605 5.0115C5.03164 5.13946 5.00014 5.25737 4.94163 5.36514C4.88312 5.47323 4.80139 5.56152 4.69667 5.63017C4.5918 5.69891 4.47617 5.74761 4.34978 5.77637C4.22331 5.80528 4.0919 5.81962 3.95537 5.81962C3.84578 5.81962 3.73293 5.81128 3.61684 5.79445C3.50074 5.77769 3.33566 5.73974 3.12181 5.68052" fill="var(--fill-0, #1C4382)"/>
<path id="Fill 16" fill-rule="evenodd" clip-rule="evenodd" d="M6.05715 5.76677L6.1484 4.86514L6.27393 3.1794L6.29382 2.81243C6.29862 2.71978 6.30319 2.6134 6.30721 2.49355C6.66579 2.49519 7.03327 2.49589 7.40941 2.49589L8.16898 2.49355H8.41177C8.39676 2.60468 8.38577 2.7165 8.37865 2.82927L8.1672 2.81726C8.11488 2.81399 8.02479 2.81165 7.89701 2.8101C7.76938 2.80854 7.64261 2.8076 7.5173 2.8076C7.14255 2.8076 6.88134 2.8101 6.73351 2.81485L6.65139 3.93709C6.89573 3.94192 7.11484 3.94426 7.30857 3.94426C7.51978 3.94426 7.79701 3.94107 8.14027 3.93468C8.12533 4.04658 8.11426 4.15693 8.10737 4.26556L7.28798 4.25847C7.12761 4.25847 6.90433 4.26174 6.61819 4.26813L6.53391 5.45272L6.78165 5.45505C7.23132 5.45505 7.52953 5.45342 7.67666 5.45022C7.82372 5.44703 7.99592 5.43994 8.19328 5.42864C8.17804 5.54693 8.16705 5.65961 8.16008 5.76677C7.77759 5.76349 7.45446 5.76193 7.19092 5.76193L6.05715 5.76677Z" fill="var(--fill-0, #1C4382)"/>
<path id="Fill 18" fill-rule="evenodd" clip-rule="evenodd" d="M9.29338 5.76677C9.344 5.35429 9.39268 4.85033 9.43943 4.2548C9.48625 3.65936 9.52286 3.07225 9.54933 2.49355C9.65892 2.49519 9.7422 2.49589 9.79947 2.49589L10.0212 2.49355L9.89243 4.01268L9.7857 5.44539L10.238 5.44773C10.5747 5.44773 10.8115 5.44671 10.9491 5.44422C11.0863 5.44188 11.2195 5.43666 11.3485 5.42864C11.3353 5.53002 11.3235 5.6427 11.3128 5.76677C10.9525 5.76349 10.6342 5.76193 10.358 5.76193L9.29338 5.76677Z" fill="var(--fill-0, #1C4382)"/>
<path id="Fill 20" fill-rule="evenodd" clip-rule="evenodd" d="M12.1936 5.76677L12.2483 5.21519L12.3379 4.06669L12.4105 2.9347C12.4143 2.86924 12.4175 2.80371 12.4197 2.73817L12.4258 2.49355L12.6713 2.49589L12.9025 2.49355C12.86 2.89317 12.8242 3.31039 12.7949 3.74531C12.7455 4.44222 12.7038 5.11614 12.6702 5.76677L12.4464 5.76193C12.4177 5.76193 12.3336 5.76349 12.1936 5.76677" fill="var(--fill-0, #1C4382)"/>
<path id="Fill 22" fill-rule="evenodd" clip-rule="evenodd" d="M13.7655 5.68049C13.7644 5.52868 13.7587 5.39675 13.7482 5.28492C13.9138 5.36472 14.063 5.42106 14.1961 5.45387C14.3292 5.48668 14.4575 5.50312 14.5813 5.50312C14.7005 5.50312 14.8119 5.48271 14.9157 5.44195C15.0196 5.40119 15.0987 5.3436 15.1528 5.26926C15.2069 5.19499 15.2356 5.1099 15.2389 5.01381C15.241 4.95801 15.2339 4.90557 15.2182 4.85686C15.2024 4.808 15.1761 4.7586 15.1388 4.7081C15.1017 4.65776 15.0367 4.5898 14.9436 4.50424C14.8504 4.41883 14.7183 4.30085 14.5474 4.1506L14.3764 3.99958C14.3117 3.94199 14.2533 3.88479 14.2013 3.82806C14.1493 3.7714 14.1057 3.71701 14.0711 3.66503C14.0364 3.61313 14.0099 3.56591 13.9917 3.52351C13.9731 3.4812 13.9593 3.43397 13.9501 3.38207C13.9407 3.3301 13.9369 3.27695 13.9389 3.22263C13.9436 3.08509 13.9853 2.95643 14.0642 2.83658C14.143 2.71665 14.2586 2.62072 14.4111 2.54879C14.5637 2.47686 14.7631 2.44086 15.0091 2.44086C15.1854 2.44086 15.4013 2.46478 15.6568 2.51286C15.6565 2.61581 15.6631 2.74213 15.677 2.89175C15.4371 2.80533 15.2179 2.76223 15.0194 2.76223C14.883 2.76223 14.7677 2.78483 14.6741 2.83019C14.5804 2.87554 14.5087 2.9336 14.4584 3.00436C14.4084 3.07512 14.382 3.1479 14.3794 3.22263C14.3779 3.26736 14.3827 3.31093 14.3939 3.35332C14.4053 3.39571 14.4229 3.436 14.447 3.47442C14.4814 3.53037 14.5248 3.58671 14.5768 3.64345C14.6288 3.70026 14.7011 3.76946 14.7936 3.85089C14.8167 3.87006 14.905 3.94511 15.0584 4.07634C15.2117 4.20733 15.3234 4.3088 15.3931 4.3808C15.463 4.45273 15.5181 4.51959 15.5589 4.58108C15.5996 4.64264 15.6306 4.70896 15.652 4.78011C15.6733 4.85118 15.6826 4.92832 15.6797 5.01147C15.6753 5.13943 15.6439 5.25734 15.5852 5.36511C15.5267 5.4732 15.4451 5.56149 15.3404 5.63014C15.2354 5.69888 15.1198 5.74758 14.9934 5.77634C14.867 5.80525 14.7355 5.81959 14.5991 5.81959C14.4895 5.81959 14.3766 5.81125 14.2605 5.79442C14.1444 5.77766 13.9794 5.73971 13.7655 5.68049" fill="var(--fill-0, #1C4382)"/>
<path id="Fill 24" fill-rule="evenodd" clip-rule="evenodd" d="M16.701 5.76677L16.7922 4.86514L16.9178 3.1794L16.9376 2.81243C16.9424 2.71978 16.947 2.6134 16.9511 2.49355C17.3097 2.49519 17.677 2.49589 18.0533 2.49589L18.8128 2.49355H19.0557C19.0407 2.60468 19.0297 2.7165 19.0226 2.82927L18.811 2.81726C18.7587 2.81399 18.6687 2.81165 18.5408 2.8101C18.4131 2.80854 18.2865 2.8076 18.1611 2.8076C17.7863 2.8076 17.5251 2.8101 17.3773 2.81485L17.2953 3.93709C17.5395 3.94192 17.7587 3.94426 17.9525 3.94426C18.1636 3.94426 18.4409 3.94107 18.7842 3.93468C18.7691 4.04658 18.7582 4.15693 18.7511 4.26556L17.9318 4.25847C17.7714 4.25847 17.5481 4.26174 17.2621 4.26813L17.1778 5.45272L17.4255 5.45505C17.8751 5.45505 18.1735 5.45342 18.3206 5.45022C18.4675 5.44703 18.6397 5.43994 18.8371 5.42864C18.8218 5.54693 18.8108 5.65961 18.8039 5.76677C18.4214 5.76349 18.0984 5.76193 17.8349 5.76193L16.701 5.76677Z" fill="var(--fill-0, #1C4382)"/>
<path id="Fill 26" fill-rule="evenodd" clip-rule="evenodd" d="M4.32815 8.03332C4.0729 8.03332 3.8236 8.00783 3.58197 7.96061C3.58011 7.94347 3.57864 7.92741 3.57617 7.90879C3.57408 7.89289 3.5706 7.87466 3.56789 7.85775C3.61278 7.8579 3.65705 7.85899 3.70294 7.85736C3.85456 7.85159 4.00548 7.83678 4.15153 7.81091C4.2975 7.78535 4.43875 7.75044 4.57133 7.70805C4.68433 7.67204 4.78935 7.62981 4.88819 7.58547C4.92155 7.6683 4.95189 7.74974 4.97712 7.82829C4.99275 7.87699 5.00637 7.9243 5.01891 7.97082C4.79462 8.01111 4.56405 8.03332 4.32815 8.03332M3.06798 7.82239C3.20784 7.84234 3.35683 7.85481 3.51239 7.85793C3.5144 7.86463 3.5168 7.8718 3.51874 7.87842C3.52632 7.90453 3.53282 7.929 3.53894 7.95277C3.37795 7.91942 3.221 7.87507 3.06798 7.82239M2.46462 7.55665C2.40402 7.52337 2.34458 7.48823 2.28591 7.45183C2.28545 7.44989 2.28483 7.44786 2.28436 7.44591C2.4205 7.47178 2.57058 7.49197 2.73512 7.50155C2.92907 7.5116 3.14145 7.50545 3.36474 7.47849C3.37851 7.50732 3.39144 7.53576 3.40367 7.56374C3.41907 7.59873 3.43285 7.63263 3.44585 7.66598C3.24462 7.66247 3.04857 7.64759 2.86515 7.62343C2.72305 7.60504 2.58923 7.58182 2.46462 7.55665M2.17604 7.14961C2.25638 7.14914 2.34043 7.14556 2.43106 7.13807C2.48833 7.13153 2.54801 7.12639 2.60868 7.1161C2.63918 7.11135 2.67014 7.10683 2.70133 7.10137C2.73252 7.09521 2.76425 7.0889 2.79622 7.08251C2.81224 7.07932 2.82834 7.07604 2.84459 7.07262C2.86069 7.0688 2.87686 7.06482 2.89319 7.06093C2.92578 7.05282 2.95883 7.04464 2.99218 7.03638C3.025 7.02726 3.05805 7.01729 3.09156 7.00755C3.15417 7.09973 3.2106 7.19075 3.26075 7.27951C3.20835 7.28637 3.15595 7.29331 3.10425 7.2979C3.03622 7.30578 2.96865 7.30897 2.9024 7.31411C2.8692 7.31637 2.83638 7.31684 2.8038 7.31832C2.77114 7.3198 2.73887 7.32136 2.7069 7.32113C2.67494 7.32152 2.64328 7.32191 2.61201 7.3223C2.5809 7.32175 2.54994 7.32121 2.5196 7.32066C2.50435 7.32043 2.48911 7.32043 2.47417 7.3198C2.45923 7.31918 2.4443 7.3184 2.42951 7.3177C2.39995 7.31614 2.37077 7.31559 2.34205 7.31341C2.30723 7.31123 2.27457 7.30796 2.24121 7.30507C2.22286 7.25442 2.20204 7.20283 2.17604 7.14961M1.86616 6.69928C1.95347 6.64185 2.05253 6.57546 2.16244 6.49971C2.26096 6.4316 2.36831 6.35585 2.48239 6.27302C2.65251 6.44804 2.81094 6.62798 2.94778 6.80784C2.94816 6.8083 2.94847 6.80885 2.94886 6.80932C2.93524 6.81431 2.92162 6.81921 2.90784 6.8235C2.87503 6.83425 2.84244 6.84501 2.81017 6.85553L2.78594 6.86356L2.76179 6.87057C2.74562 6.8754 2.7296 6.88008 2.71365 6.88483C2.65003 6.9047 2.58688 6.9199 2.52566 6.93642C2.49485 6.94367 2.46444 6.95076 2.43449 6.95777C2.41955 6.96112 2.40469 6.96494 2.38975 6.96806C2.37497 6.97102 2.36019 6.9739 2.34563 6.97679C2.26065 6.99471 2.18078 7.0071 2.10385 7.01754C2.04031 6.91172 1.96113 6.80433 1.86616 6.69928M2.037 7.28333C1.9709 7.23494 1.90581 7.18499 1.84289 7.13246C1.88901 7.13815 1.93955 7.14236 1.99234 7.14556C1.99389 7.14766 1.99559 7.14976 1.99714 7.15187C2.02933 7.19769 2.05797 7.24343 2.08475 7.28902C2.06896 7.28707 2.05232 7.28536 2.037 7.28333M1.57521 6.88752C1.61089 6.86461 1.65438 6.83686 1.70461 6.80452C1.77922 6.88058 1.8495 6.95921 1.91273 7.03893C1.89996 7.04002 1.88595 7.0415 1.87357 7.04259C1.82845 7.04501 1.78603 7.04789 1.74656 7.04844C1.68805 6.99631 1.63054 6.943 1.57521 6.88752M1.43195 6.7357C1.4482 6.69534 1.4667 6.65076 1.4876 6.60237C1.52614 6.63525 1.56476 6.66954 1.60338 6.70547C1.62528 6.72604 1.64633 6.74731 1.66762 6.76835C1.62459 6.8074 1.58775 6.84098 1.55733 6.86904C1.51453 6.82548 1.47266 6.78113 1.43195 6.7357M1.4184 6.58833C1.40919 6.62503 1.40122 6.65877 1.39371 6.69104C1.35865 6.65075 1.32421 6.60984 1.29085 6.56814C1.28729 6.52793 1.28412 6.48523 1.28133 6.44034C1.32978 6.47518 1.3787 6.51321 1.42769 6.55326C1.42459 6.56487 1.42126 6.57711 1.4184 6.58833M1.27271 5.98882C1.27403 5.91666 1.2779 5.84138 1.28231 5.76314C1.28796 5.68497 1.29392 5.60385 1.30328 5.52023C1.3111 5.44644 1.32155 5.36976 1.33324 5.29214C1.37929 5.32471 1.42557 5.35744 1.47301 5.39251C1.56651 5.46187 1.6631 5.53761 1.76085 5.61671C1.75559 5.62871 1.75009 5.64095 1.74491 5.65279C1.7285 5.68926 1.71333 5.72573 1.69855 5.76166C1.68392 5.79766 1.66883 5.8328 1.65521 5.86787C1.59979 6.00783 1.55304 6.14015 1.51342 6.26118C1.50243 6.29531 1.49221 6.32835 1.48246 6.36061C1.4135 6.31253 1.34314 6.27084 1.27264 6.23304C1.27101 6.15613 1.2707 6.07501 1.27271 5.98882M1.11424 6.32983C1.12894 6.33871 1.14341 6.34674 1.15827 6.35633C1.17073 6.3642 1.18343 6.37339 1.19597 6.38173C1.20046 6.40978 1.20494 6.43745 1.20959 6.46387C1.17677 6.41999 1.14519 6.37511 1.11424 6.32983M1.01832 6.07533C0.98543 5.92618 0.953465 5.75801 0.926764 5.57246C0.901455 5.39564 0.882261 5.20238 0.87189 4.99572C0.965152 5.04918 1.06321 5.10965 1.16607 5.17776C1.12962 5.52976 1.13612 5.85394 1.16305 6.12599C1.16491 6.14469 1.16716 6.16215 1.16917 6.1803C1.12234 6.15887 1.07575 6.13994 1.02962 6.1238C1.02583 6.1076 1.02204 6.09201 1.01832 6.07533M0.492065 4.80949C0.561954 4.83622 0.637338 4.87043 0.71783 4.91158C0.723015 4.97478 0.72913 5.03681 0.736095 5.09759C0.765196 5.33909 0.807377 5.56165 0.855672 5.76092C0.878427 5.85459 0.902188 5.94272 0.926413 6.02587C0.718758 5.65369 0.57008 5.24402 0.492065 4.80949M0.428569 4.10765C0.428569 3.84278 0.455038 3.58413 0.504649 3.33398C0.547604 3.34458 0.591797 3.35674 0.637616 3.37186C0.69814 3.39181 0.761295 3.41604 0.826231 3.44332C0.823367 3.4543 0.820348 3.46537 0.817949 3.47644C0.809823 3.51236 0.801773 3.54821 0.793647 3.58398C0.785752 3.61967 0.779715 3.65567 0.77275 3.69128C0.769344 3.70921 0.766094 3.7269 0.762688 3.74482L0.754484 3.7982C0.749221 3.83381 0.74303 3.86919 0.738773 3.90465C0.720043 4.04609 0.709594 4.18582 0.703712 4.32227C0.698604 4.45895 0.700152 4.59244 0.705338 4.72196C0.706653 4.74892 0.708898 4.77487 0.710601 4.80137C0.628406 4.77215 0.550622 4.74924 0.478567 4.73349C0.44606 4.52963 0.428569 4.32071 0.428569 4.10765M1.04611 1.98815C1.14572 2.03919 1.26429 2.1027 1.39911 2.17845C1.38518 2.19879 1.37133 2.21912 1.35724 2.23962C1.31522 2.29978 1.27784 2.36392 1.23852 2.42782C1.21909 2.45992 1.20175 2.49351 1.1831 2.52663C1.17389 2.54323 1.16476 2.5599 1.15555 2.57666C1.14626 2.59326 1.13821 2.61071 1.12954 2.62786C1.11252 2.66222 1.09541 2.69659 1.07846 2.73088C1.06283 2.76579 1.04719 2.80078 1.03171 2.83561C1.01562 2.87021 1.00199 2.90575 0.987986 2.94105L0.967012 2.99396L0.95664 3.02038L0.947198 3.04719C0.934737 3.08288 0.922199 3.11849 0.909816 3.15395C0.897974 3.18964 0.887448 3.22564 0.876303 3.26141C0.870963 3.27918 0.865158 3.29703 0.860127 3.31495C0.858038 3.32305 0.85587 3.33108 0.853626 3.33918C0.735829 3.30194 0.624456 3.27637 0.520435 3.26126C0.620818 2.80133 0.801151 2.37202 1.04611 1.98815M1.96577 0.983816C1.97545 0.986856 1.9845 0.989427 1.99441 0.9927C2.05617 1.01055 2.1218 1.03665 2.19254 1.06143C2.20129 1.06471 2.21042 1.06743 2.21924 1.0711C2.22807 1.07484 2.23697 1.07858 2.2461 1.08224C2.26406 1.08964 2.28232 1.09705 2.30098 1.10468C2.31955 1.11216 2.33843 1.11965 2.35755 1.12736C2.36715 1.13118 2.37682 1.135 2.3865 1.13882C2.39617 1.14295 2.40569 1.14754 2.41544 1.15175C2.41993 1.15378 2.42465 1.1558 2.42914 1.15791C2.39431 1.18292 2.35949 1.20794 2.32388 1.23365C2.29927 1.25072 2.27598 1.27028 2.25191 1.28891C2.22791 1.30784 2.20377 1.32686 2.17939 1.3461C1.98698 1.50227 1.79434 1.68392 1.61447 1.89674C1.59257 1.92386 1.57051 1.95098 1.5483 1.97841C1.53707 1.99213 1.52608 2.00584 1.51486 2.01964C1.50395 2.03366 1.49358 2.04816 1.48282 2.0625C1.47841 2.0685 1.47392 2.07458 1.46943 2.08065C1.4644 2.07863 1.45875 2.07606 1.45372 2.07395C1.31247 2.01644 1.18678 1.97062 1.07989 1.9347C1.32091 1.57023 1.62074 1.24877 1.96577 0.983816M3.0423 0.400495C3.15638 0.432134 3.2772 0.469306 3.40312 0.513491C3.4477 0.529077 3.49197 0.545208 3.53601 0.561729C3.45559 0.594614 3.37193 0.630461 3.28501 0.670282C3.26396 0.679712 3.24275 0.689375 3.22116 0.699116C3.20011 0.70948 3.17859 0.720078 3.15708 0.730755C3.11389 0.752185 3.06993 0.77416 3.02504 0.796526C2.98061 0.819904 2.93603 0.844919 2.89006 0.869856C2.86723 0.882403 2.84416 0.895027 2.82079 0.907963C2.79804 0.921523 2.77505 0.935394 2.75191 0.949343C2.72861 0.963214 2.70516 0.977397 2.68163 0.991658C2.66089 1.00397 2.64007 1.01683 2.61971 1.03023C2.61074 1.02719 2.6016 1.02392 2.5927 1.02088C2.54572 1.00498 2.4996 0.989632 2.4544 0.975059C2.32445 0.938043 2.20154 0.910768 2.0894 0.893235C2.3804 0.687349 2.70044 0.520738 3.0423 0.400495M2.92286 1.39337C2.94562 1.40475 2.96837 1.4162 2.99105 1.4275C3.01373 1.43888 3.03664 1.44963 3.05862 1.46234C3.10297 1.48673 3.14731 1.51065 3.19128 1.53411C3.21341 1.54572 3.23531 1.55733 3.25706 1.56879C3.26797 1.57448 3.27881 1.58016 3.28972 1.58585C3.30064 1.59146 3.31093 1.59801 3.32161 1.60393C3.33098 1.60931 3.33995 1.61437 3.34932 1.61967C3.2333 1.70204 3.10413 1.79875 2.96195 1.91658C2.85274 2.00877 2.73549 2.11117 2.61653 2.22923C2.52876 2.31557 2.4386 2.40916 2.34858 2.51125C2.33264 2.50229 2.31662 2.49325 2.30083 2.48436C2.26213 2.46293 2.2239 2.44166 2.18621 2.4207C2.14813 2.40059 2.11044 2.38072 2.07321 2.36116C2.05456 2.35142 2.03614 2.34183 2.01764 2.33225C1.99922 2.32305 1.9808 2.31394 1.96261 2.30474C1.926 2.28674 1.89009 2.26866 1.85456 2.25167C1.78901 2.2205 1.72585 2.19159 1.66402 2.16416L1.67377 2.15052L1.69041 2.12925L1.72338 2.08709L1.75619 2.04501C1.76703 2.03098 1.77786 2.0168 1.78955 2.00355C1.97066 1.7848 2.16972 1.5885 2.37544 1.41652C2.45129 1.353 2.52807 1.29386 2.60492 1.23674C2.62303 1.24562 2.64122 1.25442 2.65964 1.26339C2.70182 1.2838 2.74524 1.3043 2.78951 1.32487C2.83324 1.34724 2.87767 1.37015 2.92286 1.39337M1.58805 3.66313C1.40075 3.56034 1.21934 3.47501 1.04682 3.40807C1.05116 3.39248 1.05541 3.3769 1.06021 3.36147L1.07608 3.31261C1.08699 3.27996 1.09674 3.24676 1.10858 3.21418C1.1205 3.18161 1.1325 3.14888 1.14442 3.11592L1.15347 3.09121L1.16346 3.0669C1.17011 3.05054 1.17669 3.03425 1.18343 3.01781C1.19666 2.98508 1.20966 2.95196 1.22491 2.91969C1.23954 2.8872 1.25424 2.85447 1.2691 2.82166C1.2852 2.78948 1.3013 2.75706 1.31748 2.72456C1.32568 2.70843 1.33326 2.69183 1.34201 2.67601L1.36825 2.62832L1.39441 2.58055C1.40308 2.56465 1.41144 2.5486 1.42111 2.53333C1.43984 2.50223 1.45841 2.4713 1.47699 2.44036L1.491 2.41706L1.5057 2.39446L1.5355 2.34926L1.56514 2.30414L1.57946 2.28232C1.76854 2.39306 1.9803 2.52374 2.2104 2.67593C1.98873 2.94985 1.76962 3.27715 1.58805 3.66313M1.32394 4.36038C1.26155 4.57905 1.21574 4.79577 1.18671 5.00508C1.18625 5.00828 1.18594 5.0114 1.18547 5.01467C1.07534 4.95614 0.968532 4.90502 0.866756 4.86224C0.866523 4.85531 0.866291 4.84829 0.866136 4.84136C0.865982 4.82733 0.865904 4.8133 0.865827 4.7992C0.865517 4.77107 0.865208 4.74262 0.864975 4.71394C0.865362 4.68534 0.865904 4.65651 0.866214 4.62744C0.866523 4.61287 0.866678 4.59838 0.866988 4.58365C0.867452 4.569 0.868149 4.55435 0.86869 4.5397C0.869851 4.51016 0.87109 4.48047 0.872251 4.45055C0.874263 4.42093 0.876198 4.39078 0.878288 4.36054C0.879216 4.34542 0.8803 4.3303 0.881306 4.31503C0.882699 4.29991 0.884247 4.28464 0.885563 4.26936C0.895547 4.14686 0.913193 4.02194 0.934013 3.89476C0.939895 3.86305 0.945622 3.8311 0.951504 3.79907C0.956922 3.76688 0.964971 3.73509 0.97155 3.70283C0.983005 3.64485 0.998407 3.5871 1.01288 3.52874C1.03656 3.5405 1.05994 3.55172 1.08401 3.56419C1.22208 3.63581 1.36743 3.72145 1.51797 3.81839C1.44127 3.99755 1.37672 4.17967 1.32394 4.36038M2.13188 4.25712C2.21864 4.32515 2.30672 4.39661 2.39542 4.47087C2.39054 4.47828 2.38551 4.4849 2.38063 4.4923C2.32947 4.57086 2.27731 4.64816 2.22987 4.72749C2.20564 4.76692 2.1818 4.8062 2.15804 4.84524C2.13521 4.88491 2.11253 4.92434 2.09009 4.96346C2.07887 4.9831 2.0678 5.00258 2.05658 5.02206C2.04605 5.04185 2.03529 5.06149 2.02469 5.08105C2.00371 5.12033 1.98282 5.15921 1.96215 5.19779C1.94234 5.23683 1.92276 5.27556 1.90333 5.31406C1.89373 5.33323 1.88414 5.35224 1.87462 5.37126C1.86556 5.3905 1.85635 5.4096 1.84737 5.42861C1.84675 5.43001 1.84614 5.43126 1.84552 5.43266C1.74351 5.35793 1.64165 5.28639 1.54081 5.22202C1.48137 5.18407 1.42239 5.14838 1.36396 5.11409C1.37162 5.0724 1.37781 5.03188 1.38648 4.98933C1.42502 4.8037 1.47502 4.61013 1.53903 4.41165C1.58864 4.25953 1.64583 4.1043 1.71239 3.94774C1.84869 4.04196 1.9887 4.14521 2.13188 4.25712M2.24018 6.03372C2.28027 6.07136 2.31889 6.11001 2.35798 6.14835C2.22958 6.26306 2.10946 6.3706 2.00281 6.4663C1.93284 6.52911 1.86821 6.58716 1.80978 6.63992C1.78501 6.61444 1.76071 6.58888 1.73401 6.56386C1.68022 6.51368 1.62403 6.4677 1.56699 6.4239C1.59771 6.35704 1.63154 6.28542 1.66884 6.20929C1.73772 6.06785 1.81976 5.91043 1.9121 5.7418C2.02045 5.8336 2.12989 5.92999 2.24018 6.03372M3.29797 6.93986C3.30679 6.93682 3.31546 6.93378 3.32413 6.93075C3.3328 6.92739 3.34139 6.92397 3.35006 6.92062C3.36739 6.91376 3.38481 6.9069 3.40222 6.90004C3.43705 6.88602 3.47265 6.87269 3.50779 6.85734C3.54277 6.84175 3.57799 6.82593 3.61351 6.81004C3.84106 6.70577 4.05583 6.58155 4.25149 6.45118C4.28446 6.49778 4.31689 6.5443 4.34824 6.59075C4.4319 6.71488 4.50876 6.83848 4.57981 6.96083C4.28895 7.06244 3.9351 7.16718 3.52033 7.2416C3.47776 7.24846 3.43566 7.25469 3.39348 7.26108C3.3523 7.1643 3.30269 7.06283 3.24464 6.95825C3.26237 6.9521 3.28001 6.9461 3.29797 6.93986M4.72701 7.23009C4.76725 7.30942 4.80324 7.38735 4.83699 7.46426C4.53205 7.56557 4.14909 7.64919 3.69609 7.66438C3.64029 7.66625 3.58495 7.66633 3.52976 7.66633C3.51413 7.60298 3.49347 7.53448 3.46947 7.46333C3.49857 7.45896 3.52698 7.456 3.55639 7.45086C3.85011 7.39873 4.13431 7.31238 4.38639 7.21045C4.41789 7.19775 4.449 7.18497 4.47988 7.17258C4.51045 7.15972 4.54002 7.14538 4.56958 7.13213C4.59822 7.11889 4.62655 7.10587 4.65449 7.09294C4.67949 7.13884 4.70394 7.18466 4.72701 7.23009M5.11567 7.95234C5.09246 7.82072 5.05894 7.67881 5.01111 7.52833C5.09594 7.48539 5.17388 7.44097 5.24376 7.39734C5.42216 7.28676 5.54925 7.18015 5.62471 7.11368C5.69878 7.04518 5.72354 7.01845 5.68585 7.04752C5.66689 7.06193 5.64011 7.08126 5.60521 7.10401C5.56984 7.12607 5.5275 7.15334 5.47595 7.18179C5.37395 7.23984 5.23943 7.3085 5.07311 7.37754C5.04153 7.39055 5.00755 7.40341 4.97357 7.41627C4.92845 7.2873 4.87381 7.15303 4.80973 7.01463C4.8386 6.99951 4.86832 6.984 4.8961 6.96966C4.94478 6.9413 4.99145 6.91426 5.03596 6.88854C5.05801 6.87553 5.07953 6.8629 5.1005 6.85051C5.12086 6.83734 5.14067 6.82456 5.15987 6.81225C5.19795 6.78739 5.23363 6.76417 5.2666 6.74274C5.28285 6.73183 5.29879 6.72185 5.31334 6.71133C5.32782 6.70081 5.34175 6.69084 5.35483 6.68125C5.38091 6.66216 5.4039 6.64525 5.42394 6.63044C5.5032 6.5713 5.53021 6.54737 5.49004 6.57145C5.44964 6.59545 5.37573 6.63286 5.27132 6.68289C5.21838 6.70627 5.15793 6.73308 5.09021 6.763C5.05678 6.77866 5.02001 6.79215 4.98224 6.80773C4.94455 6.82316 4.905 6.83929 4.86359 6.85612C4.82853 6.86968 4.79131 6.88379 4.75361 6.89789C4.67157 6.73214 4.57684 6.5614 4.46709 6.38715C4.45479 6.36751 4.4414 6.34757 4.4287 6.32785C4.53002 6.25343 4.62699 6.18025 4.71383 6.10677C4.81298 6.0272 4.89974 5.94608 4.9793 5.87439C4.99935 5.85662 5.01808 5.83838 5.03611 5.82062C5.0543 5.80285 5.07187 5.78555 5.08882 5.76887C5.12272 5.73544 5.15429 5.70396 5.1834 5.67512C5.24059 5.61637 5.2861 5.56524 5.32085 5.5269C5.38989 5.44975 5.41249 5.41913 5.3758 5.45178C5.33927 5.48436 5.26946 5.53602 5.17163 5.6074C5.07148 5.6759 4.94416 5.76552 4.78682 5.8662C4.76731 5.87906 4.74742 5.89215 4.72707 5.90556C4.70687 5.9188 4.68535 5.93151 4.66407 5.94499C4.62134 5.9718 4.577 5.99954 4.53102 6.02853C4.50835 6.04333 4.48435 6.05697 4.46028 6.07131C4.43621 6.08565 4.41183 6.10022 4.38707 6.11511C4.36369 6.12921 4.33985 6.14363 4.31578 6.15812C4.27399 6.09726 4.22995 6.03593 4.18491 5.97452C4.10968 5.98317 4.03298 5.98785 3.95535 5.98785C3.93592 5.98785 3.91572 5.98613 3.89606 5.98567C3.973 6.07996 4.04822 6.17464 4.11951 6.26964C3.93569 6.37274 3.73361 6.47887 3.50993 6.58151C3.47603 6.59694 3.44237 6.61237 3.4087 6.62772C3.37511 6.64276 3.3409 6.65639 3.30739 6.67089C3.24439 6.69879 3.18084 6.72271 3.11823 6.74741C3.0971 6.71461 3.0752 6.68164 3.05237 6.64852C2.93952 6.48448 2.80555 6.31655 2.6513 6.14877C2.77908 6.05331 2.91429 5.94896 3.05477 5.83643L2.95554 5.80893L2.95462 5.68159C2.95446 5.65954 2.954 5.63873 2.95361 5.61746C2.80145 5.75274 2.65424 5.88405 2.51601 6.00741C2.47329 5.96431 2.42979 5.92138 2.38436 5.87867C2.26362 5.76505 2.13901 5.65954 2.0134 5.56026C2.0264 5.53735 2.03848 5.51537 2.05179 5.49215C2.20472 5.22665 2.38382 4.93831 2.58636 4.63447C2.74456 4.77303 2.905 4.92187 3.06599 5.07952L3.1769 5.13298C3.33115 5.2074 3.47085 5.26039 3.59213 5.29031C3.62061 5.29733 3.64901 5.30341 3.67711 5.30878C3.89188 5.11591 4.09776 4.91852 4.28769 4.72534C4.26207 4.69907 4.22941 4.66736 4.18715 4.62847C4.16958 4.61242 4.1493 4.59403 4.12918 4.57571C3.93306 4.74918 3.71813 4.9394 3.48493 5.14568C3.48246 5.14311 3.48006 5.14046 3.47758 5.13789C3.23332 4.88501 2.9776 4.65107 2.71933 4.43926C2.89804 4.1807 3.08108 3.93398 3.25723 3.70767C3.23262 3.66715 3.21072 3.62764 3.1947 3.59101C3.18355 3.56538 3.17388 3.53802 3.16537 3.50966C3.11274 3.56506 3.05956 3.62203 3.00508 3.68351C2.84967 3.85987 2.68713 4.05967 2.52538 4.28434C2.41896 4.20205 2.31238 4.12365 2.20643 4.04954C2.06572 3.9512 1.92586 3.86119 1.7881 3.77859C1.95334 3.4209 2.15798 3.08557 2.376 2.78804C2.60246 2.94351 2.84154 3.11783 3.08928 3.31273C3.10438 3.32466 3.11908 3.33697 3.13402 3.34905C3.12938 3.30517 3.12659 3.26099 3.12814 3.21665C3.13015 3.1582 3.13975 3.10139 3.15267 3.04528C3.14385 3.0385 3.13503 3.03172 3.12628 3.02502C3.10678 3.01006 3.08743 2.99494 3.06769 2.98045C3.0478 2.96626 3.02806 2.95192 3.00833 2.93766C2.96878 2.9093 2.92931 2.88117 2.89014 2.85311C2.85021 2.82623 2.81066 2.79934 2.77119 2.77277C2.75137 2.75952 2.73171 2.74635 2.71206 2.73326C2.69216 2.72056 2.67227 2.70801 2.65254 2.69546C2.61291 2.67053 2.57359 2.64575 2.53466 2.6212C2.52739 2.61683 2.52034 2.61263 2.51307 2.60834C2.62096 2.47181 2.7304 2.34416 2.83782 2.22704C2.86994 2.19291 2.90044 2.1583 2.93217 2.12596C2.96375 2.09355 2.99471 2.0616 3.02497 2.03035C3.05569 1.99933 3.0865 1.9698 3.11614 1.9405C3.13092 1.92577 3.14563 1.91127 3.1601 1.89701C3.17496 1.88306 3.18967 1.86927 3.20422 1.85571C3.2803 1.7837 3.35204 1.71863 3.41899 1.65941C3.42813 1.66455 3.43757 1.66993 3.44655 1.67507C3.48788 1.69791 3.52804 1.72027 3.56736 1.74217C3.60652 1.76446 3.64352 1.78783 3.68028 1.80919C3.75327 1.85267 3.82192 1.89249 3.88469 1.92818C4.12895 2.08069 4.27933 2.1629 4.22631 2.12222C4.19984 2.10196 4.15712 2.06097 4.09753 2.00292C4.06773 1.97385 4.03344 1.94065 3.99521 1.90348C3.97578 1.88509 3.95612 1.86475 3.93391 1.84542C3.91162 1.82602 3.88825 1.80568 3.86394 1.78448C3.81503 1.74232 3.76155 1.69681 3.70327 1.6485C3.68856 1.63658 3.67409 1.62387 3.65853 1.61226C3.64282 1.60057 3.6268 1.58873 3.61063 1.57673C3.59383 1.56426 3.57572 1.55124 3.55831 1.53854C3.63392 1.47425 3.69948 1.42025 3.7504 1.37809C3.87106 1.28091 3.9134 1.24257 3.85264 1.28489C3.82238 1.306 3.77943 1.33359 3.72455 1.36796C3.69723 1.38518 3.66759 1.40513 3.63462 1.42633C3.60196 1.44783 3.56574 1.47028 3.52797 1.49607C3.52348 1.49911 3.51806 1.50285 3.51349 1.50597C3.5121 1.50503 3.51078 1.5041 3.50947 1.50309C3.47456 1.47799 3.43842 1.45243 3.40104 1.42633C3.36296 1.40147 3.32287 1.37715 3.28192 1.35198C3.24098 1.32689 3.19872 1.30156 3.1553 1.27592C3.13379 1.26268 3.1108 1.25138 3.08789 1.23938C3.0649 1.22753 3.04161 1.21569 3.01808 1.20361C2.97071 1.17992 2.92404 1.15576 2.87675 1.13394C2.84982 1.12241 2.82343 1.11157 2.7968 1.10035C2.86453 1.05445 2.93209 1.00996 2.99896 0.968498C3.20499 0.841008 3.40421 0.73222 3.58926 0.642837C3.61303 0.631147 3.63578 0.620471 3.659 0.609327C3.74499 0.643616 3.82857 0.678995 3.90821 0.714842C3.92787 0.723492 3.94738 0.732298 3.96665 0.740792C3.98561 0.749832 4.0045 0.758716 4.02307 0.7676C4.06014 0.785367 4.09698 0.801654 4.13143 0.819656C4.16633 0.836878 4.20008 0.853632 4.23251 0.869763C4.26455 0.886596 4.29527 0.902727 4.32453 0.918001C4.44155 0.979642 4.53365 1.031 4.59046 1.06201C4.64758 1.09272 4.6701 1.10176 4.64534 1.08352C4.62049 1.06544 4.58063 1.02835 4.52406 0.976291C4.49519 0.951042 4.46206 0.922131 4.42507 0.889791C4.38776 0.857529 4.34481 0.824019 4.29806 0.786614C4.20286 0.714608 4.08886 0.63216 3.95024 0.553453C3.92524 0.539036 3.89862 0.524853 3.87207 0.510671C4.11432 0.402896 4.3154 0.32715 4.45192 0.275094C4.63976 0.206595 4.70764 0.178697 4.61631 0.206907C4.57065 0.22109 4.50718 0.238935 4.42654 0.260911C4.3859 0.271197 4.34202 0.285458 4.29357 0.299641C4.24497 0.31398 4.19234 0.329566 4.1356 0.346398C4.03189 0.379673 3.91394 0.418793 3.78477 0.46594C3.6874 0.41778 3.58191 0.371647 3.46605 0.33089C3.43478 0.31998 3.40351 0.309928 3.37209 0.300265C3.67812 0.222648 3.99823 0.180957 4.32817 0.180957C5.39964 0.180957 6.36841 0.614393 7.07411 1.31762C6.3284 0.517528 5.27085 0.0151255 4.09466 0.0151255C1.83725 0.0151255 0.0087581 1.8582 0.0087581 4.1309C0.0087581 6.40321 1.83725 8.24511 4.09466 8.24511C5.55807 8.24511 6.83658 7.46989 7.559 6.30774C6.99942 7.14033 6.12933 7.74334 5.11567 7.95234" fill="var(--fill-0, #1B4EA2)"/>
</g>
</g>
<defs>
<clipPath id="clip0_240_1611">
<rect width="19.1166" height="8.25491" fill="white"/>
</clipPath>
</defs>
</svg>
