<svg preserveAspectRatio="none" width="100%" height="100%" overflow="visible" style="display: block;" viewBox="0 0 56 24" fill="none" xmlns="http://www.w3.org/2000/svg">
<g id="digital platforms -white" clip-path="url(#clip0_378_1336)">
<g id="telco toolsuite">
<path d="M25.5558 18.7488C25.4696 18.723 25.4007 18.7072 25.349 18.7014C25.3002 18.6928 25.237 18.6885 25.1595 18.6885C25.0102 18.6885 24.8737 18.7129 24.7503 18.7617C24.6296 18.8076 24.5248 18.8736 24.4358 18.9597C24.3496 19.0458 24.2822 19.1491 24.2333 19.2697C24.1874 19.3902 24.1644 19.5251 24.1644 19.6743C24.1644 19.8953 24.2218 20.0718 24.3367 20.2038C24.4545 20.3329 24.611 20.3975 24.8063 20.3975C25.0733 20.3975 25.2701 20.2755 25.3964 20.0316C25.4481 19.9369 25.4826 19.8379 25.4998 19.7346C25.5055 19.6915 25.5098 19.6499 25.5127 19.6097C25.5185 19.5667 25.5228 19.515 25.5256 19.4548C25.5314 19.3916 25.5357 19.317 25.5386 19.2309C25.5414 19.142 25.5457 19.0315 25.5515 18.8995L25.5558 18.7488ZM25.9478 17.9481C25.9421 18.0342 25.9363 18.1246 25.9306 18.2193C25.9277 18.3111 25.9234 18.4202 25.9176 18.5465C25.9119 18.6699 25.9047 18.8177 25.8961 18.9899C25.8904 19.1592 25.8832 19.3658 25.8746 19.6097C25.8717 19.7159 25.8688 19.8106 25.866 19.8938C25.8631 19.9771 25.8602 20.0517 25.8573 20.1177C25.8573 20.1837 25.8573 20.2454 25.8573 20.3028C25.8573 20.3573 25.8573 20.4104 25.8573 20.4621V20.617H25.8056C25.7798 20.617 25.7568 20.617 25.7367 20.617C25.7166 20.6142 25.6994 20.6127 25.685 20.6127C25.6707 20.6127 25.652 20.6142 25.629 20.617C25.6089 20.617 25.586 20.617 25.5601 20.617H25.5041L25.53 20.1607C25.5156 20.1866 25.5012 20.2109 25.4869 20.2339C25.4725 20.2569 25.4582 20.2784 25.4438 20.2985C25.3663 20.419 25.2657 20.5108 25.1423 20.574C25.0188 20.6342 24.8781 20.6644 24.7201 20.6644C24.5823 20.6644 24.4559 20.6414 24.341 20.5955C24.229 20.5496 24.1328 20.4836 24.0524 20.3975C23.9749 20.3114 23.9131 20.2095 23.8672 20.0918C23.8241 19.9713 23.8026 19.8379 23.8026 19.6915C23.8026 19.4992 23.8327 19.3271 23.893 19.175C23.9562 19.02 24.0438 18.888 24.1558 18.7789C24.2707 18.6699 24.4085 18.5866 24.5693 18.5293C24.7302 18.469 24.9096 18.4389 25.1078 18.4389C25.148 18.4389 25.1839 18.4403 25.2155 18.4432C25.25 18.4432 25.2844 18.4446 25.3189 18.4475C25.3533 18.4503 25.3892 18.4546 25.4266 18.4604C25.4668 18.4661 25.5142 18.4733 25.5687 18.4819C25.5745 18.3872 25.5773 18.3083 25.5773 18.2451C25.5802 18.1791 25.5816 18.1045 25.5816 18.0213V17.862L25.5773 17.7458L25.6376 17.7501H25.7755H25.909L25.9607 17.7458L25.9478 17.9481Z" fill="var(--fill-0, white)"/>
<path d="M26.9131 18.4862C26.9074 18.5379 26.9031 18.5838 26.9002 18.624C26.9002 18.6613 26.8987 18.6928 26.8959 18.7187C26.8873 18.8306 26.8786 18.9612 26.87 19.1104C26.8643 19.2567 26.8585 19.4088 26.8528 19.5667C26.8471 19.7216 26.8413 19.8752 26.8356 20.0273C26.8327 20.1765 26.8313 20.3085 26.8313 20.4233V20.617H26.771C26.7451 20.617 26.7207 20.617 26.6977 20.617C26.6776 20.6142 26.6575 20.6127 26.6374 20.6127C26.6231 20.6127 26.6044 20.6142 26.5814 20.617C26.5584 20.617 26.5312 20.617 26.4996 20.617H26.4393C26.445 20.5625 26.4479 20.5151 26.4479 20.475C26.4507 20.4348 26.4536 20.4004 26.4565 20.3717C26.4622 20.2741 26.4694 20.1536 26.478 20.0101C26.4866 19.8666 26.4938 19.6987 26.4996 19.5064C26.5082 19.3084 26.5154 19.1362 26.5211 18.9899C26.5268 18.8435 26.5297 18.7201 26.5297 18.6196V18.4862H26.59C26.6187 18.4862 26.6432 18.4876 26.6633 18.4905C26.6862 18.4905 26.7049 18.4905 26.7193 18.4905C26.7336 18.4905 26.7508 18.4905 26.771 18.4905C26.7939 18.4876 26.8212 18.4862 26.8528 18.4862H26.9131ZM26.939 17.7845V17.8792L26.9346 17.9696L26.9303 18.0299H26.883C26.86 18.027 26.8356 18.0256 26.8097 18.0256C26.7839 18.0256 26.7595 18.0256 26.7365 18.0256C26.7135 18.0256 26.6891 18.027 26.6633 18.0299C26.6374 18.0299 26.6116 18.0299 26.5857 18.0299H26.5297L26.534 17.961C26.5369 17.9352 26.5383 17.9051 26.5383 17.8706C26.5383 17.8362 26.5383 17.8075 26.5383 17.7845V17.7329C26.5872 17.7329 26.6245 17.7343 26.6503 17.7372C26.6791 17.7372 26.7135 17.7372 26.7537 17.7372C26.7939 17.7372 26.8255 17.7372 26.8485 17.7372C26.8715 17.7343 26.9031 17.7329 26.9433 17.7329L26.939 17.7845Z" fill="var(--fill-0, white)"/>
<path d="M29.1528 18.7531C29.0523 18.733 28.9719 18.7201 28.9116 18.7144C28.8541 18.7086 28.7866 18.7057 28.7091 18.7057C28.5454 18.7057 28.4032 18.7273 28.2826 18.7703C28.1649 18.8105 28.0615 18.8751 27.9725 18.964C27.8863 19.0501 27.8188 19.1577 27.77 19.2869C27.7212 19.4131 27.6968 19.5466 27.6968 19.6872C27.6968 19.9111 27.7542 20.0861 27.8691 20.2124C27.984 20.3358 28.1448 20.3975 28.3516 20.3975C28.61 20.3975 28.8082 20.2927 28.946 20.0832C28.9805 20.0287 29.0092 19.9742 29.0322 19.9197C29.0551 19.8651 29.0738 19.7977 29.0882 19.7173C29.1025 19.6341 29.1126 19.5337 29.1183 19.416C29.1269 19.2955 29.1356 19.142 29.1442 18.9554L29.1528 18.7531ZM29.5276 18.5249C29.5218 18.5737 29.5175 18.6168 29.5146 18.6541C29.5146 18.6914 29.5132 18.723 29.5103 18.7488C29.5017 18.8378 29.4888 19.0386 29.4716 19.3514C29.4629 19.5294 29.4558 19.6757 29.45 19.7905C29.4471 19.9024 29.4443 19.9842 29.4414 20.0359L29.4242 20.7505C29.4184 21.0575 29.3308 21.2814 29.1614 21.422C28.9948 21.5655 28.7378 21.6372 28.3903 21.6372C28.3358 21.6372 28.2812 21.6358 28.2266 21.6329C28.1749 21.6301 28.1218 21.6258 28.0672 21.62C28.0213 21.6171 27.9797 21.6128 27.9423 21.6071C27.905 21.6042 27.8662 21.5985 27.826 21.5899C27.7887 21.5841 27.7485 21.577 27.7054 21.5684C27.6623 21.5597 27.6121 21.5483 27.5546 21.5339L27.5503 21.4909C27.5474 21.4622 27.546 21.4392 27.546 21.422C27.546 21.4048 27.546 21.3933 27.546 21.3876C27.546 21.3818 27.5446 21.3703 27.5417 21.3531C27.5417 21.3359 27.5403 21.3115 27.5374 21.2799L27.5331 21.2326C27.5733 21.2441 27.6063 21.2541 27.6322 21.2627C27.6609 21.2713 27.6867 21.2785 27.7097 21.2842C27.9366 21.3445 28.1433 21.3746 28.33 21.3746C28.4851 21.3746 28.6186 21.3503 28.7306 21.3015C28.8426 21.2527 28.923 21.1838 28.9719 21.0948C28.992 21.0575 29.0092 21.0174 29.0236 20.9743C29.0379 20.9313 29.0494 20.8767 29.058 20.8107C29.0666 20.7447 29.0724 20.6615 29.0752 20.5611C29.081 20.4577 29.0867 20.3272 29.0925 20.1693C29.0609 20.2296 29.0322 20.2784 29.0063 20.3157C28.9317 20.4247 28.8283 20.5094 28.6962 20.5697C28.5641 20.6271 28.4147 20.6558 28.2482 20.6558C27.9639 20.6558 27.7399 20.5725 27.5762 20.4061C27.4153 20.2396 27.3349 20.0086 27.3349 19.713C27.3349 19.5179 27.3665 19.3414 27.4297 19.1836C27.4958 19.0257 27.5877 18.8923 27.7054 18.7832C27.826 18.6713 27.971 18.5866 28.1405 18.5293C28.3099 18.469 28.5009 18.4389 28.7134 18.4389C28.8369 18.4389 28.9719 18.4475 29.1183 18.4647C29.1499 18.4676 29.1801 18.4719 29.2088 18.4776C29.2375 18.4805 29.2662 18.4848 29.2949 18.4905C29.3265 18.4934 29.361 18.4977 29.3983 18.5034C29.4357 18.5092 29.4787 18.5163 29.5276 18.5249Z" fill="var(--fill-0, white)"/>
<path d="M30.4875 18.4862C30.4818 18.5379 30.4775 18.5838 30.4746 18.624C30.4746 18.6613 30.4732 18.6928 30.4703 18.7187C30.4617 18.8306 30.4531 18.9612 30.4445 19.1104C30.4387 19.2567 30.433 19.4088 30.4272 19.5667C30.4215 19.7216 30.4157 19.8752 30.41 20.0273C30.4071 20.1765 30.4057 20.3085 30.4057 20.4233V20.617H30.3454C30.3195 20.617 30.2951 20.617 30.2722 20.617C30.2521 20.6142 30.232 20.6127 30.2118 20.6127C30.1975 20.6127 30.1788 20.6142 30.1558 20.617C30.1329 20.617 30.1056 20.617 30.074 20.617H30.0137C30.0194 20.5625 30.0223 20.5151 30.0223 20.475C30.0252 20.4348 30.0281 20.4004 30.0309 20.3717C30.0367 20.2741 30.0438 20.1536 30.0525 20.0101C30.0611 19.8666 30.0683 19.6987 30.074 19.5064C30.0826 19.3084 30.0898 19.1362 30.0955 18.9899C30.1013 18.8435 30.1042 18.7201 30.1042 18.6196V18.4862H30.1645C30.1932 18.4862 30.2176 18.4876 30.2377 18.4905C30.2607 18.4905 30.2793 18.4905 30.2937 18.4905C30.3081 18.4905 30.3253 18.4905 30.3454 18.4905C30.3684 18.4876 30.3956 18.4862 30.4272 18.4862H30.4875ZM30.5134 17.7845V17.8792L30.5091 17.9696L30.5048 18.0299H30.4574C30.4344 18.027 30.41 18.0256 30.3842 18.0256C30.3583 18.0256 30.3339 18.0256 30.3109 18.0256C30.288 18.0256 30.2635 18.027 30.2377 18.0299C30.2118 18.0299 30.186 18.0299 30.1602 18.0299H30.1042L30.1085 17.961C30.1113 17.9352 30.1128 17.9051 30.1128 17.8706C30.1128 17.8362 30.1128 17.8075 30.1128 17.7845V17.7329C30.1616 17.7329 30.1989 17.7343 30.2248 17.7372C30.2535 17.7372 30.288 17.7372 30.3282 17.7372C30.3684 17.7372 30.4 17.7372 30.4229 17.7372C30.4459 17.7343 30.4775 17.7329 30.5177 17.7329L30.5134 17.7845Z" fill="var(--fill-0, white)"/>
<path d="M32.094 18.4948C32.0882 18.5465 32.0839 18.5895 32.0811 18.624C32.0811 18.6584 32.0811 18.7 32.0811 18.7488H31.4952L31.4909 18.8822L31.4694 19.3041L31.4565 19.4978C31.4507 19.6011 31.4464 19.6944 31.4435 19.7776C31.4407 19.8608 31.4392 19.9354 31.4392 20.0015V20.023C31.4392 20.155 31.4608 20.2511 31.5038 20.3114C31.5498 20.3688 31.623 20.3975 31.7235 20.3975C31.7695 20.3975 31.8126 20.3932 31.8528 20.3846C31.8958 20.376 31.9605 20.3602 32.0466 20.3372C32.038 20.3803 32.0308 20.4176 32.0251 20.4491C32.0222 20.4778 32.0165 20.5166 32.0078 20.5654L31.9992 20.6127C31.9533 20.6242 31.9131 20.6328 31.8786 20.6385C31.847 20.6443 31.8154 20.6486 31.7838 20.6515C31.7551 20.6572 31.7264 20.6601 31.6977 20.6601C31.669 20.6629 31.6374 20.6644 31.6029 20.6644C31.4191 20.6644 31.2841 20.6256 31.198 20.5481C31.1147 20.4707 31.0731 20.3487 31.0731 20.1822C31.0731 20.1593 31.0731 20.132 31.0731 20.1005C31.0759 20.0689 31.0788 20.0316 31.0817 19.9885L31.1075 19.5193L31.1205 19.3041L31.142 18.8951L31.1463 18.7488H30.8663C30.872 18.7086 30.8735 18.677 30.8706 18.6541C30.8706 18.6283 30.8735 18.591 30.8792 18.5422L30.8835 18.4948H31.1678C31.1736 18.4374 31.1765 18.3929 31.1765 18.3614C31.1793 18.3269 31.1822 18.2767 31.1851 18.2107L31.1894 18.0945L31.2454 18.0816C31.277 18.073 31.3028 18.0672 31.3229 18.0643C31.3459 18.0586 31.3674 18.0543 31.3875 18.0514C31.4076 18.0486 31.4277 18.0457 31.4478 18.0428C31.4708 18.0371 31.4967 18.0313 31.5254 18.0256L31.5211 18.116L31.5125 18.2538L31.5081 18.3915V18.4948H32.094Z" fill="var(--fill-0, white)"/>
<path d="M34.1427 18.9812C34.1427 19.1018 34.1341 19.3012 34.1169 19.5796C34.1112 19.6399 34.1069 19.7102 34.104 19.7905C34.1011 19.868 34.0968 19.9541 34.0911 20.0488C34.0882 20.1148 34.0853 20.1708 34.0824 20.2167C34.0824 20.2626 34.081 20.3056 34.0781 20.3458C34.0781 20.386 34.0781 20.4276 34.0781 20.4707C34.0781 20.5108 34.0781 20.5596 34.0781 20.617H34.0264C34.0035 20.6142 33.9805 20.6127 33.9575 20.6127C33.9374 20.6127 33.9159 20.6127 33.8929 20.6127C33.8728 20.6127 33.8513 20.6142 33.8283 20.617C33.8053 20.617 33.7809 20.617 33.7551 20.617H33.7034C33.7091 20.5424 33.7149 20.4778 33.7206 20.4233C33.7263 20.3688 33.7306 20.3171 33.7335 20.2683C33.7364 20.2196 33.7393 20.1722 33.7421 20.1263C33.745 20.0775 33.7479 20.023 33.7507 19.9627L33.768 19.5279L33.7766 19.3644C33.7421 19.3902 33.7105 19.4131 33.6818 19.4332C33.656 19.4505 33.6287 19.4662 33.6 19.4806C33.5741 19.4921 33.544 19.5035 33.5095 19.515C33.4751 19.5265 33.4334 19.5394 33.3846 19.5538L33.1692 19.614C32.9481 19.6772 32.7901 19.746 32.6954 19.8207C32.6035 19.8924 32.5575 19.9842 32.5575 20.0962C32.5575 20.2081 32.5992 20.2942 32.6824 20.3544C32.7686 20.4147 32.8906 20.4448 33.0486 20.4448C33.0859 20.4448 33.1204 20.4434 33.152 20.4405C33.1836 20.4377 33.2152 20.4334 33.2467 20.4276C33.2812 20.4219 33.3171 20.4147 33.3544 20.4061C33.3918 20.3946 33.4349 20.3817 33.4837 20.3673C33.4722 20.4018 33.4621 20.4348 33.4535 20.4664C33.4449 20.4951 33.4349 20.5338 33.4234 20.5826L33.4147 20.6213C33.3659 20.6299 33.3229 20.6371 33.2855 20.6428C33.2482 20.6486 33.2123 20.6529 33.1778 20.6558C33.1462 20.6586 33.1132 20.6601 33.0787 20.6601C33.0443 20.6629 33.0055 20.6644 32.9624 20.6644C32.4627 20.6644 32.2129 20.4735 32.2129 20.0918C32.2129 19.9369 32.2703 19.8063 32.3852 19.7001C32.4254 19.6628 32.4699 19.6298 32.5187 19.6011C32.5676 19.5695 32.6264 19.5409 32.6954 19.515C32.7643 19.4863 32.8461 19.4591 32.9409 19.4332C33.0357 19.4045 33.152 19.3744 33.2898 19.3428C33.465 19.3027 33.5899 19.2524 33.6646 19.1922C33.7421 19.1319 33.7809 19.0559 33.7809 18.964C33.7809 18.8693 33.7378 18.7961 33.6517 18.7445C33.5655 18.69 33.4449 18.6627 33.2898 18.6627C33.2439 18.6627 33.1979 18.6641 33.152 18.667C33.106 18.6699 33.0586 18.6742 33.0098 18.6799C32.961 18.6885 32.9179 18.6971 32.8806 18.7057C32.8433 18.7115 32.8045 18.7201 32.7643 18.7316C32.727 18.7431 32.6867 18.756 32.6437 18.7703C32.6006 18.7847 32.5503 18.8033 32.4929 18.8263C32.4958 18.8148 32.4972 18.8062 32.4972 18.8004C32.4972 18.7918 32.4986 18.7847 32.5015 18.7789C32.5044 18.7646 32.5058 18.7502 32.5058 18.7359C32.5087 18.7187 32.5116 18.7029 32.5144 18.6885C32.5202 18.6828 32.5245 18.6512 32.5274 18.5938L32.5317 18.5508C32.5719 18.5422 32.6049 18.535 32.6307 18.5293C32.6595 18.5235 32.6839 18.5178 32.704 18.512C32.9251 18.4632 33.1333 18.4389 33.3286 18.4389C33.6072 18.4389 33.8125 18.4833 33.9446 18.5723C34.0767 18.6613 34.1427 18.7976 34.1427 18.9812Z" fill="var(--fill-0, white)"/>
<path d="M35.1532 17.961C35.1474 18.0701 35.1417 18.1734 35.136 18.271C35.1302 18.3657 35.1245 18.4733 35.1187 18.5938C35.113 18.7115 35.1058 18.8507 35.0972 19.0114C35.0914 19.1692 35.0843 19.3644 35.0756 19.5968C35.0699 19.7805 35.0642 19.9383 35.0584 20.0703C35.0555 20.2023 35.0527 20.31 35.0498 20.3932L35.0455 20.617H34.9938C34.968 20.617 34.9435 20.617 34.9206 20.617C34.9005 20.6142 34.8818 20.6127 34.8646 20.6127C34.856 20.6127 34.8402 20.6142 34.8172 20.617C34.7942 20.617 34.7626 20.617 34.7224 20.617H34.6621L34.675 20.3846C34.6808 20.287 34.6865 20.1736 34.6923 20.0445C34.7009 19.9125 34.7095 19.7618 34.7181 19.5925C34.7267 19.4088 34.7339 19.241 34.7396 19.0889C34.7483 18.9368 34.754 18.7961 34.7569 18.667C34.7626 18.5379 34.7669 18.4159 34.7698 18.3011C34.7727 18.1863 34.7755 18.0715 34.7784 17.9567L34.7827 17.7458L34.8473 17.7501H34.9766H35.1101L35.1661 17.7458L35.1532 17.961Z" fill="var(--fill-0, white)"/>
<path d="M38.4712 19.4978C38.4712 19.2453 38.4081 19.0501 38.2817 18.9124C38.1582 18.7717 37.9845 18.7014 37.7605 18.7014C37.7203 18.7014 37.6801 18.7043 37.6399 18.71C37.5997 18.7129 37.558 18.7172 37.5149 18.723C37.4489 18.7344 37.3915 18.7459 37.3426 18.7574C37.2967 18.7689 37.2321 18.789 37.1488 18.8177C37.1402 18.8751 37.1359 18.9167 37.1359 18.9425C37.133 18.9741 37.1301 19.0157 37.1272 19.0673C37.1244 19.119 37.1215 19.1836 37.1186 19.261C37.11 19.4332 37.1057 19.5552 37.1057 19.6269C37.1057 19.7647 37.1201 19.8781 37.1488 19.967C37.1804 20.056 37.2306 20.1363 37.2996 20.2081C37.3599 20.2712 37.4317 20.32 37.5149 20.3544C37.5982 20.3889 37.6844 20.4061 37.7734 20.4061C37.8768 20.4061 37.9716 20.3846 38.0577 20.3415C38.1439 20.2956 38.2171 20.2339 38.2774 20.1564C38.3377 20.0761 38.3851 19.9799 38.4196 19.868C38.454 19.7561 38.4712 19.6327 38.4712 19.4978ZM38.8331 19.5064C38.8331 19.6786 38.8087 19.8364 38.7599 19.9799C38.7139 20.1205 38.6479 20.2425 38.5617 20.3458C38.4756 20.4463 38.3722 20.5252 38.2516 20.5826C38.1338 20.6371 38.0031 20.6644 37.8596 20.6644C37.7447 20.6644 37.6356 20.6472 37.5322 20.6127C37.4805 20.5955 37.4345 20.5768 37.3943 20.5568C37.357 20.5367 37.3211 20.5123 37.2866 20.4836C37.2522 20.4549 37.2177 20.4204 37.1832 20.3803C37.1517 20.3401 37.1172 20.2913 37.0799 20.2339L37.0756 20.4319L37.0626 20.8581L37.0454 21.3574V21.564H36.8602H36.7266H36.6663C36.6749 21.455 36.6821 21.3603 36.6879 21.2799C36.6936 21.1996 36.6979 21.1192 36.7008 21.0389C36.7065 20.9614 36.7108 20.8767 36.7137 20.7849C36.7195 20.6931 36.7252 20.5811 36.7309 20.4491C36.7396 20.2827 36.7453 20.1205 36.7482 19.9627C36.7539 19.802 36.7582 19.6499 36.7611 19.5064C36.7668 19.3601 36.7711 19.2266 36.774 19.1061C36.7769 18.9827 36.7798 18.8751 36.7826 18.7832L36.7869 18.568C36.83 18.5565 36.8674 18.5479 36.8989 18.5422C36.9334 18.5364 36.9621 18.5307 36.9851 18.5249C37.1373 18.4934 37.2708 18.4719 37.3857 18.4604C37.5035 18.446 37.6226 18.4389 37.7432 18.4389C37.9443 18.4389 38.1123 18.4647 38.2472 18.5163C38.3851 18.5651 38.5 18.6426 38.5919 18.7488C38.6665 18.8349 38.7254 18.9454 38.7685 19.0803C38.8116 19.2123 38.8331 19.3543 38.8331 19.5064Z" fill="var(--fill-0, white)"/>
<path d="M39.7471 17.961C39.7414 18.0701 39.7356 18.1734 39.7299 18.271C39.7241 18.3657 39.7184 18.4733 39.7127 18.5938C39.7069 18.7115 39.6997 18.8507 39.6911 19.0114C39.6854 19.1692 39.6782 19.3644 39.6696 19.5968C39.6638 19.7805 39.6581 19.9383 39.6523 20.0703C39.6495 20.2023 39.6466 20.31 39.6437 20.3932L39.6394 20.617H39.5877C39.5619 20.617 39.5375 20.617 39.5145 20.617C39.4944 20.6142 39.4757 20.6127 39.4585 20.6127C39.4499 20.6127 39.4341 20.6142 39.4111 20.617C39.3881 20.617 39.3565 20.617 39.3163 20.617H39.256L39.269 20.3846C39.2747 20.287 39.2804 20.1736 39.2862 20.0445C39.2948 19.9125 39.3034 19.7618 39.312 19.5925C39.3206 19.4088 39.3278 19.241 39.3336 19.0889C39.3422 18.9368 39.3479 18.7961 39.3508 18.667C39.3565 18.5379 39.3609 18.4159 39.3637 18.3011C39.3666 18.1863 39.3695 18.0715 39.3723 17.9567L39.3766 17.7458L39.4413 17.7501H39.5705H39.704L39.76 17.7458L39.7471 17.961Z" fill="var(--fill-0, white)"/>
<path d="M41.9998 18.9812C41.9998 19.1018 41.9912 19.3012 41.974 19.5796C41.9682 19.6399 41.9639 19.7102 41.961 19.7905C41.9582 19.868 41.9539 19.9541 41.9481 20.0488C41.9452 20.1148 41.9424 20.1708 41.9395 20.2167C41.9395 20.2626 41.9381 20.3056 41.9352 20.3458C41.9352 20.386 41.9352 20.4276 41.9352 20.4707C41.9352 20.5108 41.9352 20.5596 41.9352 20.617H41.8835C41.8605 20.6142 41.8376 20.6127 41.8146 20.6127C41.7945 20.6127 41.7729 20.6127 41.75 20.6127C41.7299 20.6127 41.7083 20.6142 41.6854 20.617C41.6624 20.617 41.638 20.617 41.6121 20.617H41.5604C41.5662 20.5424 41.5719 20.4778 41.5777 20.4233C41.5834 20.3688 41.5877 20.3171 41.5906 20.2683C41.5935 20.2196 41.5963 20.1722 41.5992 20.1263C41.6021 20.0775 41.6049 20.023 41.6078 19.9627L41.625 19.5279L41.6337 19.3644C41.5992 19.3902 41.5676 19.4131 41.5389 19.4332C41.513 19.4505 41.4858 19.4662 41.457 19.4806C41.4312 19.4921 41.401 19.5035 41.3666 19.515C41.3321 19.5265 41.2905 19.5394 41.2417 19.5538L41.0263 19.614C40.8051 19.6772 40.6472 19.746 40.5524 19.8207C40.4605 19.8924 40.4146 19.9842 40.4146 20.0962C40.4146 20.2081 40.4562 20.2942 40.5395 20.3544C40.6257 20.4147 40.7477 20.4448 40.9057 20.4448C40.943 20.4448 40.9775 20.4434 41.009 20.4405C41.0406 20.4377 41.0722 20.4334 41.1038 20.4276C41.1383 20.4219 41.1742 20.4147 41.2115 20.4061C41.2488 20.3946 41.2919 20.3817 41.3407 20.3673C41.3292 20.4018 41.3192 20.4348 41.3106 20.4664C41.302 20.4951 41.2919 20.5338 41.2804 20.5826L41.2718 20.6213C41.223 20.6299 41.1799 20.6371 41.1426 20.6428C41.1052 20.6486 41.0694 20.6529 41.0349 20.6558C41.0033 20.6586 40.9703 20.6601 40.9358 20.6601C40.9014 20.6629 40.8626 20.6644 40.8195 20.6644C40.3198 20.6644 40.07 20.4735 40.07 20.0918C40.07 19.9369 40.1274 19.8063 40.2423 19.7001C40.2825 19.6628 40.327 19.6298 40.3758 19.6011C40.4246 19.5695 40.4835 19.5409 40.5524 19.515C40.6214 19.4863 40.7032 19.4591 40.798 19.4332C40.8927 19.4045 41.009 19.3744 41.1469 19.3428C41.3221 19.3027 41.447 19.2524 41.5217 19.1922C41.5992 19.1319 41.638 19.0559 41.638 18.964C41.638 18.8693 41.5949 18.7961 41.5087 18.7445C41.4226 18.69 41.302 18.6627 41.1469 18.6627C41.1009 18.6627 41.055 18.6641 41.009 18.667C40.9631 18.6699 40.9157 18.6742 40.8669 18.6799C40.8181 18.6885 40.775 18.6971 40.7377 18.7057C40.7003 18.7115 40.6616 18.7201 40.6214 18.7316C40.584 18.7431 40.5438 18.756 40.5007 18.7703C40.4577 18.7847 40.4074 18.8033 40.35 18.8263C40.3528 18.8148 40.3543 18.8062 40.3543 18.8004C40.3543 18.7918 40.3557 18.7847 40.3586 18.7789C40.3615 18.7646 40.3629 18.7502 40.3629 18.7359C40.3658 18.7187 40.3686 18.7029 40.3715 18.6885C40.3772 18.6828 40.3816 18.6512 40.3844 18.5938L40.3887 18.5508C40.4289 18.5422 40.462 18.535 40.4878 18.5293C40.5165 18.5235 40.5409 18.5178 40.561 18.512C40.7822 18.4632 40.9904 18.4389 41.1857 18.4389C41.4642 18.4389 41.6696 18.4833 41.8017 18.5723C41.9338 18.6613 41.9998 18.7976 41.9998 18.9812Z" fill="var(--fill-0, white)"/>
<path d="M43.6349 18.4948C43.6291 18.5465 43.6248 18.5895 43.6219 18.624C43.6219 18.6584 43.6219 18.7 43.6219 18.7488H43.0361L43.0318 18.8822L43.0103 19.3041L42.9973 19.4978C42.9916 19.6011 42.9873 19.6944 42.9844 19.7776C42.9815 19.8608 42.9801 19.9354 42.9801 20.0015V20.023C42.9801 20.155 43.0016 20.2511 43.0447 20.3114C43.0907 20.3688 43.1639 20.3975 43.2644 20.3975C43.3104 20.3975 43.3534 20.3932 43.3936 20.3846C43.4367 20.376 43.5013 20.3602 43.5875 20.3372C43.5789 20.3803 43.5717 20.4176 43.5659 20.4491C43.5631 20.4778 43.5573 20.5166 43.5487 20.5654L43.5401 20.6127C43.4941 20.6242 43.4539 20.6328 43.4195 20.6385C43.3879 20.6443 43.3563 20.6486 43.3247 20.6515C43.296 20.6572 43.2673 20.6601 43.2386 20.6601C43.2098 20.6629 43.1783 20.6644 43.1438 20.6644C42.96 20.6644 42.825 20.6256 42.7389 20.5481C42.6556 20.4707 42.6139 20.3487 42.6139 20.1822C42.6139 20.1593 42.6139 20.132 42.6139 20.1005C42.6168 20.0689 42.6197 20.0316 42.6226 19.9885L42.6484 19.5193L42.6613 19.3041L42.6829 18.8951L42.6872 18.7488H42.4072C42.4129 18.7086 42.4144 18.677 42.4115 18.6541C42.4115 18.6283 42.4144 18.591 42.4201 18.5422L42.4244 18.4948H42.7087C42.7145 18.4374 42.7173 18.3929 42.7173 18.3614C42.7202 18.3269 42.7231 18.2767 42.7259 18.2107L42.7303 18.0945L42.7863 18.0816C42.8178 18.073 42.8437 18.0672 42.8638 18.0643C42.8868 18.0586 42.9083 18.0543 42.9284 18.0514C42.9485 18.0486 42.9686 18.0457 42.9887 18.0428C43.0117 18.0371 43.0375 18.0313 43.0663 18.0256L43.0619 18.116L43.0533 18.2538L43.049 18.3915V18.4948H43.6349Z" fill="var(--fill-0, white)"/>
<path d="M45.1279 17.9869C45.0533 17.961 44.9887 17.9438 44.9341 17.9352C44.8795 17.9237 44.825 17.918 44.7704 17.918C44.6469 17.918 44.5536 17.9496 44.4904 18.0127C44.4559 18.05 44.4315 18.0959 44.4172 18.1504C44.4028 18.2021 44.3956 18.2853 44.3956 18.4001V18.4905H44.9815C44.9757 18.5249 44.9714 18.5608 44.9685 18.5981C44.9657 18.6326 44.9642 18.6713 44.9642 18.7144V18.7488H44.3956L44.3913 18.9081L44.3655 19.6097L44.3482 20.3846L44.3396 20.617H44.2836C44.2578 20.617 44.2334 20.617 44.2104 20.617C44.1903 20.6142 44.1702 20.6127 44.1501 20.6127C44.1329 20.6127 44.1128 20.6142 44.0898 20.617C44.0697 20.617 44.0453 20.617 44.0165 20.617H43.9605C43.9663 20.5625 43.9692 20.5166 43.9692 20.4793C43.972 20.4391 43.9749 20.4047 43.9778 20.376C43.9864 20.2296 43.995 20.0359 44.0036 19.7948C44.0151 19.5538 44.0266 19.2496 44.0381 18.8822L44.0424 18.7488H43.7796C43.7854 18.7172 43.7882 18.6785 43.7882 18.6326C43.7911 18.5866 43.794 18.5393 43.7969 18.4905H44.0682V18.4044C44.0682 18.3442 44.0682 18.2939 44.0682 18.2538C44.0711 18.2107 44.074 18.1748 44.0769 18.1461C44.0797 18.1146 44.084 18.0873 44.0898 18.0643C44.0955 18.0385 44.1013 18.0141 44.107 17.9912C44.1386 17.885 44.2032 17.8046 44.3009 17.7501C44.4014 17.6927 44.532 17.664 44.6929 17.664C44.7589 17.664 44.8207 17.6683 44.8781 17.6769C44.9384 17.6827 45.0159 17.697 45.1107 17.72C45.1107 17.7688 45.1107 17.8089 45.1107 17.8405C45.1136 17.8692 45.1179 17.9036 45.1236 17.9438L45.1279 17.9869Z" fill="var(--fill-0, white)"/>
<path d="M46.9382 19.4892C46.9382 19.2338 46.8779 19.0401 46.7573 18.9081C46.6395 18.7732 46.4658 18.7057 46.236 18.7057C46.0005 18.7057 45.8168 18.7861 45.6846 18.9468C45.5525 19.1046 45.4865 19.3271 45.4865 19.614C45.4865 19.858 45.5482 20.0502 45.6717 20.1909C45.7981 20.3315 45.9704 20.4018 46.1886 20.4018C46.4241 20.4018 46.6079 20.3214 46.74 20.1607C46.8721 20 46.9382 19.7762 46.9382 19.4892ZM47.3043 19.4935C47.3043 19.68 47.2699 19.8565 47.201 20.023C47.0286 20.4506 46.684 20.6644 46.1671 20.6644C46.0092 20.6644 45.8656 20.64 45.7363 20.5912C45.6071 20.5395 45.4965 20.4678 45.4046 20.376C45.3128 20.2813 45.241 20.1693 45.1893 20.0402C45.1404 19.9111 45.116 19.7661 45.116 19.6054C45.116 19.4246 45.1419 19.2625 45.1936 19.119C45.2481 18.9755 45.3242 18.8535 45.4219 18.7531C45.5195 18.6527 45.6387 18.5752 45.7794 18.5206C45.9201 18.4661 46.0781 18.4389 46.2533 18.4389C46.5835 18.4389 46.8405 18.5321 47.0243 18.7187C47.211 18.9052 47.3043 19.1635 47.3043 19.4935Z" fill="var(--fill-0, white)"/>
<path d="M48.9636 18.7703C48.9062 18.756 48.8631 18.7474 48.8344 18.7445C48.8056 18.7387 48.7712 18.7359 48.731 18.7359C48.5931 18.7359 48.474 18.7761 48.3734 18.8564C48.2758 18.9368 48.2069 19.0472 48.1667 19.1879C48.1466 19.2539 48.1322 19.3357 48.1236 19.4332C48.1178 19.4935 48.1135 19.5624 48.1107 19.6399C48.1078 19.7173 48.1049 19.8006 48.1021 19.8895C48.0992 19.9756 48.0963 20.066 48.0934 20.1607C48.0934 20.2526 48.0934 20.343 48.0934 20.4319V20.617H48.0417C48.0188 20.6142 47.9958 20.6127 47.9728 20.6127C47.9527 20.6127 47.9326 20.6127 47.9125 20.6127C47.8895 20.6127 47.8666 20.6142 47.8436 20.617C47.8235 20.617 47.8005 20.617 47.7747 20.617H47.7187L47.7316 20.4104C47.7402 20.2554 47.7488 20.099 47.7574 19.9412C47.7661 19.7833 47.7718 19.6327 47.7747 19.4892C47.7804 19.3428 47.7847 19.208 47.7876 19.0846C47.7905 18.9583 47.7919 18.8478 47.7919 18.7531V18.4862C47.835 18.4891 47.868 18.4905 47.891 18.4905C47.914 18.4905 47.9398 18.4905 47.9685 18.4905C48.0001 18.4905 48.026 18.4905 48.0461 18.4905C48.069 18.4905 48.1021 18.4891 48.1451 18.4862L48.1322 18.8349C48.1466 18.8091 48.1609 18.7847 48.1753 18.7617C48.1896 18.7387 48.204 18.7172 48.2184 18.6971C48.3418 18.5249 48.53 18.4389 48.7827 18.4389C48.8143 18.4389 48.8401 18.4403 48.8602 18.4432C48.8803 18.446 48.9105 18.4518 48.9507 18.4604C48.9507 18.5178 48.9507 18.5637 48.9507 18.5981C48.9507 18.6297 48.9535 18.6713 48.9593 18.723L48.9636 18.7703Z" fill="var(--fill-0, white)"/>
<path d="M52.4439 19.0114C52.4439 19.0487 52.4424 19.0946 52.4396 19.1491C52.4367 19.2037 52.4324 19.2668 52.4267 19.3385C52.4209 19.3959 52.4152 19.4705 52.4094 19.5624C52.4066 19.6513 52.4022 19.7561 52.3965 19.8766C52.3908 19.9742 52.3864 20.0545 52.3836 20.1177C52.3836 20.1808 52.3821 20.2382 52.3793 20.2899C52.3793 20.3415 52.3778 20.3917 52.375 20.4405C52.375 20.4893 52.375 20.5481 52.375 20.617H52.3233C52.3003 20.6142 52.2788 20.6127 52.2587 20.6127C52.2414 20.6127 52.2228 20.6127 52.2027 20.6127C52.1797 20.6127 52.1567 20.6142 52.1337 20.617C52.1108 20.617 52.0863 20.617 52.0605 20.617H52.0002C52.0059 20.551 52.0102 20.4951 52.0131 20.4491C52.016 20.4004 52.0189 20.3516 52.0217 20.3028C52.0246 20.254 52.0275 20.2009 52.0303 20.1435C52.0332 20.0832 52.0375 20.0072 52.0433 19.9154L52.0691 19.4289C52.072 19.3801 52.0734 19.3328 52.0734 19.2869C52.0763 19.241 52.0777 19.1979 52.0777 19.1577C52.0777 18.8708 51.9341 18.7273 51.647 18.7273C51.5464 18.7273 51.4546 18.7502 51.3713 18.7961C51.2909 18.8392 51.2234 18.9023 51.1688 18.9855C51.143 19.0286 51.12 19.0745 51.0999 19.1233C51.0827 19.1721 51.0683 19.2338 51.0568 19.3084C51.0453 19.3801 51.0353 19.4662 51.0267 19.5667C51.0209 19.6671 51.0166 19.7905 51.0137 19.9369L51.0008 20.4061L50.9922 20.617H50.9405C50.9175 20.6142 50.8946 20.6127 50.8716 20.6127C50.8515 20.6127 50.8314 20.6127 50.8113 20.6127C50.794 20.6127 50.7739 20.6142 50.751 20.617C50.7309 20.617 50.7064 20.617 50.6777 20.617H50.6217C50.6246 20.5539 50.6275 20.5022 50.6303 20.4621C50.6361 20.419 50.639 20.376 50.639 20.3329C50.6418 20.287 50.6447 20.2353 50.6476 20.1779C50.6504 20.1177 50.6548 20.0388 50.6605 19.9412C50.6691 19.7977 50.6749 19.6843 50.6777 19.6011C50.6806 19.5179 50.6835 19.4519 50.6863 19.4031C50.6892 19.3514 50.6907 19.3113 50.6907 19.2826C50.6907 19.251 50.6907 19.2151 50.6907 19.175C50.6907 19.0286 50.6548 18.9181 50.583 18.8435C50.5112 18.766 50.4063 18.7273 50.2685 18.7273C50.1393 18.7273 50.0244 18.766 49.9239 18.8435C49.8234 18.921 49.753 19.0272 49.7128 19.162C49.6984 19.2022 49.687 19.2453 49.6783 19.2912C49.6697 19.3371 49.6626 19.3902 49.6568 19.4505C49.6511 19.5107 49.6453 19.581 49.6396 19.6614C49.6338 19.7389 49.6295 19.8307 49.6267 19.9369C49.6209 20.0201 49.6166 20.0904 49.6137 20.1478C49.6137 20.2023 49.6123 20.254 49.6094 20.3028C49.6094 20.3487 49.6094 20.396 49.6094 20.4448C49.6094 20.4907 49.6094 20.5481 49.6094 20.617H49.5491C49.5233 20.617 49.4989 20.617 49.4759 20.617C49.4558 20.6142 49.4386 20.6127 49.4242 20.6127C49.407 20.6127 49.3869 20.6142 49.3639 20.617C49.3438 20.617 49.3194 20.617 49.2907 20.617H49.2303C49.239 20.5223 49.2461 20.442 49.2519 20.376C49.2576 20.3071 49.2619 20.2353 49.2648 20.1607C49.2706 20.0861 49.2749 19.9971 49.2777 19.8938C49.2835 19.7905 49.2892 19.6542 49.295 19.4849C49.3007 19.3357 49.305 19.2166 49.3079 19.1276C49.3136 19.0358 49.3165 18.9568 49.3165 18.8908C49.3194 18.8248 49.3208 18.7631 49.3208 18.7057C49.3237 18.6455 49.3251 18.5723 49.3251 18.4862C49.3653 18.4891 49.3969 18.4905 49.4199 18.4905C49.4429 18.4905 49.4716 18.4905 49.506 18.4905C49.5376 18.4905 49.5649 18.4905 49.5879 18.4905C49.6109 18.4905 49.641 18.4891 49.6783 18.4862L49.6611 18.8779C49.6984 18.8148 49.7329 18.7631 49.7645 18.723C49.8306 18.634 49.9196 18.5651 50.0316 18.5163C50.1464 18.4647 50.2685 18.4389 50.3977 18.4389C50.5356 18.4389 50.6605 18.469 50.7725 18.5293C50.8443 18.5666 50.8974 18.6096 50.9319 18.6584C50.9692 18.7043 51.0022 18.7761 51.031 18.8736C51.0453 18.8507 51.0582 18.8291 51.0697 18.8091C51.0812 18.789 51.0927 18.7717 51.1042 18.7574C51.1731 18.657 51.265 18.5795 51.3799 18.5249C51.4976 18.4676 51.6297 18.4389 51.7762 18.4389C51.983 18.4389 52.1452 18.4891 52.263 18.5895C52.3836 18.69 52.4439 18.8306 52.4439 19.0114Z" fill="var(--fill-0, white)"/>
<path d="M54.2217 18.7961C54.1298 18.7617 54.0494 18.7373 53.9805 18.723C53.9144 18.7086 53.8427 18.7014 53.7651 18.7014C53.6244 18.7014 53.5153 18.7258 53.4377 18.7746C53.3602 18.8205 53.3214 18.888 53.3214 18.9769C53.3214 19.0659 53.3717 19.1563 53.4722 19.2481C53.4837 19.2596 53.4952 19.2711 53.5067 19.2826C53.5181 19.2912 53.5325 19.3027 53.5497 19.317C53.567 19.3314 53.5885 19.35 53.6143 19.373C53.6431 19.3931 53.679 19.4203 53.722 19.4548C53.8369 19.5466 53.9188 19.6155 53.9676 19.6614C54.1255 19.8077 54.2045 19.9627 54.2045 20.1263C54.2045 20.287 54.137 20.4176 54.002 20.518C53.8671 20.6156 53.689 20.6644 53.4679 20.6644C53.4363 20.6644 53.3975 20.6629 53.3516 20.6601C53.3056 20.6572 53.2597 20.6529 53.2137 20.6472C53.1735 20.6443 53.1391 20.64 53.1103 20.6342C53.0816 20.6314 53.0529 20.6271 53.0242 20.6213C52.9983 20.6156 52.9711 20.6098 52.9423 20.6041C52.9136 20.5955 52.8792 20.5869 52.839 20.5783L52.8347 20.5266L52.826 20.4147L52.8131 20.3071L52.8088 20.264C52.8921 20.2985 52.9567 20.3229 53.0027 20.3372C53.0515 20.3516 53.106 20.3659 53.1663 20.3803C53.2468 20.3975 53.3272 20.4061 53.4076 20.4061C53.5454 20.4061 53.6531 20.3788 53.7307 20.3243C53.8082 20.2698 53.847 20.1937 53.847 20.0962C53.847 20.0158 53.8182 19.9469 53.7608 19.8895C53.7378 19.8666 53.712 19.8422 53.6833 19.8164C53.6546 19.7905 53.6158 19.7575 53.567 19.7173L53.4248 19.6011C53.3588 19.5495 53.3056 19.5064 53.2654 19.472C53.2252 19.4347 53.1922 19.4031 53.1663 19.3773C53.0285 19.2395 52.9596 19.0975 52.9596 18.9511C52.9596 18.7933 53.0242 18.6684 53.1534 18.5766C53.2827 18.4848 53.4593 18.4389 53.6833 18.4389C53.7608 18.4389 53.8398 18.4432 53.9202 18.4518C54.0006 18.4604 54.0954 18.4747 54.2045 18.4948V18.5379C54.2045 18.5809 54.2045 18.6196 54.2045 18.6541C54.2074 18.6857 54.2117 18.7187 54.2174 18.7531L54.2217 18.7961Z" fill="var(--fill-0, white)"/>
</g>
<g id="Group 28">
<path id="Fill 2" fill-rule="evenodd" clip-rule="evenodd" d="M9.14499 16.5153C9.14182 16.074 9.12527 15.6904 9.09466 15.3653C9.5794 15.5973 10.0167 15.7611 10.4063 15.8565C10.796 15.9518 11.1721 15.9997 11.5351 15.9997C11.884 15.9997 12.2105 15.9403 12.5143 15.8218C12.8188 15.7033 13.0503 15.5359 13.209 15.3197C13.3675 15.1038 13.4518 14.8564 13.4614 14.577C13.4673 14.4148 13.4468 14.2623 13.4008 14.1207C13.3543 13.9787 13.2773 13.835 13.1682 13.6882C13.0594 13.5419 12.8685 13.3443 12.5962 13.0955C12.3234 12.8472 11.9364 12.5042 11.4351 12.0674L10.9343 11.6283C10.7452 11.4609 10.574 11.2946 10.4214 11.1296C10.2691 10.9649 10.1419 10.8068 10.0406 10.6557C9.93875 10.5048 9.86121 10.3675 9.80725 10.2442C9.75329 10.1212 9.71271 9.98389 9.6855 9.833C9.65852 9.68188 9.64741 9.52736 9.65286 9.36945C9.66691 8.96956 9.78912 8.5955 10.0201 8.24704C10.2507 7.89836 10.5897 7.61946 11.0365 7.41034C11.4832 7.20122 12.0672 7.09654 12.7878 7.09654C13.3047 7.09654 13.937 7.1661 14.6854 7.30589C14.6843 7.60518 14.704 7.97244 14.7446 8.40745C14.0418 8.15619 13.3997 8.0309 12.8181 8.0309C12.4182 8.0309 12.0811 8.0966 11.8065 8.22846C11.5324 8.36032 11.3218 8.52912 11.1751 8.73484C11.0284 8.94056 10.9511 9.15217 10.9436 9.36945C10.9391 9.49949 10.9533 9.62614 10.986 9.7494C11.0191 9.87265 11.0708 9.98978 11.1413 10.1015C11.2424 10.2642 11.3694 10.428 11.5217 10.5929C11.6741 10.7581 11.8859 10.9593 12.1563 11.196C12.2241 11.2517 12.4828 11.4699 12.9324 11.8515C13.3818 12.2323 13.7089 12.5273 13.913 12.7367C14.1177 12.9458 14.2794 13.1402 14.3989 13.3189C14.5179 13.4979 14.6088 13.6907 14.6712 13.8976C14.7337 14.1042 14.7612 14.3285 14.7525 14.5703C14.7396 14.9423 14.6473 15.2851 14.4759 15.5984C14.3045 15.9127 14.0651 16.1693 13.7584 16.369C13.4512 16.5688 13.1124 16.7104 12.7422 16.794C12.3717 16.878 11.9867 16.9197 11.5868 16.9197C11.2658 16.9197 10.9352 16.8955 10.5951 16.8466C10.255 16.7978 9.77143 16.6875 9.14499 16.5153" fill="var(--fill-0, white)"/>
<path id="Fill 4" fill-rule="evenodd" clip-rule="evenodd" d="M17.7437 16.7661L18.011 14.1447L18.3788 9.24366L18.437 8.17676C18.4511 7.90737 18.4645 7.59811 18.4763 7.24966C19.5267 7.25441 20.6032 7.25645 21.705 7.25645L23.9301 7.24966H24.6413C24.5974 7.57274 24.5652 7.89786 24.5443 8.2257L23.9249 8.19081C23.7716 8.18129 23.5077 8.1745 23.1334 8.16996C22.7595 8.16543 22.3882 8.16271 22.0211 8.16271C20.9233 8.16271 20.1581 8.16996 19.7251 8.18378L19.4845 11.4465C20.2003 11.4606 20.8421 11.4674 21.4096 11.4674C22.0283 11.4674 22.8405 11.4581 23.846 11.4395C23.8022 11.7649 23.7698 12.0857 23.7496 12.4015L21.3493 12.3809C20.8795 12.3809 20.2254 12.3904 19.3872 12.409L19.1403 15.853L19.8661 15.8598C21.1833 15.8598 22.0569 15.8551 22.4879 15.8458C22.9187 15.8365 23.4232 15.8159 24.0013 15.783C23.9566 16.1269 23.9244 16.4545 23.904 16.7661C22.7836 16.7566 21.837 16.752 21.065 16.752L17.7437 16.7661Z" fill="var(--fill-0, white)"/>
<path id="Fill 6" fill-rule="evenodd" clip-rule="evenodd" d="M27.2239 16.7661C27.3722 15.5669 27.5148 14.1017 27.6517 12.3703C27.7889 10.6391 27.8961 8.93213 27.9737 7.24966C28.2947 7.25441 28.5387 7.25645 28.7065 7.25645L29.356 7.24966L28.9787 11.6663L28.6661 15.8317L29.9911 15.8385C30.9773 15.8385 31.6711 15.8356 32.0742 15.8283C32.4762 15.8215 32.8664 15.8063 33.2441 15.783C33.2056 16.0778 33.1709 16.4054 33.1396 16.7661C32.0842 16.7566 31.1517 16.752 30.3427 16.752L27.2239 16.7661Z" fill="var(--fill-0, white)"/>
<path id="Fill 8" fill-rule="evenodd" clip-rule="evenodd" d="M35.7197 16.7661L35.88 15.1624L36.1426 11.8233L36.3552 8.53224C36.3663 8.34193 36.3756 8.15139 36.3822 7.96084L36.3999 7.24966L37.119 7.25645L37.7965 7.24966C37.672 8.41148 37.5671 9.62451 37.4814 10.889C37.3365 12.9151 37.2143 14.8745 37.1159 16.7661L36.4602 16.752C36.3763 16.752 36.1299 16.7566 35.7197 16.7661" fill="var(--fill-0, white)"/>
<path id="Fill 10" fill-rule="evenodd" clip-rule="evenodd" d="M40.3245 16.5152C40.3213 16.0739 40.3045 15.6903 40.2739 15.3652C40.7589 15.5972 41.196 15.761 41.586 15.8564C41.9757 15.9518 42.3516 15.9996 42.7144 15.9996C43.0633 15.9996 43.3898 15.9402 43.6938 15.8217C43.9981 15.7032 44.2298 15.5358 44.3883 15.3196C44.5468 15.1037 44.6309 14.8563 44.6406 14.577C44.6468 14.4147 44.6261 14.2623 44.5801 14.1207C44.5339 13.9786 44.4565 13.835 44.3475 13.6881C44.2387 13.5418 44.0482 13.3442 43.7755 13.0955C43.5027 12.8471 43.1157 12.5041 42.6149 12.0673L42.114 11.6282C41.9245 11.4608 41.7535 11.2945 41.6012 11.1295C41.4488 10.9648 41.3212 10.8067 41.2198 10.6556C41.118 10.5047 41.0405 10.3674 40.987 10.2441C40.9326 10.1211 40.8922 9.98381 40.8652 9.83291C40.8378 9.6818 40.8267 9.52728 40.8324 9.36936C40.8462 8.96947 40.9684 8.59542 41.1994 8.24696C41.4302 7.89827 41.769 7.61937 42.2158 7.41025C42.6627 7.20113 43.2467 7.09646 43.9675 7.09646C44.484 7.09646 45.1163 7.16602 45.8647 7.30581C45.8638 7.6051 45.8833 7.97236 45.9239 8.40737C45.2213 8.15611 44.5792 8.03081 43.9976 8.03081C43.5979 8.03081 43.2603 8.09652 42.9862 8.22838C42.7117 8.36024 42.5015 8.52903 42.3544 8.73475C42.2079 8.94047 42.1304 9.15209 42.1229 9.36936C42.1183 9.49941 42.1326 9.62606 42.1653 9.74931C42.1986 9.87256 42.2503 9.9897 42.3208 10.1014C42.4217 10.2641 42.5489 10.4279 42.701 10.5928C42.8534 10.758 43.0651 10.9592 43.3361 11.1959C43.4039 11.2517 43.6626 11.4698 44.1119 11.8514C44.5611 12.2322 44.8882 12.5272 45.0923 12.7366C45.297 12.9457 45.4587 13.1401 45.5781 13.3188C45.6972 13.4978 45.7881 13.6906 45.8509 13.8975C45.9132 14.1041 45.9404 14.3284 45.9318 14.5702C45.9191 14.9422 45.8271 15.285 45.6552 15.5983C45.4838 15.9126 45.2446 16.1693 44.9379 16.3689C44.6304 16.5687 44.2917 16.7103 43.9215 16.7939C43.5512 16.878 43.166 16.9196 42.7663 16.9196C42.4453 16.9196 42.1147 16.8954 41.7746 16.8465C41.4343 16.7978 40.9512 16.6874 40.3245 16.5152" fill="var(--fill-0, white)"/>
<path id="Fill 12" fill-rule="evenodd" clip-rule="evenodd" d="M48.9237 16.7661L49.1908 14.1447L49.5588 9.24366L49.6168 8.17676C49.6309 7.90737 49.6442 7.59811 49.6565 7.24966C50.7069 7.25441 51.7829 7.25645 52.8852 7.25645L55.1099 7.24966H55.8215C55.7776 7.57274 55.7454 7.89786 55.7245 8.2257L55.1046 8.19081C54.9514 8.18129 54.6879 8.1745 54.3132 8.16996C53.9391 8.16543 53.5684 8.16271 53.2008 8.16271C52.103 8.16271 51.3379 8.16996 50.9048 8.18378L50.6645 11.4465C51.38 11.4606 52.0221 11.4674 52.5898 11.4674C53.2083 11.4674 54.0205 11.4581 55.0262 11.4395C54.982 11.7649 54.95 12.0857 54.9292 12.4015L52.5291 12.3809C52.0593 12.3809 51.4052 12.3904 50.5674 12.409L50.3203 15.853L51.0461 15.8598C52.3631 15.8598 53.2371 15.8551 53.6681 15.8458C54.0984 15.8365 54.6029 15.8159 55.1813 15.783C55.1364 16.1269 55.1042 16.4545 55.0838 16.7661C53.9635 16.7566 53.0172 16.752 52.2452 16.752L48.9237 16.7661Z" fill="var(--fill-0, white)"/>
<path id="Fill 14" fill-rule="evenodd" clip-rule="evenodd" d="M9.14499 16.5153C9.14182 16.074 9.12527 15.6904 9.09466 15.3653C9.5794 15.5973 10.0167 15.7611 10.4063 15.8565C10.796 15.9518 11.1721 15.9997 11.5351 15.9997C11.884 15.9997 12.2105 15.9403 12.5143 15.8218C12.8188 15.7033 13.0503 15.5359 13.209 15.3197C13.3675 15.1038 13.4518 14.8564 13.4614 14.577C13.4673 14.4148 13.4468 14.2623 13.4008 14.1207C13.3543 13.9787 13.2773 13.835 13.1682 13.6882C13.0594 13.5419 12.8685 13.3443 12.5962 13.0955C12.3234 12.8472 11.9364 12.5042 11.4351 12.0674L10.9343 11.6283C10.7452 11.4609 10.574 11.2946 10.4214 11.1296C10.2691 10.9649 10.1419 10.8068 10.0406 10.6557C9.93875 10.5048 9.86121 10.3675 9.80725 10.2442C9.75329 10.1212 9.71271 9.98389 9.6855 9.833C9.65852 9.68188 9.64741 9.52736 9.65286 9.36945C9.66691 8.96956 9.78912 8.5955 10.0201 8.24704C10.2507 7.89836 10.5897 7.61946 11.0365 7.41034C11.4832 7.20122 12.0672 7.09654 12.7878 7.09654C13.3047 7.09654 13.937 7.1661 14.6854 7.30589C14.6843 7.60518 14.704 7.97244 14.7446 8.40745C14.0418 8.15619 13.3997 8.0309 12.8181 8.0309C12.4182 8.0309 12.0811 8.0966 11.8065 8.22846C11.5324 8.36032 11.3218 8.52912 11.1751 8.73484C11.0284 8.94056 10.9511 9.15217 10.9436 9.36945C10.9391 9.49949 10.9533 9.62614 10.986 9.7494C11.0191 9.87265 11.0708 9.98978 11.1413 10.1015C11.2424 10.2642 11.3694 10.428 11.5217 10.5929C11.6741 10.7581 11.8859 10.9593 12.1563 11.196C12.2241 11.2517 12.4828 11.4699 12.9324 11.8515C13.3818 12.2323 13.7089 12.5273 13.913 12.7367C14.1177 12.9458 14.2794 13.1402 14.3989 13.3189C14.5179 13.4979 14.6088 13.6907 14.6712 13.8976C14.7337 14.1042 14.7612 14.3285 14.7525 14.5703C14.7396 14.9423 14.6473 15.2851 14.4759 15.5984C14.3045 15.9127 14.0651 16.1693 13.7584 16.369C13.4512 16.5688 13.1124 16.7104 12.7422 16.794C12.3717 16.878 11.9867 16.9197 11.5868 16.9197C11.2658 16.9197 10.9352 16.8955 10.5951 16.8466C10.255 16.7978 9.77143 16.6875 9.14499 16.5153" fill="var(--fill-0, white)"/>
<path id="Fill 16" fill-rule="evenodd" clip-rule="evenodd" d="M17.7437 16.7661L18.011 14.1447L18.3788 9.24366L18.437 8.17676C18.4511 7.90737 18.4645 7.59811 18.4763 7.24966C19.5267 7.25441 20.6032 7.25645 21.705 7.25645L23.9301 7.24966H24.6413C24.5974 7.57274 24.5652 7.89786 24.5443 8.2257L23.9249 8.19081C23.7716 8.18129 23.5077 8.1745 23.1334 8.16996C22.7595 8.16543 22.3882 8.16271 22.0211 8.16271C20.9233 8.16271 20.1581 8.16996 19.7251 8.18378L19.4845 11.4465C20.2003 11.4606 20.8421 11.4674 21.4096 11.4674C22.0283 11.4674 22.8405 11.4581 23.846 11.4395C23.8022 11.7649 23.7698 12.0857 23.7496 12.4015L21.3493 12.3809C20.8795 12.3809 20.2254 12.3904 19.3872 12.409L19.1403 15.853L19.8661 15.8598C21.1833 15.8598 22.0569 15.8551 22.4879 15.8458C22.9187 15.8365 23.4232 15.8159 24.0013 15.783C23.9566 16.1269 23.9244 16.4545 23.904 16.7661C22.7836 16.7566 21.837 16.752 21.065 16.752L17.7437 16.7661Z" fill="var(--fill-0, white)"/>
<path id="Fill 18" fill-rule="evenodd" clip-rule="evenodd" d="M27.2239 16.7661C27.3722 15.5669 27.5148 14.1017 27.6517 12.3703C27.7889 10.6391 27.8961 8.93213 27.9737 7.24966C28.2947 7.25441 28.5387 7.25645 28.7065 7.25645L29.356 7.24966L28.9787 11.6663L28.6661 15.8317L29.9911 15.8385C30.9773 15.8385 31.6711 15.8356 32.0742 15.8283C32.4762 15.8215 32.8664 15.8063 33.2441 15.783C33.2056 16.0778 33.1709 16.4054 33.1396 16.7661C32.0842 16.7566 31.1517 16.752 30.3427 16.752L27.2239 16.7661Z" fill="var(--fill-0, white)"/>
<path id="Fill 20" fill-rule="evenodd" clip-rule="evenodd" d="M35.7197 16.7661L35.88 15.1624L36.1426 11.8233L36.3552 8.53224C36.3663 8.34193 36.3756 8.15139 36.3822 7.96084L36.3999 7.24966L37.119 7.25645L37.7965 7.24966C37.672 8.41148 37.5671 9.62451 37.4814 10.889C37.3365 12.9151 37.2143 14.8745 37.1159 16.7661L36.4602 16.752C36.3763 16.752 36.1299 16.7566 35.7197 16.7661" fill="var(--fill-0, white)"/>
<path id="Fill 22" fill-rule="evenodd" clip-rule="evenodd" d="M40.3245 16.5152C40.3213 16.0739 40.3045 15.6903 40.2739 15.3652C40.7589 15.5972 41.196 15.761 41.586 15.8564C41.9757 15.9518 42.3516 15.9996 42.7144 15.9996C43.0633 15.9996 43.3898 15.9402 43.6938 15.8217C43.9981 15.7032 44.2298 15.5358 44.3883 15.3196C44.5468 15.1037 44.6309 14.8563 44.6406 14.577C44.6468 14.4147 44.6261 14.2623 44.5801 14.1207C44.5339 13.9786 44.4565 13.835 44.3475 13.6881C44.2387 13.5418 44.0482 13.3442 43.7755 13.0955C43.5027 12.8471 43.1157 12.5041 42.6149 12.0673L42.114 11.6282C41.9245 11.4608 41.7535 11.2945 41.6012 11.1295C41.4488 10.9648 41.3212 10.8067 41.2198 10.6556C41.118 10.5047 41.0405 10.3674 40.987 10.2441C40.9326 10.1211 40.8922 9.98381 40.8652 9.83291C40.8378 9.6818 40.8267 9.52728 40.8324 9.36936C40.8462 8.96947 40.9684 8.59542 41.1994 8.24696C41.4302 7.89827 41.769 7.61937 42.2158 7.41025C42.6627 7.20113 43.2467 7.09646 43.9675 7.09646C44.484 7.09646 45.1163 7.16602 45.8647 7.30581C45.8638 7.6051 45.8833 7.97236 45.9239 8.40737C45.2213 8.15611 44.5792 8.03081 43.9976 8.03081C43.5979 8.03081 43.2603 8.09652 42.9862 8.22838C42.7117 8.36024 42.5015 8.52903 42.3544 8.73475C42.2079 8.94047 42.1304 9.15209 42.1229 9.36936C42.1183 9.49941 42.1326 9.62606 42.1653 9.74931C42.1986 9.87256 42.2503 9.9897 42.3208 10.1014C42.4217 10.2641 42.5489 10.4279 42.701 10.5928C42.8534 10.758 43.0651 10.9592 43.3361 11.1959C43.4039 11.2517 43.6626 11.4698 44.1119 11.8514C44.5611 12.2322 44.8882 12.5272 45.0923 12.7366C45.297 12.9457 45.4587 13.1401 45.5781 13.3188C45.6972 13.4978 45.7881 13.6906 45.8509 13.8975C45.9132 14.1041 45.9404 14.3284 45.9318 14.5702C45.9191 14.9422 45.8271 15.285 45.6552 15.5983C45.4838 15.9126 45.2446 16.1693 44.9379 16.3689C44.6304 16.5687 44.2917 16.7103 43.9215 16.7939C43.5512 16.878 43.166 16.9196 42.7663 16.9196C42.4453 16.9196 42.1147 16.8954 41.7746 16.8465C41.4343 16.7978 40.9512 16.6874 40.3245 16.5152" fill="var(--fill-0, white)"/>
<path id="Fill 24" fill-rule="evenodd" clip-rule="evenodd" d="M48.9237 16.7661L49.1908 14.1447L49.5588 9.24366L49.6168 8.17676C49.6309 7.90737 49.6442 7.59811 49.6565 7.24966C50.7069 7.25441 51.7829 7.25645 52.8852 7.25645L55.1099 7.24966H55.8215C55.7776 7.57274 55.7454 7.89786 55.7245 8.2257L55.1046 8.19081C54.9514 8.18129 54.6879 8.1745 54.3132 8.16996C53.9391 8.16543 53.5684 8.16271 53.2008 8.16271C52.103 8.16271 51.3379 8.16996 50.9048 8.18378L50.6645 11.4465C51.38 11.4606 52.0221 11.4674 52.5898 11.4674C53.2083 11.4674 54.0205 11.4581 55.0262 11.4395C54.982 11.7649 54.95 12.0857 54.9292 12.4015L52.5291 12.3809C52.0593 12.3809 51.4052 12.3904 50.5674 12.409L50.3203 15.853L51.0461 15.8598C52.3631 15.8598 53.2371 15.8551 53.6681 15.8458C54.0984 15.8365 54.6029 15.8159 55.1813 15.783C55.1364 16.1269 55.1042 16.4545 55.0838 16.7661C53.9635 16.7566 53.0172 16.752 52.2452 16.752L48.9237 16.7661Z" fill="var(--fill-0, white)"/>
<path id="Fill 26" fill-rule="evenodd" clip-rule="evenodd" d="M12.6788 23.3558C11.9311 23.3558 11.2008 23.2817 10.493 23.1444C10.4875 23.0945 10.4832 23.0479 10.476 22.9937C10.4699 22.9475 10.4597 22.8945 10.4517 22.8453C10.5832 22.8458 10.7129 22.8489 10.8474 22.8442C11.2915 22.8274 11.7336 22.7844 12.1614 22.7091C12.589 22.6348 13.0028 22.5333 13.3912 22.4101C13.7222 22.3054 14.0299 22.1826 14.3194 22.0537C14.4171 22.2945 14.506 22.5313 14.5799 22.7597C14.6257 22.9013 14.6656 23.0388 14.7023 23.1741C14.0453 23.2912 13.3699 23.3558 12.6788 23.3558M8.98731 22.7425C9.397 22.8005 9.83344 22.8368 10.2892 22.8458C10.2951 22.8653 10.3021 22.8862 10.3077 22.9054C10.33 22.9813 10.349 23.0525 10.3669 23.1216C9.89534 23.0246 9.43554 22.8957 8.98731 22.7425M7.21983 21.9699C7.0423 21.8732 6.86818 21.771 6.69632 21.6652C6.69496 21.6595 6.69315 21.6536 6.69179 21.648C7.09059 21.7232 7.53021 21.7819 8.01222 21.8097C8.58039 21.839 9.20252 21.8211 9.85662 21.7427C9.89698 21.8265 9.93484 21.9092 9.97066 21.9905C10.0158 22.0923 10.0561 22.1908 10.0942 22.2878C9.50475 22.2776 8.93046 22.2343 8.39312 22.1641C7.97686 22.1106 7.58485 22.0431 7.21983 21.9699M6.37446 20.7865C6.6098 20.7851 6.85602 20.7747 7.12152 20.753C7.28929 20.7339 7.4641 20.719 7.64185 20.6891C7.73118 20.6753 7.82187 20.6621 7.91324 20.6463C8.00461 20.6284 8.09756 20.61 8.1912 20.5914C8.23813 20.5821 8.28529 20.5726 8.3329 20.5626C8.38006 20.5515 8.42745 20.54 8.47528 20.5287C8.57074 20.5051 8.66755 20.4813 8.76526 20.4573C8.86139 20.4308 8.95821 20.4018 9.05638 20.3735C9.2398 20.6415 9.40508 20.9061 9.552 21.1642C9.3985 21.1841 9.24501 21.2043 9.09356 21.2176C8.89427 21.2405 8.69634 21.2498 8.50226 21.2648C8.405 21.2713 8.30887 21.2727 8.21342 21.277C8.11774 21.2813 8.0232 21.2858 7.92956 21.2852C7.83592 21.2863 7.74319 21.2874 7.6516 21.2886C7.56045 21.287 7.46977 21.2854 7.38089 21.2838C7.33622 21.2831 7.29156 21.2831 7.2478 21.2813C7.20405 21.2795 7.16029 21.2772 7.11698 21.2752C7.03037 21.2707 6.9449 21.2691 6.86079 21.2627C6.75876 21.2564 6.66308 21.2469 6.56536 21.2385C6.51163 21.0912 6.45064 20.9412 6.37446 20.7865M5.46672 19.4772C5.72246 19.3103 6.01267 19.1172 6.33462 18.897C6.62324 18.699 6.9377 18.4788 7.27189 18.2379C7.77023 18.7468 8.23434 19.2699 8.63518 19.7928C8.63632 19.7942 8.63722 19.7958 8.63836 19.7972C8.59845 19.8117 8.55855 19.8259 8.51819 19.8384C8.42206 19.8697 8.32661 19.9009 8.23207 19.9315L8.1611 19.9548L8.09037 19.9752C8.04298 19.9893 7.99605 20.0029 7.94934 20.0167C7.76298 20.0745 7.57797 20.1186 7.39863 20.1667C7.3084 20.1877 7.21929 20.2084 7.13155 20.2288C7.08779 20.2385 7.04426 20.2496 7.0005 20.2587C6.9572 20.2673 6.9139 20.2757 6.87127 20.284C6.62233 20.3361 6.38835 20.3722 6.16299 20.4025C5.97685 20.0949 5.74491 19.7827 5.46672 19.4772M5.96715 21.1753C5.77353 21.0346 5.58285 20.8894 5.39853 20.7366C5.53365 20.7532 5.68171 20.7654 5.83633 20.7747C5.84087 20.7808 5.84585 20.7869 5.85039 20.7931C5.9447 20.9263 6.02859 21.0593 6.10704 21.1918C6.06079 21.1862 6.01204 21.1812 5.96715 21.1753M4.61439 20.0245C4.71891 19.9579 4.84633 19.8772 4.99347 19.7832C5.21203 20.0043 5.4179 20.2329 5.60313 20.4647C5.56572 20.4679 5.52468 20.4722 5.48841 20.4754C5.35623 20.4824 5.23198 20.4908 5.11636 20.4924C4.94495 20.3408 4.7765 20.1858 4.61439 20.0245M4.19473 19.5831C4.24234 19.4658 4.29653 19.3362 4.35774 19.1955C4.47065 19.2911 4.58379 19.3908 4.69692 19.4952C4.76108 19.555 4.82275 19.6169 4.8851 19.6781C4.75904 19.7916 4.65112 19.8892 4.56202 19.9708C4.43664 19.8441 4.31398 19.7152 4.19473 19.5831M4.15504 19.1547C4.12806 19.2614 4.10471 19.3595 4.08272 19.4533C3.98001 19.3361 3.87912 19.2172 3.7814 19.096C3.77097 18.9791 3.76168 18.8549 3.75351 18.7244C3.89544 18.8257 4.03873 18.9362 4.18225 19.0527C4.17318 19.0865 4.16343 19.122 4.15504 19.1547M3.72827 17.4117C3.73212 17.2019 3.74346 16.983 3.75638 16.7555C3.77293 16.5283 3.79039 16.2924 3.81783 16.0493C3.84072 15.8348 3.87133 15.6118 3.90557 15.3862C4.04047 15.4809 4.17605 15.576 4.31503 15.678C4.58891 15.8796 4.87186 16.0998 5.15822 16.3298C5.1428 16.3647 5.1267 16.4003 5.11151 16.4347C5.06345 16.5407 5.01901 16.6468 4.9757 16.7512C4.93285 16.8559 4.88864 16.9581 4.84874 17.06C4.6864 17.4669 4.54946 17.8516 4.43338 18.2035C4.40119 18.3027 4.37126 18.3988 4.34269 18.4926C4.14068 18.3528 3.93459 18.2316 3.72804 18.1217C3.72328 17.8981 3.72237 17.6622 3.72827 17.4117M3.26403 18.4031C3.3071 18.4289 3.3495 18.4523 3.39303 18.4801C3.42954 18.503 3.46672 18.5298 3.50345 18.554C3.5166 18.6356 3.52975 18.716 3.54335 18.7928C3.44722 18.6652 3.35472 18.5347 3.26403 18.4031M2.98306 17.6632C2.88671 17.2295 2.79307 16.7406 2.71485 16.2012C2.64071 15.6871 2.58448 15.1252 2.5541 14.5244C2.8273 14.6798 3.11456 14.8556 3.41588 15.0536C3.30909 16.077 3.32814 17.0195 3.40704 17.8105C3.41248 17.8648 3.41905 17.9156 3.42495 17.9684C3.28778 17.9061 3.15129 17.851 3.01617 17.8041C3.00506 17.757 2.99395 17.7117 2.98306 17.6632M1.44145 13.9829C1.64618 14.0606 1.86701 14.1601 2.1028 14.2797C2.11799 14.4635 2.1359 14.6438 2.15631 14.8205C2.24156 15.5227 2.36512 16.1697 2.5066 16.7491C2.57325 17.0214 2.64286 17.2776 2.71382 17.5194C2.10552 16.4373 1.66999 15.2463 1.44145 13.9829M1.25544 11.9424C1.25544 11.1723 1.33298 10.4204 1.47831 9.6931C1.60414 9.72391 1.7336 9.75925 1.86782 9.80321C2.04512 9.86121 2.23013 9.93167 2.42035 10.011C2.41196 10.0429 2.40312 10.0751 2.39609 10.1073C2.37228 10.2117 2.3487 10.3159 2.3249 10.4199C2.30177 10.5237 2.28409 10.6284 2.26368 10.7319C2.25371 10.784 2.24418 10.8354 2.23421 10.8875L2.21018 11.0427C2.19476 11.1463 2.17662 11.2491 2.16415 11.3522C2.10928 11.7634 2.07868 12.1697 2.06145 12.5664C2.04648 12.9638 2.05102 13.3519 2.06621 13.7284C2.07006 13.8068 2.07664 13.8823 2.08162 13.9593C1.84084 13.8744 1.61299 13.8077 1.40191 13.762C1.30668 13.1693 1.25544 12.5619 1.25544 11.9424M3.06446 5.78026C3.35626 5.92866 3.7036 6.11331 4.09855 6.33353C4.05774 6.39266 4.01716 6.4518 3.97589 6.51138C3.85278 6.68629 3.74327 6.87276 3.6281 7.05854C3.57119 7.15188 3.5204 7.24953 3.46576 7.34582C3.43878 7.39408 3.41203 7.44257 3.38505 7.49128C3.35784 7.53954 3.33426 7.59029 3.30887 7.64013C3.25899 7.74005 3.20889 7.83996 3.15923 7.93965C3.11344 8.04115 3.06764 8.14288 3.02229 8.24415C2.97513 8.34475 2.93523 8.44806 2.89419 8.5507L2.83275 8.70453L2.80237 8.78134L2.77471 8.85928C2.73821 8.96304 2.70148 9.06659 2.6652 9.16967C2.63051 9.27344 2.59968 9.37811 2.56703 9.48211C2.55139 9.53376 2.53438 9.58565 2.51965 9.63776C2.51352 9.66132 2.50718 9.68465 2.5006 9.70822C2.15553 9.59992 1.82927 9.52561 1.52456 9.48165C1.81862 8.14447 2.34688 6.89632 3.06446 5.78026M5.75851 2.86031C5.78685 2.86915 5.81337 2.87662 5.8424 2.88614C6.02332 2.93802 6.21558 3.01392 6.42281 3.08597C6.44843 3.09549 6.47518 3.10341 6.50103 3.11406C6.52687 3.12494 6.55295 3.13581 6.5797 3.14646C6.6323 3.16799 6.68581 3.18951 6.74045 3.21171C6.79486 3.23346 6.85018 3.25521 6.90618 3.27764C6.9343 3.28875 6.96264 3.29985 6.99098 3.31095C7.01932 3.32296 7.0472 3.33632 7.07577 3.34856C7.08892 3.35445 7.10275 3.36034 7.1159 3.36646C7.01388 3.43918 6.91185 3.51191 6.80756 3.58668C6.73546 3.6363 6.66722 3.69316 6.5967 3.74731C6.52642 3.80237 6.45568 3.85765 6.38426 3.91361C5.82063 4.36765 5.25631 4.89577 4.72941 5.51452C4.66525 5.59337 4.60063 5.67221 4.53556 5.75196C4.50269 5.79184 4.47049 5.83171 4.43762 5.87182C4.40565 5.9126 4.37527 5.95474 4.34375 5.99643C4.33083 6.01387 4.31768 6.03154 4.30453 6.04922C4.28979 6.04333 4.27324 6.03585 4.2585 6.02973C3.84473 5.86253 3.47653 5.72931 3.16343 5.62486C3.86945 4.56521 4.74777 3.63063 5.75851 2.86031M8.91207 1.16438C9.24626 1.25637 9.60018 1.36444 9.96905 1.4929C10.0996 1.53822 10.2293 1.58512 10.3583 1.63315C10.1228 1.72876 9.87768 1.83298 9.62307 1.94875C9.56141 1.97617 9.49928 2.00426 9.43603 2.03258C9.37436 2.06272 9.31133 2.09353 9.2483 2.12457C9.12179 2.18687 8.99301 2.25076 8.86151 2.31579C8.73137 2.38376 8.60078 2.45649 8.4661 2.52899C8.39922 2.56546 8.33166 2.60217 8.26319 2.63978C8.19653 2.6792 8.12919 2.71953 8.0614 2.76008C7.99316 2.80041 7.92446 2.84165 7.85554 2.88311C7.79477 2.91891 7.73379 2.95629 7.67416 2.99526C7.64786 2.98642 7.6211 2.97691 7.59503 2.96807C7.45741 2.92185 7.32228 2.87722 7.18988 2.83485C6.80921 2.72723 6.44917 2.64793 6.12065 2.59696C6.97313 1.99837 7.91063 1.51397 8.91207 1.16438M8.5622 4.05103C8.62886 4.08411 8.69552 4.11742 8.76195 4.15027C8.82838 4.18335 8.89549 4.21461 8.95988 4.25154C9.08979 4.32246 9.2197 4.39201 9.34848 4.46021C9.41332 4.49397 9.47749 4.52773 9.5412 4.56103C9.57316 4.57757 9.6049 4.59411 9.63687 4.61065C9.66884 4.62696 9.699 4.64599 9.73028 4.66321C9.75772 4.67885 9.78402 4.69357 9.81145 4.70898C9.47159 4.94846 9.09319 5.22963 8.6767 5.57219C8.35679 5.84022 8.01331 6.13792 7.66483 6.48117C7.40773 6.73221 7.14359 7.00431 6.87991 7.30111C6.83321 7.27506 6.78628 7.24877 6.74003 7.22295C6.62666 7.16064 6.51466 7.09879 6.40425 7.03784C6.2927 6.97939 6.18229 6.92161 6.07323 6.86475C6.01859 6.83643 5.96463 6.80856 5.91044 6.78069C5.85648 6.75396 5.80252 6.72745 5.74924 6.70071C5.642 6.64838 5.5368 6.59581 5.43274 6.54642C5.2407 6.4558 5.0557 6.37174 4.87454 6.29199L4.90311 6.25234L4.95186 6.19049L5.04844 6.06792L5.14457 5.94557C5.17631 5.90479 5.20806 5.86355 5.24229 5.82504C5.77282 5.18907 6.35596 4.61835 6.95859 4.11832C7.18078 3.93367 7.40569 3.76171 7.63082 3.59564C7.68388 3.62147 7.73716 3.64707 7.79112 3.67312C7.91468 3.73248 8.04187 3.79207 8.17156 3.85188C8.29966 3.91691 8.4298 3.98352 8.5622 4.05103M4.65202 10.65C4.10335 10.3512 3.57191 10.1031 3.06654 9.90849C3.07924 9.86318 3.09171 9.81786 3.10577 9.773L3.15225 9.63095C3.18421 9.53602 3.21278 9.4395 3.24747 9.3448C3.28239 9.25009 3.31753 9.15493 3.35244 9.0591L3.37897 8.98728L3.40822 8.91659C3.42772 8.86901 3.44699 8.82166 3.46671 8.77385C3.50548 8.67869 3.54357 8.5824 3.58824 8.48861C3.63109 8.39413 3.67416 8.29897 3.7177 8.20359C3.76485 8.11002 3.81201 8.01576 3.8594 7.92129C3.88343 7.87439 3.90565 7.82613 3.93127 7.78014L4.00813 7.64148L4.08476 7.50259C4.11015 7.45637 4.13464 7.4097 4.16298 7.3653C4.21785 7.2749 4.27226 7.18495 4.32667 7.095L4.36771 7.02726L4.41079 6.96156L4.49808 6.83015L4.58491 6.69897L4.62686 6.63553C5.18074 6.95748 5.80106 7.33743 6.47511 7.77991C5.82577 8.57629 5.18392 9.52786 4.65202 10.65M3.87832 12.6772C3.69558 13.313 3.56136 13.943 3.47634 14.5516C3.47498 14.5609 3.47407 14.5699 3.47271 14.5795C3.15008 14.4093 2.8372 14.2607 2.53906 14.1363C2.53838 14.1161 2.5377 14.0957 2.53725 14.0756C2.5368 14.0348 2.53657 13.994 2.53634 13.953C2.53543 13.8712 2.53453 13.7885 2.53385 13.7051C2.53498 13.622 2.53657 13.5382 2.53748 13.4537C2.53838 13.4113 2.53884 13.3691 2.53974 13.3263C2.5411 13.2837 2.54314 13.2411 2.54473 13.1985C2.54813 13.1127 2.55176 13.0264 2.55516 12.9394C2.56105 12.8533 2.56672 12.7656 2.57284 12.6777C2.57557 12.6337 2.57874 12.5898 2.58169 12.5454C2.58577 12.5014 2.5903 12.457 2.59416 12.4126C2.6234 12.0564 2.6751 11.6932 2.73609 11.3235C2.75332 11.2313 2.77009 11.1384 2.78732 11.0453C2.8032 10.9517 2.82677 10.8593 2.84605 10.7655C2.8796 10.5969 2.92472 10.429 2.96712 10.2593C3.03649 10.2935 3.10496 10.3261 3.17548 10.3624C3.57995 10.5706 4.00574 10.8196 4.44672 11.1015C4.22203 11.6223 4.03294 12.1518 3.87832 12.6772M6.24511 12.377C6.49927 12.5748 6.75728 12.7825 7.0171 12.9984C7.00282 13.02 6.98808 13.0392 6.9738 13.0608C6.82393 13.2891 6.67112 13.5139 6.53214 13.7445C6.46118 13.8592 6.39135 13.9734 6.32174 14.0869C6.25486 14.2022 6.18843 14.3168 6.12268 14.4306C6.0898 14.4877 6.05738 14.5443 6.02451 14.6009C5.99367 14.6585 5.96216 14.7156 5.9311 14.7725C5.86965 14.8866 5.80844 14.9997 5.7479 15.1118C5.68986 15.2254 5.6325 15.338 5.57559 15.4499C5.54748 15.5056 5.51937 15.5609 5.49148 15.6162C5.46495 15.6721 5.43797 15.7277 5.41167 15.7829C5.40986 15.787 5.40805 15.7906 5.40623 15.7947C5.10741 15.5774 4.80904 15.3695 4.51362 15.1823C4.3395 15.072 4.16673 14.9682 3.99556 14.8685C4.018 14.7473 4.03614 14.6295 4.06153 14.5058C4.17444 13.9661 4.32091 13.4033 4.50841 12.8263C4.65374 12.384 4.82128 11.9327 5.01627 11.4775C5.41553 11.7514 5.82567 12.0516 6.24511 12.377M6.56236 17.5422C6.6798 17.6516 6.79294 17.764 6.90743 17.8755C6.5313 18.209 6.17942 18.5216 5.867 18.7999C5.66204 18.9825 5.47272 19.1513 5.30155 19.3046C5.229 19.2306 5.1578 19.1562 5.07959 19.0835C4.92201 18.9376 4.75741 18.8039 4.59032 18.6766C4.68032 18.4822 4.7794 18.274 4.88868 18.0526C5.09047 17.6414 5.3308 17.1838 5.60128 16.6935C5.91869 16.9604 6.23928 17.2406 6.56236 17.5422M9.66103 20.1767C9.68688 20.1679 9.71227 20.159 9.73766 20.1502C9.76306 20.1404 9.78822 20.1305 9.81361 20.1207C9.8644 20.1008 9.91541 20.0809 9.96643 20.0609C10.0685 20.0201 10.1727 19.9814 10.2757 19.9368C10.3782 19.8914 10.4813 19.8455 10.5854 19.7992C11.2519 19.4961 11.8811 19.1349 12.4543 18.7559C12.5508 18.8914 12.6458 19.0266 12.7377 19.1617C12.9828 19.5226 13.2079 19.8819 13.416 20.2376C12.564 20.5331 11.5274 20.8376 10.3124 21.054C10.1877 21.0739 10.0644 21.092 9.94081 21.1106C9.82019 20.8292 9.67486 20.5342 9.50482 20.2302C9.55674 20.2123 9.60843 20.1948 9.66103 20.1767M13.8472 21.0205C13.9651 21.2511 14.0706 21.4777 14.1694 21.7013C13.2761 21.9958 12.1543 22.239 10.8273 22.2831C10.6638 22.2886 10.5017 22.2888 10.34 22.2888C10.2942 22.1046 10.2337 21.9054 10.1634 21.6986C10.2487 21.6859 10.3319 21.6773 10.418 21.6623C11.2785 21.5108 12.111 21.2597 12.8494 20.9634C12.9417 20.9265 13.0328 20.8893 13.1233 20.8533C13.2129 20.8159 13.2995 20.7742 13.3861 20.7357C13.47 20.6972 13.5529 20.6593 13.6348 20.6217C13.708 20.7552 13.7797 20.8884 13.8472 21.0205M14.9858 23.1203C14.9178 22.7377 14.8196 22.3251 14.6795 21.8876C14.928 21.7627 15.1563 21.6336 15.361 21.5067C15.8836 21.1852 16.2559 20.8753 16.477 20.682C16.6939 20.4829 16.7665 20.4052 16.6561 20.4897C16.6005 20.5316 16.5221 20.5878 16.4198 20.6539C16.3162 20.7181 16.1922 20.7974 16.0412 20.88C15.7424 21.0488 15.3483 21.2484 14.8611 21.4492C14.7686 21.487 14.6691 21.5244 14.5695 21.5618C14.4373 21.1868 14.2773 20.7964 14.0896 20.3941C14.1741 20.3501 14.2612 20.305 14.3426 20.2633C14.4852 20.1809 14.6219 20.1023 14.7523 20.0275C14.8169 19.9896 14.8799 19.9529 14.9414 19.9169C15.001 19.8786 15.059 19.8415 15.1152 19.8057C15.2268 19.7334 15.3313 19.6659 15.4279 19.6036C15.4755 19.5719 15.5222 19.5429 15.5648 19.5123C15.6072 19.4817 15.648 19.4527 15.6864 19.4248C15.7628 19.3693 15.8301 19.3201 15.8888 19.2771C16.121 19.1051 16.2001 19.0356 16.0825 19.1056C15.9641 19.1754 15.7476 19.2841 15.4417 19.4296C15.2867 19.4975 15.1096 19.5755 14.9112 19.6625C14.8133 19.708 14.7056 19.7472 14.5949 19.7925C14.4845 19.8374 14.3686 19.8843 14.2474 19.9332C14.1446 19.9727 14.0356 20.0137 13.9252 20.0547C13.6849 19.5728 13.4073 19.0764 13.0858 18.5698C13.0498 18.5127 13.0106 18.4547 12.9734 18.3973C13.2702 18.181 13.5543 17.9682 13.8086 17.7546C14.0991 17.5233 14.3532 17.2874 14.5863 17.079C14.645 17.0273 14.6999 16.9743 14.7527 16.9226C14.806 16.871 14.8575 16.8207 14.9071 16.7722C15.0064 16.675 15.0989 16.5835 15.1842 16.4996C15.3517 16.3288 15.485 16.1802 15.5868 16.0687C15.7891 15.8444 15.8553 15.7554 15.7478 15.8503C15.6408 15.945 15.4363 16.0952 15.1497 16.3028C14.8563 16.5019 14.4834 16.7625 14.0224 17.0552C13.9653 17.0926 13.907 17.1306 13.8474 17.1696C13.7882 17.2081 13.7252 17.245 13.6629 17.2842C13.5377 17.3622 13.4078 17.4428 13.2731 17.5271C13.2067 17.5702 13.1364 17.6098 13.0659 17.6515C12.9954 17.6932 12.924 17.7355 12.8514 17.7788C12.7829 17.8198 12.7131 17.8617 12.6426 17.9039C12.5202 17.7269 12.3912 17.5486 12.2592 17.3701C12.0388 17.3952 11.8142 17.4088 11.5867 17.4088C11.5298 17.4088 11.4707 17.4039 11.4131 17.4025C11.6384 17.6766 11.8588 17.9519 12.0676 18.2281C11.5292 18.5278 10.9372 18.8364 10.282 19.1348C10.1826 19.1797 10.084 19.2245 9.9854 19.2692C9.887 19.3129 9.78679 19.3525 9.68862 19.3947C9.50407 19.4758 9.31793 19.5454 9.13451 19.6172C9.07261 19.5218 9.00845 19.426 8.94156 19.3297C8.611 18.8527 8.21854 18.3645 7.76668 17.8767C8.141 17.5992 8.53709 17.2958 8.94859 16.9686L8.65793 16.8886L8.65521 16.5184C8.65476 16.4543 8.6534 16.3938 8.65226 16.332C8.20653 16.7253 7.7753 17.1071 7.37037 17.4657C7.24522 17.3404 7.1178 17.2156 6.98471 17.0914C6.63102 16.7611 6.266 16.4543 5.89803 16.1657C5.93612 16.0991 5.97148 16.0352 6.01048 15.9677C6.45849 15.1958 6.98313 14.3575 7.57646 13.4741C8.03988 13.8769 8.50988 14.3097 8.98147 14.768L9.30636 14.9234C9.75822 15.1398 10.1675 15.2939 10.5227 15.3809C10.6062 15.4012 10.6894 15.4189 10.7717 15.4346C11.4008 14.8738 12.0039 14.2999 12.5603 13.7383C12.4853 13.6619 12.3896 13.5697 12.2658 13.4566C12.2143 13.41 12.1549 13.3565 12.096 13.3033C11.5215 13.8076 10.8918 14.3606 10.2087 14.9604C10.2015 14.9529 10.1944 14.9452 10.1872 14.9377C9.47164 14.2025 8.72255 13.5223 7.96597 12.9065C8.48948 12.1548 9.02568 11.4375 9.5417 10.7795C9.4696 10.6617 9.40544 10.5469 9.35851 10.4404C9.32586 10.3658 9.29752 10.2863 9.27258 10.2038C9.11841 10.3649 8.96265 10.5305 8.80304 10.7093C8.34778 11.222 7.87165 11.8029 7.3978 12.4561C7.08606 12.2169 6.77386 11.9889 6.46347 11.7735C6.05129 11.4876 5.6416 11.2259 5.23803 10.9857C5.72209 9.94578 6.32155 8.97087 6.96023 8.10585C7.62362 8.55784 8.32397 9.06467 9.04971 9.63131C9.09392 9.66598 9.137 9.70177 9.18076 9.73689C9.16715 9.60933 9.15899 9.48087 9.16353 9.35196C9.16942 9.18203 9.19753 9.01686 9.2354 8.85374C9.20955 8.83403 9.1837 8.81432 9.15809 8.79483C9.10095 8.75133 9.04427 8.70738 8.98646 8.66524C8.92819 8.624 8.87037 8.58231 8.81256 8.54085C8.6967 8.45838 8.58107 8.37659 8.46635 8.29503C8.34936 8.21686 8.23351 8.1387 8.11788 8.06144C8.05984 8.02292 8.00225 7.98463 7.94466 7.94657C7.88639 7.90964 7.82812 7.87316 7.77031 7.83669C7.65423 7.76419 7.53905 7.69214 7.42501 7.62077C7.4037 7.60808 7.38307 7.59585 7.36175 7.58339C7.67781 7.18644 7.99839 6.81533 8.31309 6.4748C8.40718 6.37557 8.49651 6.27497 8.58946 6.18095C8.68197 6.0867 8.77266 5.99381 8.8613 5.90295C8.95131 5.81278 9.04155 5.72691 9.12838 5.64172C9.17169 5.5989 9.21477 5.55676 9.25716 5.5153C9.30069 5.47474 9.34377 5.43464 9.3864 5.39522C9.60927 5.18587 9.81944 4.99669 10.0156 4.8245C10.0423 4.83946 10.07 4.85509 10.0963 4.87004C10.2173 4.93643 10.335 5.00145 10.4502 5.06511C10.5649 5.12991 10.6733 5.19788 10.781 5.25996C10.9948 5.38638 11.1959 5.50216 11.3798 5.60593C12.0953 6.04931 12.5358 6.28834 12.3805 6.17007C12.303 6.11117 12.1778 5.99199 12.0032 5.8232C11.916 5.73869 11.8155 5.64218 11.7035 5.5341C11.6466 5.48064 11.589 5.4215 11.5239 5.36531C11.4587 5.3089 11.3902 5.24976 11.319 5.18814C11.1757 5.06557 11.019 4.93325 10.8483 4.79278C10.8052 4.75812 10.7628 4.72119 10.7173 4.68743C10.6712 4.65345 10.6243 4.61901 10.5769 4.58412C10.5277 4.54787 10.4747 4.51003 10.4237 4.4731C10.6452 4.28618 10.8372 4.12917 10.9864 4.0066C11.3398 3.72407 11.4639 3.6126 11.2859 3.73563C11.1972 3.79703 11.0714 3.87723 10.9107 3.97715C10.8306 4.02722 10.7438 4.08522 10.6472 4.14685C10.5515 4.20938 10.4454 4.27463 10.3348 4.34962C10.3216 4.35846 10.3058 4.36933 10.2924 4.3784C10.2883 4.37568 10.2844 4.37296 10.2806 4.37001C10.1783 4.29706 10.0725 4.22274 9.96295 4.14685C9.85141 4.07457 9.73396 4.00388 9.61403 3.9307C9.49409 3.85775 9.3703 3.78411 9.24311 3.70957C9.18008 3.67106 9.11274 3.63821 9.04563 3.60332C8.97829 3.56888 8.91005 3.53444 8.84113 3.49932C8.70237 3.43045 8.56566 3.36021 8.42713 3.29677C8.34823 3.26324 8.27092 3.23175 8.19292 3.19912C8.39131 3.06568 8.58924 2.93631 8.78512 2.81577C9.38866 2.44511 9.97225 2.12883 10.5143 1.86896C10.584 1.83497 10.6506 1.80393 10.7186 1.77154C10.9705 1.87122 11.2154 1.97408 11.4487 2.0783C11.5063 2.10345 11.5634 2.12906 11.6199 2.15375C11.6754 2.18003 11.7307 2.20586 11.7851 2.23169C11.8937 2.28335 12.0017 2.3307 12.1025 2.38304C12.2048 2.43311 12.3036 2.48182 12.3986 2.52872C12.4925 2.57765 12.5825 2.62455 12.6682 2.66896C13.011 2.84817 13.2808 2.99748 13.4472 3.08765C13.6146 3.17692 13.6805 3.2032 13.608 3.15018C13.5352 3.09762 13.4184 2.98978 13.2527 2.83843C13.1681 2.76502 13.0711 2.68097 12.9627 2.58694C12.8535 2.49315 12.7276 2.39572 12.5907 2.28697C12.3118 2.07762 11.9778 1.83792 11.5718 1.60909C11.4986 1.56717 11.4206 1.52594 11.3428 1.4847C12.0524 1.17136 12.6415 0.951143 13.0414 0.799797C13.5917 0.600646 13.7905 0.519536 13.523 0.601552C13.3892 0.642787 13.2033 0.694671 12.967 0.758562C12.848 0.788469 12.7195 0.82993 12.5775 0.871165C12.4351 0.912853 12.281 0.958166 12.1148 1.0071C11.811 1.10385 11.4655 1.21758 11.087 1.35466C10.8018 1.21464 10.4928 1.08051 10.1534 0.962018C10.0618 0.930299 9.97021 0.901072 9.87816 0.872978C10.7746 0.647319 11.7124 0.526106 12.6789 0.526106C15.8176 0.526106 18.6555 1.78626 20.7228 3.83079C18.5383 1.50464 15.4404 0.0439754 11.9949 0.0439754C5.382 0.0439754 0.0256559 5.40247 0.0256559 12.01C0.0256559 18.6164 5.382 23.9715 11.9949 23.9715C16.2817 23.9715 20.027 21.7177 22.1432 18.3389C20.504 20.7595 17.9552 22.5127 14.9858 23.1203" fill="var(--fill-0, white)"/>
</g>
</g>
<defs>
<clipPath id="clip0_378_1336">
<rect width="56" height="24" fill="white"/>
</clipPath>
</defs>
</svg>
