<svg preserveAspectRatio="none" width="100%" height="100%" overflow="visible" style="display: block;" viewBox="0 0 107.737 10.3164" fill="none" xmlns="http://www.w3.org/2000/svg">
<g id="digital product designer">
<path id="Vector" d="M103.497 7.49938C103.497 7.45131 103.526 7.42247 103.574 7.42247C103.795 7.45131 104.16 7.45131 104.16 6.72061V6.63408V4.94192C104.16 4.21122 104.141 3.51898 104.083 3.41322C104.006 3.24977 103.881 3.24977 103.737 3.24977C103.689 3.24977 103.651 3.22093 103.651 3.17285V3.02864C103.651 2.99018 103.68 2.93249 103.728 2.92288L105.045 2.50945C105.064 2.49984 105.083 2.49022 105.103 2.49022C105.131 2.49022 105.179 2.51907 105.179 2.59598L105.189 3.32669C105.343 3.06709 105.641 2.73059 106.237 2.62483C106.324 2.6056 106.42 2.59598 106.506 2.59598C106.708 2.59598 106.997 2.65367 107.266 2.84596C107.525 3.04786 107.689 3.35553 107.727 3.67281C107.737 3.74011 107.737 3.7978 107.737 3.85548C107.737 4.24968 107.487 4.49966 107.304 4.5285C107.208 4.53811 107.141 4.54773 107.102 4.54773C106.881 4.54773 106.602 4.44197 106.564 4.24968V4.19199C106.564 4.05739 106.641 3.94201 106.747 3.74011C106.775 3.68242 106.785 3.61512 106.785 3.52859C106.785 3.51898 106.804 3.39399 106.708 3.23054C106.612 3.06709 106.439 3.00941 106.295 3.00941C106.227 3.00941 106.151 3.01902 106.064 3.03825C105.487 3.14401 105.189 4.01893 105.189 4.16315L105.179 6.64369C105.179 7.07635 105.247 7.41285 105.814 7.4417C105.862 7.4417 105.891 7.48015 105.891 7.51861V7.62437C105.891 7.66283 105.852 7.70129 105.804 7.70129H103.574C103.526 7.70129 103.497 7.66283 103.497 7.62437V7.49938Z" fill="var(--fill-0, white)"/>
<path id="Vector_2" d="M98.3724 5.29768V5.23038C98.3724 3.73052 99.2281 2.5287 100.795 2.5287C101.257 2.5287 101.824 2.70176 102.257 3.00943C102.68 3.32671 102.93 3.76897 102.93 4.23047C102.93 4.28816 102.93 4.34584 102.92 4.40353C102.862 5.01886 102.199 5.31691 101.449 5.43228C100.939 5.51881 100.536 5.52843 100.238 5.52843C100.084 5.52843 99.7569 5.51881 99.5165 5.5092C99.6415 6.20145 100.036 7.13405 101.218 7.13405C101.862 7.13405 102.564 6.65333 102.795 5.82648C102.805 5.77841 102.843 5.74956 102.891 5.73995L103.007 5.73033H103.026C103.064 5.73033 103.074 5.73995 103.074 5.77841V5.79764C102.891 7.05714 101.93 7.78784 100.67 7.78784C99.1896 7.78784 98.4013 6.72063 98.3724 5.29768ZM99.4685 4.82657V4.96117C99.4685 5.0477 99.4685 5.13423 99.4781 5.22076C100.084 5.18231 101.737 5.25922 101.891 4.27854C101.901 4.22086 101.911 4.16317 101.911 4.09587C101.911 3.91319 101.862 3.62476 101.67 3.33632C101.478 3.04789 101.18 2.8556 100.824 2.8556C99.9204 2.8556 99.5742 3.83628 99.4973 4.4516C99.4781 4.55736 99.4685 4.68235 99.4685 4.82657Z" fill="var(--fill-0, white)"/>
<path id="Vector_3" d="M92.4991 7.51861C92.4991 7.47054 92.5279 7.43208 92.576 7.43208C92.7875 7.40324 93.1529 7.47054 93.1529 6.72061V6.63408V5.6534C93.1529 4.75925 93.1529 3.57666 93.076 3.42283C92.999 3.25938 92.8644 3.25938 92.7202 3.25938C92.6721 3.25938 92.6433 3.23054 92.6337 3.18247V3.04786C92.6337 2.99979 92.6625 2.95172 92.701 2.9421L94.1143 2.49022H94.1335C94.1624 2.49022 94.1816 2.49984 94.1816 2.5383V3.45167C94.3739 3.05748 94.9412 2.52868 95.595 2.52868H95.6526C96.7872 2.52868 97.3256 3.24016 97.3256 4.26891V6.9129C97.3256 7.20133 97.4313 7.39362 97.8159 7.45131C97.864 7.45131 97.8928 7.48977 97.8928 7.52823V7.62437C97.8928 7.67245 97.864 7.70129 97.8159 7.70129H95.8834C95.8353 7.70129 95.8065 7.66283 95.8065 7.62437V7.51861C95.8065 7.47054 95.8353 7.4417 95.8834 7.4417C96.2199 7.42247 96.2968 7.1148 96.2968 6.88406C96.2968 6.85521 96.2872 6.74945 96.2872 6.59562V5.99952C96.2872 5.61494 96.2776 5.26882 96.2776 4.88424V4.28814C96.2776 3.61512 95.9795 2.96133 95.393 2.96133H95.3258C94.6335 3.03825 94.1816 4.04777 94.1816 4.49966V6.62446C94.1816 6.78791 94.172 7.14365 94.2393 7.28787C94.3258 7.4417 94.547 7.43208 94.6623 7.4417C94.7104 7.4417 94.7393 7.48015 94.7393 7.52823V7.62437C94.7393 7.67245 94.7008 7.70129 94.6623 7.70129H92.576C92.5279 7.70129 92.4991 7.67245 92.4991 7.62437V7.51861Z" fill="var(--fill-0, white)"/>
<path id="Vector_4" d="M87.6291 9.5665C87.456 9.38383 87.3695 9.15308 87.3598 8.88387C87.3598 8.72043 87.4175 8.54737 87.5425 8.44161C87.6579 8.32623 87.7925 8.307 87.8694 8.307C87.9271 8.307 87.9848 8.31662 88.0425 8.33585C88.3405 8.42238 88.3309 8.66274 88.3309 8.98002C88.3309 9.66265 89.1097 9.98954 89.677 9.98954H89.7442C90.2538 9.9607 90.6865 9.79725 90.9653 9.5665C91.2441 9.32614 91.3018 9.07616 91.3018 8.91272C91.3018 8.8358 91.2922 8.75889 91.2633 8.67235C91.1191 8.13394 90.1481 8.05703 89.2635 7.99934C88.3694 7.94165 87.5041 7.79743 87.4848 7.10519C87.4848 6.61485 87.6194 6.34564 88.1194 5.95145C87.581 5.59571 87.3695 5.07653 87.3695 4.43235C87.3695 3.09594 88.504 2.49022 89.6962 2.49022C89.9654 2.49022 90.2442 2.51907 90.5038 2.58637C90.6865 1.99988 91.1287 1.28841 91.7152 1.28841H91.7825C92.3594 1.35571 92.494 1.80759 92.494 1.96142C92.494 2.08641 92.4748 2.29793 92.1671 2.46138C92.0613 2.51907 91.9652 2.54791 91.8979 2.54791C91.8594 2.54791 91.7537 2.5383 91.6383 2.42292C91.5229 2.30755 91.4556 2.16333 91.273 2.13449C91.2633 2.12487 91.2441 2.12487 91.2345 2.12487C91.0807 2.12487 90.8788 2.48061 90.8211 2.68251C91.5999 2.98056 92.0325 3.57666 92.0325 4.43235C92.0325 5.76877 90.8788 6.37449 89.6962 6.37449C89.2828 6.37449 88.8597 6.30718 88.4847 6.14374C88.4559 6.13412 88.4367 6.13412 88.4175 6.13412C88.2348 6.13412 88.1098 6.30718 88.1098 6.48986C88.1098 6.72061 88.2252 6.9802 88.7636 7.02827C90.2346 7.18211 91.7441 7.08596 92.0614 8.25893C92.0902 8.36469 92.0998 8.46084 92.0998 8.5666C92.0998 8.86465 91.9748 9.28768 91.5614 9.67226C91.1383 10.0472 90.5134 10.3164 89.8308 10.3164C89.3789 10.3164 88.7636 10.2395 88.2636 10.0184C88.0136 9.90301 87.8021 9.74918 87.6291 9.5665ZM88.5232 3.91317C88.4944 4.09585 88.4751 4.26891 88.4751 4.43235C88.4751 5.07653 88.6963 6.02836 89.6866 6.02836C90.7153 6.02836 90.9461 5.09576 90.9461 4.43235C90.9461 3.76895 90.7153 2.83634 89.6866 2.83634C88.9559 2.83634 88.6193 3.37476 88.5232 3.91317Z" fill="var(--fill-0, white)"/>
<path id="Vector_5" d="M84.3825 7.5186C84.3825 7.49938 84.3825 7.48015 84.3921 7.47053C84.469 7.39362 84.7959 7.49938 84.9497 7.22055C85.0459 7.06672 85.0459 6.74944 85.0459 6.63407C85.0459 6.54754 85.0363 6.41294 85.0363 6.28795C85.0363 5.79761 85.0363 5.34573 85.0266 4.85539V3.93239C85.0266 3.73049 85.0074 3.56704 84.9786 3.49974C84.9113 3.34591 84.8536 3.33629 84.6997 3.33629H84.6132C84.5651 3.33629 84.5171 3.30745 84.5171 3.24015V3.10554C84.5171 3.03824 84.5651 2.99017 84.6132 2.98056L85.9689 2.57675H85.9977C86.0362 2.57675 86.065 2.59597 86.065 2.64405V6.28795C86.065 6.39371 86.0554 6.52831 86.0554 6.60523C86.0554 6.7206 86.065 7.00904 86.1419 7.19171C86.2958 7.49938 86.6515 7.40323 86.7092 7.48015C86.7188 7.48976 86.7188 7.51861 86.7188 7.55706V7.59552C86.7188 7.61475 86.7188 7.63398 86.7092 7.65321L86.6611 7.68205C86.6515 7.69167 86.6419 7.69167 86.6323 7.69167H84.469C84.4594 7.69167 84.4402 7.68205 84.4113 7.67244L84.3921 7.65321C84.3825 7.63398 84.3825 7.60514 84.3825 7.56668V7.5186ZM84.767 1.26917C84.767 0.894206 85.0459 0.576927 85.4305 0.576927C85.7862 0.576927 86.0842 0.913435 86.0842 1.26917C86.0842 1.63452 85.7862 1.96142 85.4305 1.96142C85.0459 1.96142 84.767 1.64414 84.767 1.26917Z" fill="var(--fill-0, white)"/>
<path id="Vector_6" d="M79.784 6.79755C79.7551 6.71102 79.7359 6.6341 79.7359 6.54757C79.7359 6.51873 79.7263 6.41297 79.8032 6.24952C79.9089 6.00916 80.0724 5.94186 80.2166 5.94186C80.3224 5.94186 80.4185 5.9707 80.5339 6.09569C80.63 6.18222 80.6781 6.2976 80.6781 6.4322C80.6781 6.44181 80.6685 6.47066 80.6685 6.50912C80.6685 6.74948 80.6685 7.04753 80.8992 7.27828C81.005 7.40327 81.2261 7.48018 81.553 7.52825C81.6203 7.53787 81.678 7.53787 81.7453 7.53787C82.0049 7.53787 82.6683 7.43211 82.8029 6.75909C82.8125 6.68218 82.8221 6.60526 82.8221 6.53796C82.8221 6.20145 82.6299 5.91302 82.2068 5.65342C81.9953 5.52844 81.7646 5.41306 81.505 5.3073C80.7358 5.01887 79.9474 4.70159 79.8513 4.0478C79.8416 3.97088 79.832 3.89397 79.832 3.81705C79.832 3.42286 80.0243 3.03828 80.3897 2.76907C80.755 2.49986 81.255 2.35565 81.678 2.34603H81.7934C82.1684 2.34603 82.6779 2.45179 83.101 2.70177C83.5144 2.95175 83.649 3.24018 83.649 3.46132C83.649 3.55746 83.6298 3.66322 83.5817 3.76898C83.5144 3.9132 83.3606 3.9805 83.2067 3.9805H83.1683C82.9856 3.97088 82.8318 3.85551 82.7933 3.69206C82.6395 3.06712 82.4953 2.66331 81.8415 2.66331H81.7838C81.2838 2.66331 80.6108 2.86522 80.6108 3.43247C80.6108 3.46131 80.6108 3.49977 80.6204 3.53823C80.6973 4.40354 83.6394 4.37469 83.7548 6.10531V6.23991C83.7548 6.74948 83.5529 7.1629 83.149 7.43211C82.7452 7.70131 82.178 7.8263 81.6299 7.8263C81.0819 7.8263 80.5531 7.6917 80.1205 7.31673C79.957 7.1629 79.832 6.98984 79.784 6.79755Z" fill="var(--fill-0, white)"/>
<path id="Vector_7" d="M74.4037 5.29768V5.23038C74.4037 3.73052 75.2594 2.5287 76.8266 2.5287C77.2881 2.5287 77.8553 2.70176 78.288 3.00943C78.711 3.32671 78.961 3.76897 78.961 4.23047C78.961 4.28816 78.961 4.34584 78.9514 4.40353C78.8937 5.01886 78.2303 5.31691 77.4804 5.43228C76.9708 5.51881 76.567 5.52843 76.2689 5.52843C76.1151 5.52843 75.7882 5.51881 75.5478 5.5092C75.6728 6.20145 76.067 7.13405 77.2496 7.13405C77.8938 7.13405 78.5956 6.65333 78.8264 5.82648C78.836 5.77841 78.8745 5.74956 78.9225 5.73995L79.0379 5.73033H79.0571C79.0956 5.73033 79.1052 5.73995 79.1052 5.77841V5.79764C78.9225 7.05714 77.9611 7.78784 76.7016 7.78784C75.2209 7.78784 74.4326 6.72063 74.4037 5.29768ZM75.4998 4.82657V4.96117C75.4998 5.0477 75.4998 5.13423 75.5094 5.22076C76.1151 5.18231 77.7688 5.25922 77.9226 4.27854C77.9322 4.22086 77.9419 4.16317 77.9419 4.09587C77.9419 3.91319 77.8938 3.62476 77.7015 3.33632C77.5092 3.04789 77.2111 2.8556 76.8554 2.8556C75.9516 2.8556 75.6055 3.83628 75.5286 4.4516C75.5094 4.55736 75.4998 4.68235 75.4998 4.82657Z" fill="var(--fill-0, white)"/>
<path id="Vector_8" d="M69.0726 6.1053C69.0053 5.7784 68.9669 5.43228 68.9669 5.05731C68.9669 3.81704 69.611 2.44217 71.0725 2.44217C71.4474 2.44217 72.0243 2.55754 72.38 2.99019C72.38 2.82675 72.3896 2.4614 72.3896 2.24026C72.3896 2.01913 72.38 1.67301 72.3704 1.28842C72.3608 1.10575 72.3512 0.98076 72.3223 0.932687C72.2358 0.750012 72.1204 0.769241 72.0339 0.769241H71.9666C71.9281 0.769241 71.8993 0.740397 71.8993 0.692325L71.8897 0.567336C71.8897 0.519264 71.9185 0.471191 71.957 0.461577L73.2838 0.00969456C73.303 7.95933e-05 73.3222 7.97571e-05 73.3319 7.97571e-05C73.3607 7.97571e-05 73.3992 0.00969456 73.3992 0.0769958C73.4088 0.307744 73.4184 0.826928 73.4184 1.44226V2.40371C73.4184 3.06711 73.4088 3.68244 73.4088 4.10548V4.52852C73.4088 4.97078 73.3607 6.91291 73.4857 7.19174C73.6011 7.45133 73.8703 7.44171 73.9953 7.45133C74.0433 7.45133 74.0722 7.48978 74.0722 7.53786V7.62439C74.0722 7.67246 74.0337 7.7013 73.9953 7.7013L72.505 7.69169C72.3512 7.69169 72.3608 7.37441 72.3608 7.33595C72.3608 7.23019 72.38 7.08598 72.38 7.0379C72.1685 7.33595 71.7262 7.69169 71.1494 7.72053H70.9955C69.9764 7.72053 69.2842 7.12443 69.0726 6.1053ZM70.111 5.33613V5.42267C70.111 6.53795 70.6206 7.39364 71.2263 7.39364C71.7935 7.39364 72.38 6.78793 72.38 5.70149V4.26892C72.3512 3.30747 71.8801 2.77867 71.2744 2.77867C70.8898 2.77867 70.1591 3.27863 70.111 4.89387V5.33613Z" fill="var(--fill-0, white)"/>
<path id="Vector_9" d="M63.1127 2.84598V2.6633C63.1127 2.62484 63.1512 2.58638 63.1896 2.58638H63.7761V1.73069C63.7761 1.69224 63.805 1.63455 63.8434 1.6057L64.7376 1.05768C64.7472 1.04806 64.7568 1.04806 64.7664 1.04806C64.776 1.04806 64.8049 1.05768 64.8049 1.09613V2.58638H65.8432C65.8817 2.58638 65.9202 2.62484 65.9202 2.6633V2.84598C65.9202 2.88443 65.8817 2.92289 65.8432 2.92289H64.8049V5.82648C64.8049 6.1726 64.7664 7.3648 65.2952 7.3648H65.3337C65.8721 7.33595 65.9779 6.61487 66.0259 6.22067C66.0259 6.1726 66.074 6.12452 66.1221 6.12452L66.2471 6.1053C66.2951 6.1053 66.3336 6.13414 66.3336 6.18221C66.2759 7.24942 65.8625 7.77822 65.0933 7.77822H64.9876C64.0934 7.74938 63.7761 7.10521 63.7761 6.03799V2.92289H63.1896C63.1512 2.92289 63.1127 2.88443 63.1127 2.84598Z" fill="var(--fill-0, white)"/>
<path id="Vector_10" d="M58.2963 6.08602C58.229 5.81681 58.1905 5.56683 58.1905 5.32647V5.26879C58.2194 3.66316 59.0558 2.50942 60.6134 2.50942C61.296 2.50942 62.469 2.98053 62.5748 3.9516C62.5844 3.99967 62.594 4.05736 62.594 4.10543C62.594 4.41309 62.2959 4.75922 61.9883 4.75922C61.969 4.75922 61.9498 4.75922 61.921 4.7496C61.546 4.70153 61.4306 4.49962 61.3826 4.21119V4.14389C61.3826 4.05736 61.4018 3.96121 61.4499 3.86507C61.4883 3.76892 61.546 3.67278 61.546 3.5574C61.546 3.24974 61.1326 2.86516 60.6422 2.83631H60.6038C60.0365 2.83631 59.3924 3.29781 59.2866 4.66307V4.82652C59.2866 5.45146 59.4116 6.05718 59.7385 6.50906C60.0654 6.96094 60.498 7.134 60.9307 7.134C60.998 7.134 61.0749 7.12439 61.1614 7.11477C61.8537 7.03786 62.3248 6.4706 62.5267 5.8072C62.5363 5.76874 62.5748 5.7399 62.6228 5.7399L62.7094 5.73028C62.7574 5.73028 62.7767 5.75913 62.7767 5.8072C62.594 7.07631 61.5364 7.77817 60.5269 7.77817C60.4692 7.77817 60.4115 7.77817 60.3538 7.76856C59.1904 7.7301 58.5367 6.92248 58.2963 6.08602Z" fill="var(--fill-0, white)"/>
<path id="Vector_11" d="M52.2467 3.24976L52.237 3.11515C52.237 3.06708 52.2755 3.00939 52.314 2.99978L53.6119 2.56713C53.6408 2.55751 53.66 2.5479 53.6696 2.5479C53.7081 2.5479 53.7658 2.56713 53.7658 2.67289L53.7561 4.23044C53.7561 4.85538 53.7658 5.35534 53.7658 5.97066C53.7658 6.26871 53.8619 7.26862 54.6503 7.26862C55.381 7.26862 55.7079 6.46101 55.7848 5.99951C55.7848 5.42264 55.804 4.98037 55.8136 4.39388C55.8425 3.98046 55.8425 3.30744 55.4964 3.30744C55.4868 3.30744 55.4483 3.30744 55.4002 3.31706H55.381C55.3425 3.31706 55.3233 3.29783 55.3233 3.24976L55.3137 3.11515C55.3137 3.06708 55.3425 3.01901 55.381 3.00939L56.7078 2.55751C56.727 2.5479 56.7463 2.5479 56.7559 2.5479C56.8039 2.5479 56.8616 2.56713 56.8616 2.67289L56.852 3.65357V4.37466C56.852 5.0669 56.8136 5.80722 56.8136 6.49946C56.8136 6.6533 56.8039 7.16286 57.102 7.16286C57.4 7.16286 57.4 6.67252 57.4 6.41293C57.4 6.36486 57.4289 6.34563 57.4673 6.34563H57.4866H57.5827C57.6212 6.35525 57.65 6.37447 57.65 6.41293V6.43216C57.6212 7.23017 57.3424 7.70128 56.6982 7.70128C56.1982 7.70128 55.9002 7.42246 55.8233 6.83597C55.5637 7.43207 54.9099 7.69166 54.3138 7.69166C53.3523 7.69166 52.7178 7.07633 52.7178 5.96105L52.7274 3.63434C52.7274 3.35552 52.5159 3.32667 52.3236 3.32667C52.2755 3.32667 52.2467 3.28822 52.2467 3.24976Z" fill="var(--fill-0, white)"/>
<path id="Vector_12" d="M47.0193 6.1053C46.952 5.7784 46.9136 5.43228 46.9136 5.05731C46.9136 3.81704 47.5577 2.44217 49.0191 2.44217C49.3941 2.44217 49.971 2.55754 50.3267 2.99019C50.3267 2.82675 50.3363 2.4614 50.3363 2.24026C50.3363 2.01913 50.3267 1.67301 50.3171 1.28842C50.3075 1.10575 50.2979 0.98076 50.269 0.932687C50.1825 0.750012 50.0671 0.769241 49.9806 0.769241H49.9133C49.8748 0.769241 49.846 0.740397 49.846 0.692325L49.8364 0.567336C49.8364 0.519264 49.8652 0.471191 49.9037 0.461577L51.2305 0.00969456C51.2497 7.95933e-05 51.2689 7.97571e-05 51.2785 7.97571e-05C51.3074 7.97571e-05 51.3458 0.00969456 51.3458 0.0769958C51.3555 0.307744 51.3651 0.826928 51.3651 1.44226V2.40371C51.3651 3.06711 51.3555 3.68244 51.3555 4.10548V4.52852C51.3555 4.97078 51.3074 6.91291 51.4324 7.19174C51.5478 7.45133 51.817 7.44171 51.9419 7.45133C51.99 7.45133 52.0189 7.48978 52.0189 7.53786V7.62439C52.0189 7.67246 51.9804 7.7013 51.9419 7.7013L50.4517 7.69169C50.2979 7.69169 50.3075 7.37441 50.3075 7.33595C50.3075 7.23019 50.3267 7.08598 50.3267 7.0379C50.1152 7.33595 49.6729 7.69169 49.0961 7.72053H48.9422C47.9231 7.72053 47.2308 7.12443 47.0193 6.1053ZM48.0577 5.33613V5.42267C48.0577 6.53795 48.5673 7.39364 49.173 7.39364C49.7402 7.39364 50.3267 6.78793 50.3267 5.70149V4.26892C50.2979 3.30747 49.8268 2.77867 49.221 2.77867C48.8365 2.77867 48.1058 3.27863 48.0577 4.89387V5.33613Z" fill="var(--fill-0, white)"/>
<path id="Vector_13" d="M41.1127 5.13424C41.1127 3.68245 42.0453 2.49986 43.5933 2.49986C45.1316 2.49986 46.0834 3.68245 46.0834 5.13424C46.0834 6.58603 45.1508 7.78784 43.5933 7.78784C42.0261 7.78784 41.1127 6.58603 41.1127 5.13424ZM42.2472 5.13424C42.2472 6.10531 42.4972 7.51864 43.5837 7.51864C44.7086 7.51864 44.9681 6.08608 44.9681 5.13424C44.9681 4.13433 44.6701 2.76907 43.5548 2.76907C42.4684 2.76907 42.2472 4.15356 42.2472 5.13424Z" fill="var(--fill-0, white)"/>
<path id="Vector_14" d="M36.2475 7.49938C36.2475 7.45131 36.2764 7.42247 36.3245 7.42247C36.5456 7.45131 36.9109 7.45131 36.9109 6.72061V6.63408V4.94192C36.9109 4.21122 36.8917 3.51898 36.834 3.41322C36.7571 3.24977 36.6321 3.24977 36.4879 3.24977C36.4398 3.24977 36.4014 3.22093 36.4014 3.17285V3.02864C36.4014 2.99018 36.4302 2.93249 36.4783 2.92288L37.7955 2.50945C37.8147 2.49984 37.8339 2.49022 37.8532 2.49022C37.882 2.49022 37.9301 2.51907 37.9301 2.59598L37.9397 3.32669C38.0935 3.06709 38.3916 2.73059 38.9877 2.62483C39.0742 2.6056 39.1704 2.59598 39.2569 2.59598C39.4588 2.59598 39.7472 2.65367 40.0164 2.84596C40.276 3.04786 40.4395 3.35553 40.4779 3.67281C40.4875 3.74011 40.4875 3.7978 40.4875 3.85548C40.4875 4.24968 40.2376 4.49966 40.0549 4.5285C39.9587 4.53811 39.8914 4.54773 39.853 4.54773C39.6318 4.54773 39.353 4.44197 39.3146 4.24968V4.19199C39.3146 4.05739 39.3915 3.94201 39.4972 3.74011C39.5261 3.68242 39.5357 3.61512 39.5357 3.52859C39.5357 3.51898 39.5549 3.39399 39.4588 3.23054C39.3626 3.06709 39.1896 3.00941 39.0454 3.00941C38.9781 3.00941 38.9011 3.01902 38.8146 3.03825C38.2377 3.14401 37.9397 4.01893 37.9397 4.16315L37.9301 6.64369C37.9301 7.07635 37.9974 7.41285 38.5646 7.4417C38.6127 7.4417 38.6416 7.48015 38.6416 7.51861V7.62437C38.6416 7.66283 38.6031 7.70129 38.555 7.70129H36.3245C36.2764 7.70129 36.2475 7.66283 36.2475 7.62437V7.49938Z" fill="var(--fill-0, white)"/>
<path id="Vector_15" d="M30.5095 10.1914V10.1241C30.5095 10.0761 30.5383 10.0376 30.5864 10.0376C30.7114 10.028 30.971 10.0088 31.096 9.7684C31.1633 9.61457 31.1633 9.47997 31.1633 9.31652C31.1633 7.8455 31.1825 6.62446 31.1825 5.27843V3.87471C31.1825 3.69203 31.1921 3.54781 31.1921 3.51897C31.1921 3.19208 31.0768 2.83634 30.6249 2.83634H30.5864C30.548 2.83634 30.5095 2.8075 30.5095 2.76904V2.60559C30.5095 2.56713 30.5383 2.52868 30.5864 2.52868H32.0959C32.2497 2.52868 32.2593 2.81711 32.2593 2.95171C32.2593 2.99017 32.2497 3.10555 32.2497 3.17285C32.5478 2.79788 32.9131 2.5479 33.49 2.51906H33.6246C34.2784 2.51906 34.7976 2.78827 35.1437 3.28822C35.4898 3.78818 35.634 4.44196 35.634 5.09575V5.17267C35.6052 6.6533 34.8937 7.78781 33.49 7.78781C32.9131 7.78781 32.4997 7.61475 32.2209 7.29747V9.31652C32.2209 10.0568 32.6055 9.97992 32.7978 10.0088C32.8458 10.0088 32.8747 10.0472 32.8747 10.0953V10.1914C32.8747 10.2395 32.8362 10.2684 32.7978 10.2684H30.5864C30.5383 10.2684 30.5095 10.2395 30.5095 10.1914ZM32.2786 3.82663C32.2401 3.97085 32.2209 4.11507 32.2209 4.25929V4.32659V6.21103C32.2497 6.97058 32.817 7.45131 33.3169 7.45131C34.0188 7.45131 34.4899 6.54754 34.4899 5.30727L34.4803 5.00922C34.4514 3.71126 34.1534 2.86518 33.3362 2.86518H33.2592C32.7593 2.92287 32.4324 3.31707 32.2786 3.82663Z" fill="var(--fill-0, white)"/>
<path id="Vector_16" d="M25.7015 7.50896C25.7015 7.4705 25.7399 7.43204 25.7784 7.43204H25.8361C25.9515 7.43204 26.1341 7.44165 26.2591 7.22052C26.3553 7.06669 26.3553 6.74941 26.3553 6.63404C26.3553 6.54751 26.3457 6.4129 26.3457 6.28791C26.3457 4.59576 26.336 2.93245 26.336 1.23068C26.336 1.12492 26.3264 1.02878 26.288 0.942244C26.2111 0.778798 26.0765 0.769183 25.9322 0.769183C25.8842 0.769183 25.8457 0.730725 25.8457 0.692267V0.567278C25.8457 0.519206 25.8745 0.480747 25.913 0.451904C26.0957 0.394217 26.586 0.249999 26.6533 0.23077L27.2302 0.0288655C27.259 0.0192511 27.2783 0.00963659 27.2879 0.00963659C27.3263 0.00963659 27.3744 0.0384799 27.3744 0.125011L27.3648 4.52846C27.3648 4.97073 27.3167 6.91286 27.4417 7.19168C27.5571 7.43204 27.7686 7.43204 27.8936 7.43204H27.9417C27.9897 7.43204 28.0186 7.4705 28.0186 7.51857V7.62433C28.0186 7.66279 27.9897 7.70125 27.9417 7.70125H25.788C25.7399 7.70125 25.7015 7.66279 25.7015 7.62433V7.50896Z" fill="var(--fill-0, white)"/>
<path id="Vector_17" d="M20.5749 6.91288C20.5365 6.7975 20.5172 6.67251 20.5172 6.54753C20.5172 6.48984 20.5172 6.43215 20.5269 6.36485C20.7191 4.83614 22.719 5.56685 23.4112 4.1439C23.4593 4.03814 23.4689 4.01891 23.4689 3.90354C23.4689 3.5478 23.5266 2.73056 22.6805 2.73056C22.642 2.73056 22.6036 2.73056 22.5555 2.74018C22.219 2.76902 21.6518 2.99977 21.6518 3.49011C21.6518 3.75932 21.8344 3.817 21.8633 4.08621C21.8729 4.11505 21.8729 4.13428 21.8729 4.16313C21.8729 4.3458 21.7094 4.59578 21.3922 4.70154C21.3249 4.72077 21.2576 4.73038 21.1903 4.73038C21.1133 4.73038 20.9691 4.72077 20.8537 4.59578C20.7288 4.47079 20.6615 4.25927 20.6615 4.01891C20.6615 2.84594 21.8344 2.45174 22.6997 2.45174H22.7766C24.0073 2.48059 24.5169 3.13437 24.5169 4.30734C24.5169 5.03805 24.4784 5.75914 24.4784 6.48984C24.4784 6.6629 24.4976 6.96095 24.6996 6.96095H24.7284C25.0457 6.96095 25.0745 6.57637 25.0745 6.32639C25.0745 6.27832 25.1034 6.24948 25.1514 6.24948L25.2572 6.25909C25.3053 6.25909 25.3341 6.29755 25.3341 6.34562C25.3053 7.14363 24.9976 7.66281 24.3054 7.70127H24.2573C23.7766 7.70127 23.5266 7.28784 23.4977 6.92249C23.1516 7.34553 22.5363 7.73011 21.8921 7.73011H21.7575C21.1999 7.73011 20.7288 7.38399 20.5749 6.91288ZM21.5364 6.39369V6.47061C21.5364 6.7302 21.6614 6.94172 21.8729 7.07632C22.0844 7.21093 22.2575 7.22054 22.3632 7.22054C22.4305 7.22054 22.4882 7.21093 22.5555 7.20131C22.9689 7.09555 23.2189 6.82635 23.44 6.5956C23.44 6.40331 23.4497 6.17256 23.4497 5.98988C23.4497 5.45147 23.4785 5.02843 23.5074 4.49002C23.1228 5.32648 21.6133 5.46109 21.5364 6.39369Z" fill="var(--fill-0, white)"/>
<path id="Vector_18" d="M16.6025 2.84598V2.6633C16.6025 2.62484 16.6409 2.58638 16.6794 2.58638H17.2659V1.73069C17.2659 1.69224 17.2947 1.63455 17.3332 1.6057L18.2273 1.05768C18.2369 1.04806 18.2465 1.04806 18.2562 1.04806C18.2658 1.04806 18.2946 1.05768 18.2946 1.09613V2.58638H19.333C19.3714 2.58638 19.4099 2.62484 19.4099 2.6633V2.84598C19.4099 2.88443 19.3714 2.92289 19.333 2.92289H18.2946V5.82648C18.2946 6.1726 18.2562 7.3648 18.785 7.3648H18.8234C19.3618 7.33595 19.4676 6.61487 19.5157 6.22067C19.5157 6.1726 19.5637 6.12452 19.6118 6.12452L19.7368 6.1053C19.7849 6.1053 19.8233 6.13414 19.8233 6.18221C19.7656 7.24942 19.3522 7.77822 18.583 7.77822H18.4773C17.5831 7.74938 17.2659 7.10521 17.2659 6.03799V2.92289H16.6794C16.6409 2.92289 16.6025 2.88443 16.6025 2.84598Z" fill="var(--fill-0, white)"/>
<path id="Vector_19" d="M13.8665 7.5186C13.8665 7.49938 13.8665 7.48015 13.8761 7.47053C13.953 7.39362 14.2799 7.49938 14.4338 7.22055C14.5299 7.06672 14.5299 6.74944 14.5299 6.63407C14.5299 6.54754 14.5203 6.41294 14.5203 6.28795C14.5203 5.79761 14.5203 5.34573 14.5107 4.85539V3.93239C14.5107 3.73049 14.4915 3.56704 14.4626 3.49974C14.3953 3.34591 14.3376 3.33629 14.1838 3.33629H14.0973C14.0492 3.33629 14.0011 3.30745 14.0011 3.24015V3.10554C14.0011 3.03824 14.0492 2.99017 14.0973 2.98056L15.4529 2.57675H15.4818C15.5202 2.57675 15.5491 2.59597 15.5491 2.64405V6.28795C15.5491 6.39371 15.5394 6.52831 15.5394 6.60523C15.5394 6.7206 15.5491 7.00904 15.626 7.19171C15.7798 7.49938 16.1355 7.40323 16.1932 7.48015C16.2028 7.48976 16.2028 7.51861 16.2028 7.55706V7.59552C16.2028 7.61475 16.2028 7.63398 16.1932 7.65321L16.1452 7.68205C16.1355 7.69167 16.1259 7.69167 16.1163 7.69167H13.9531C13.9434 7.69167 13.9242 7.68205 13.8954 7.67244L13.8761 7.65321C13.8665 7.63398 13.8665 7.60514 13.8665 7.56668V7.5186ZM14.2511 1.26917C14.2511 0.894206 14.5299 0.576927 14.9145 0.576927C15.2702 0.576927 15.5683 0.913435 15.5683 1.26917C15.5683 1.63452 15.2702 1.96142 14.9145 1.96142C14.5299 1.96142 14.2511 1.64414 14.2511 1.26917Z" fill="var(--fill-0, white)"/>
<path id="Vector_20" d="M8.81374 9.5665C8.64068 9.38383 8.55415 9.15308 8.54454 8.88387C8.54454 8.72043 8.60222 8.54737 8.72721 8.44161C8.84259 8.32623 8.97719 8.307 9.05411 8.307C9.11179 8.307 9.16948 8.31662 9.22717 8.33585C9.52522 8.42238 9.5156 8.66274 9.5156 8.98002C9.5156 9.66265 10.2944 9.98954 10.8616 9.98954H10.9289C11.4385 9.9607 11.8712 9.79725 12.15 9.5665C12.4288 9.32614 12.4865 9.07616 12.4865 8.91272C12.4865 8.8358 12.4769 8.75889 12.448 8.67235C12.3038 8.13394 11.3327 8.05703 10.4482 7.99934C9.55406 7.94165 8.68875 7.79743 8.66952 7.10519C8.66952 6.61485 8.80413 6.34564 9.30408 5.95145C8.76567 5.59571 8.55415 5.07653 8.55415 4.43235C8.55415 3.09594 9.68866 2.49022 10.8809 2.49022C11.1501 2.49022 11.4289 2.51907 11.6885 2.58637C11.8712 1.99988 12.3134 1.28841 12.8999 1.28841H12.9672C13.5441 1.35571 13.6787 1.80759 13.6787 1.96142C13.6787 2.08641 13.6595 2.29793 13.3518 2.46138C13.246 2.51907 13.1499 2.54791 13.0826 2.54791C13.0441 2.54791 12.9384 2.5383 12.823 2.42292C12.7076 2.30755 12.6403 2.16333 12.4576 2.13449C12.448 2.12487 12.4288 2.12487 12.4192 2.12487C12.2654 2.12487 12.0634 2.48061 12.0058 2.68251C12.7845 2.98056 13.2172 3.57666 13.2172 4.43235C13.2172 5.76877 12.0634 6.37449 10.8809 6.37449C10.4674 6.37449 10.0444 6.30718 9.66943 6.14374C9.64059 6.13412 9.62136 6.13412 9.60213 6.13412C9.41946 6.13412 9.29447 6.30718 9.29447 6.48986C9.29447 6.72061 9.40984 6.9802 9.94825 7.02827C11.4193 7.18211 12.9288 7.08596 13.246 8.25893C13.2749 8.36469 13.2845 8.46084 13.2845 8.5666C13.2845 8.86465 13.1595 9.28768 12.7461 9.67226C12.323 10.0472 11.6981 10.3164 11.0155 10.3164C10.5636 10.3164 9.94825 10.2395 9.4483 10.0184C9.19832 9.90301 8.9868 9.74918 8.81374 9.5665ZM9.70789 3.91317C9.67905 4.09585 9.65982 4.26891 9.65982 4.43235C9.65982 5.07653 9.88095 6.02836 10.8712 6.02836C11.9 6.02836 12.1307 5.09576 12.1307 4.43235C12.1307 3.76895 11.9 2.83634 10.8712 2.83634C10.1405 2.83634 9.80404 3.37476 9.70789 3.91317Z" fill="var(--fill-0, white)"/>
<path id="Vector_21" d="M5.56716 7.5186C5.56716 7.49938 5.56716 7.48015 5.57678 7.47053C5.65369 7.39362 5.98059 7.49938 6.13442 7.22055C6.23056 7.06672 6.23056 6.74944 6.23056 6.63407C6.23056 6.54754 6.22095 6.41294 6.22095 6.28795C6.22095 5.79761 6.22095 5.34573 6.21133 4.85539V3.93239C6.21133 3.73049 6.1921 3.56704 6.16326 3.49974C6.09596 3.34591 6.03827 3.33629 5.88444 3.33629H5.79791C5.74984 3.33629 5.70176 3.30745 5.70176 3.24015V3.10554C5.70176 3.03824 5.74984 2.99017 5.79791 2.98056L7.15356 2.57675H7.1824C7.22086 2.57675 7.2497 2.59597 7.2497 2.64405V6.28795C7.2497 6.39371 7.24009 6.52831 7.24009 6.60523C7.24009 6.7206 7.2497 7.00904 7.32662 7.19171C7.48045 7.49938 7.83619 7.40323 7.89387 7.48015C7.90349 7.48976 7.90349 7.51861 7.90349 7.55706V7.59552C7.90349 7.61475 7.90349 7.63398 7.89387 7.65321L7.8458 7.68205C7.83619 7.69167 7.82657 7.69167 7.81696 7.69167H5.65369C5.64408 7.69167 5.62485 7.68205 5.596 7.67244L5.57678 7.65321C5.56716 7.63398 5.56716 7.60514 5.56716 7.56668V7.5186ZM5.95174 1.26917C5.95174 0.894206 6.23056 0.576927 6.61514 0.576927C6.97088 0.576927 7.26893 0.913435 7.26893 1.26917C7.26893 1.63452 6.97088 1.96142 6.61514 1.96142C6.23056 1.96142 5.95174 1.64414 5.95174 1.26917Z" fill="var(--fill-0, white)"/>
<path id="Vector_22" d="M0.10576 6.10522C0.038458 5.77832 0 5.4322 0 5.05723C0 3.81696 0.644172 2.44209 2.10558 2.44209C2.48054 2.44209 3.05742 2.55746 3.41315 2.99011C3.41315 2.82667 3.42277 2.46132 3.42277 2.24018C3.42277 2.01905 3.41315 1.67293 3.40354 1.28834C3.39392 1.10567 3.38431 0.98068 3.35546 0.932608C3.26893 0.749932 3.15356 0.769161 3.06703 0.769161H2.99973C2.96127 0.769161 2.93243 0.740318 2.93243 0.692245L2.92281 0.567256C2.92281 0.519184 2.95166 0.471111 2.99011 0.461497L4.31692 0.0096148C4.33615 -1.63734e-07 4.35537 0 4.36499 0C4.39383 0 4.43229 0.0096148 4.43229 0.0769161C4.4419 0.307664 4.45152 0.826848 4.45152 1.44218V2.40363C4.45152 3.06703 4.44191 3.68236 4.44191 4.1054V4.52844C4.44191 4.9707 4.39383 6.91283 4.51882 7.19166C4.6342 7.45125 4.9034 7.44163 5.02839 7.45125C5.07646 7.45125 5.10531 7.48971 5.10531 7.53778V7.62431C5.10531 7.67238 5.06685 7.70122 5.02839 7.70122L3.53814 7.69161C3.38431 7.69161 3.39392 7.37433 3.39392 7.33587C3.39392 7.23011 3.41315 7.0859 3.41315 7.03782C3.20163 7.33587 2.75937 7.69161 2.18249 7.72045H2.02866C1.00952 7.72045 0.317279 7.12435 0.10576 6.10522ZM1.14413 5.33605V5.42259C1.14413 6.53787 1.6537 7.39356 2.25941 7.39356C2.82667 7.39356 3.41315 6.78785 3.41315 5.70141V4.26884C3.38431 3.30739 2.9132 2.77859 2.30748 2.77859C1.9229 2.77859 1.1922 3.27855 1.14413 4.89379V5.33605Z" fill="var(--fill-0, white)"/>
</g>
</svg>
