<svg preserveAspectRatio="none" width="100%" height="100%" overflow="visible" style="display: block;" viewBox="0 0 39.7139 10.6996" fill="none" xmlns="http://www.w3.org/2000/svg">
<g id="Group 1000003332">
<path id="Vector" d="M32.0085 10.2601C32.0085 10.1914 32.0497 10.1365 32.1184 10.1365C32.4206 10.0952 32.9425 10.1914 32.9425 9.12006V8.99645V7.59547C32.9425 6.31812 32.9425 4.62871 32.8326 4.40895C32.7227 4.17546 32.5305 4.17546 32.3244 4.17546C32.2558 4.17546 32.2146 4.13425 32.2008 4.06558V3.87329C32.2008 3.80461 32.242 3.73594 32.297 3.7222L34.316 3.07666H34.3435C34.3847 3.07666 34.4122 3.09039 34.4122 3.14533V4.45016C34.6869 3.88702 35.4972 3.13159 36.4312 3.13159H36.5136C38.1343 3.13159 38.9035 4.14799 38.9035 5.61763V9.39476C38.9035 9.80681 39.0546 10.0815 39.604 10.1639C39.6727 10.1639 39.7139 10.2189 39.7139 10.2738V10.4112C39.7139 10.4798 39.6727 10.521 39.604 10.521H36.8433C36.7746 10.521 36.7334 10.4661 36.7334 10.4112V10.2601C36.7334 10.1914 36.7746 10.1502 36.8433 10.1502C37.324 10.1227 37.4339 9.6832 37.4339 9.35356C37.4339 9.31235 37.4201 9.16127 37.4201 8.94151V8.08994C37.4201 7.54054 37.4064 7.04607 37.4064 6.49667V5.6451C37.4064 4.68365 36.9806 3.74967 36.1428 3.74967H36.0466C35.0577 3.85955 34.4122 5.30173 34.4122 5.94727V8.98271C34.4122 9.21621 34.3984 9.7244 34.4946 9.93043C34.6182 10.1502 34.9341 10.1365 35.0989 10.1502C35.1676 10.1502 35.2088 10.2051 35.2088 10.2738V10.4112C35.2088 10.4798 35.1538 10.521 35.0989 10.521H32.1184C32.0497 10.521 32.0085 10.4798 32.0085 10.4112V10.2601Z" fill="var(--fill-0, white)"/>
<path id="Vector_2" d="M24.7261 9.39471C24.6712 9.22989 24.6437 9.05133 24.6437 8.87278C24.6437 8.79037 24.6437 8.70796 24.6575 8.61181C24.9322 6.42795 27.789 7.4718 28.778 5.43902C28.8466 5.28794 28.8604 5.26047 28.8604 5.09565C28.8604 4.58745 28.9428 3.41998 27.7341 3.41998C27.6792 3.41998 27.6242 3.41998 27.5556 3.43371C27.0748 3.47492 26.2645 3.80455 26.2645 4.50504C26.2645 4.88962 26.5254 4.97203 26.5666 5.35661C26.5804 5.39782 26.5804 5.42529 26.5804 5.46649C26.5804 5.72746 26.3469 6.08457 25.8936 6.23565C25.7975 6.26312 25.7013 6.27686 25.6052 6.27686C25.4953 6.27686 25.2893 6.26313 25.1245 6.08457C24.9459 5.90601 24.8498 5.60384 24.8498 5.26047C24.8498 3.5848 26.5254 3.02166 27.7616 3.02166H27.8715C29.6295 3.06287 30.3575 3.99685 30.3575 5.67252C30.3575 6.71638 30.3026 7.74651 30.3026 8.79037C30.3026 9.0376 30.33 9.46338 30.6185 9.46338H30.6597C31.1129 9.46338 31.1541 8.91398 31.1541 8.55687C31.1541 8.4882 31.1953 8.44699 31.264 8.44699L31.4151 8.46073C31.4838 8.46073 31.525 8.51567 31.525 8.58434C31.4838 9.72435 31.0442 10.466 30.0553 10.521H29.9867C29.2999 10.521 28.9428 9.93037 28.9016 9.40844C28.4071 10.0128 27.5281 10.5622 26.6078 10.5622H26.4155C25.6189 10.5622 24.9459 10.0677 24.7261 9.39471ZM26.0996 8.65302V8.7629C26.0996 9.13374 26.2782 9.43591 26.5804 9.6282C26.8825 9.82049 27.1298 9.83423 27.2808 9.83423C27.377 9.83423 27.4594 9.82049 27.5556 9.80676C28.1462 9.65567 28.5033 9.27109 28.8192 8.94145C28.8192 8.66675 28.8329 8.33711 28.8329 8.07615C28.8329 7.30698 28.8741 6.70264 28.9153 5.93348C28.3659 7.12843 26.2095 7.32072 26.0996 8.65302Z" fill="var(--fill-0, white)"/>
<path id="Vector_3" d="M17.7467 9.22991C17.7055 9.10629 17.678 8.99641 17.678 8.8728C17.678 8.83159 17.6643 8.68051 17.7742 8.44701C17.9252 8.10364 18.1587 8.00749 18.3648 8.00749C18.5158 8.00749 18.6532 8.0487 18.818 8.22725C18.9554 8.35087 19.024 8.51569 19.024 8.70798C19.024 8.72171 19.0103 8.76292 19.0103 8.81786C19.0103 9.16123 19.0103 9.58702 19.3399 9.91666C19.491 10.0952 19.8069 10.2051 20.2739 10.2738C20.3701 10.2875 20.4525 10.2875 20.5486 10.2875C20.9195 10.2875 21.8672 10.1364 22.0595 9.17497C22.0732 9.06509 22.087 8.95521 22.087 8.85906C22.087 8.37834 21.8123 7.96629 21.2079 7.59544C20.9057 7.41689 20.5761 7.25207 20.2053 7.10098C19.1065 6.68893 17.9802 6.23567 17.8428 5.30169C17.8291 5.19181 17.8154 5.08193 17.8154 4.97205C17.8154 4.40892 18.0901 3.85952 18.612 3.47494C19.1339 3.09035 19.8481 2.88433 20.4525 2.8706H20.6173C21.153 2.8706 21.8809 3.02168 22.4853 3.37879C23.0759 3.7359 23.2682 4.14795 23.2682 4.46386C23.2682 4.60121 23.2407 4.75229 23.172 4.90338C23.0759 5.1094 22.8561 5.20555 22.6364 5.20555H22.5814C22.3204 5.19181 22.1007 5.02699 22.0457 4.7935C21.826 3.90072 21.62 3.32385 20.686 3.32385H20.6036C19.8894 3.32385 18.9279 3.61229 18.9279 4.42265C18.9279 4.46386 18.9279 4.5188 18.9416 4.57374C19.0515 5.80989 23.2544 5.76868 23.4193 8.24099V8.43328C23.4193 9.16123 23.1308 9.75184 22.5539 10.1364C21.9771 10.521 21.1667 10.6996 20.3838 10.6996C19.6009 10.6996 18.8455 10.5073 18.2274 9.9716C17.9939 9.75184 17.8154 9.50461 17.7467 9.22991Z" fill="var(--fill-0, white)"/>
<path id="Vector_4" d="M9.97273 9.39471C9.91779 9.22989 9.89032 9.05133 9.89032 8.87278C9.89032 8.79037 9.89032 8.70796 9.90405 8.61181C10.1788 6.42795 13.0356 7.4718 14.0246 5.43902C14.0932 5.28794 14.107 5.26047 14.107 5.09565C14.107 4.58745 14.1894 3.41998 12.9807 3.41998C12.9258 3.41998 12.8708 3.41998 12.8021 3.43371C12.3214 3.47492 11.5111 3.80455 11.5111 4.50504C11.5111 4.88962 11.772 4.97203 11.8132 5.35661C11.827 5.39782 11.827 5.42529 11.827 5.46649C11.827 5.72746 11.5935 6.08457 11.1402 6.23565C11.0441 6.26312 10.9479 6.27686 10.8518 6.27686C10.7419 6.27686 10.5359 6.26313 10.371 6.08457C10.1925 5.90601 10.0963 5.60384 10.0963 5.26047C10.0963 3.5848 11.772 3.02166 13.0082 3.02166H13.118C14.8761 3.06287 15.6041 3.99685 15.6041 5.67252C15.6041 6.71638 15.5491 7.74651 15.5491 8.79037C15.5491 9.0376 15.5766 9.46338 15.8651 9.46338H15.9063C16.3595 9.46338 16.4007 8.91398 16.4007 8.55687C16.4007 8.4882 16.4419 8.44699 16.5106 8.44699L16.6617 8.46073C16.7304 8.46073 16.7716 8.51567 16.7716 8.58434C16.7304 9.72435 16.2908 10.466 15.3019 10.521H15.2332C14.5465 10.521 14.1894 9.93037 14.1482 9.40844C13.6537 10.0128 12.7747 10.5622 11.8544 10.5622H11.6621C10.8655 10.5622 10.1925 10.0677 9.97273 9.39471ZM11.3462 8.65302V8.7629C11.3462 9.13374 11.5248 9.43591 11.827 9.6282C12.1291 9.82049 12.3764 9.83423 12.5274 9.83423C12.6236 9.83423 12.706 9.82049 12.8021 9.80676C13.3927 9.65567 13.7499 9.27109 14.0658 8.94145C14.0658 8.66675 14.0795 8.33711 14.0795 8.07615C14.0795 7.30698 14.1207 6.70264 14.1619 5.93348C13.6125 7.12843 11.4561 7.32072 11.3462 8.65302Z" fill="var(--fill-0, white)"/>
<path id="Vector_5" d="M0 0.123614C0 0.054939 0.0412051 0 0.10988 0H2.99423C3.04917 0 3.10411 0.041205 3.10411 0.10988V0.219759C3.10411 0.274699 3.07664 0.32964 3.0217 0.32964C2.78821 0.41205 2.29375 0.315905 2.29375 1.18121V4.75231H6.44172V1.18121C6.44172 0.343374 5.93353 0.384579 5.70003 0.343374C5.65883 0.329639 5.63136 0.274699 5.63136 0.219759V0.123614C5.63136 0.054939 5.67256 0 5.74124 0H8.63933C8.69427 0 8.74921 0.041205 8.74921 0.10988V0.219759C8.74921 0.274699 8.72174 0.32964 8.6668 0.32964C8.4333 0.41205 7.93884 0.315905 7.93884 1.18121V9.33981C7.93884 10.1639 8.3921 10.1502 8.65306 10.1914C8.72174 10.1914 8.76294 10.2601 8.76294 10.3287V10.3837C8.76294 10.4798 8.72174 10.521 8.62559 10.521H5.7275C5.67256 10.521 5.63136 10.4798 5.63136 10.4249V10.2875C5.63136 10.2326 5.67256 10.1776 5.7275 10.1776C5.961 10.1502 6.44172 10.1776 6.44172 9.33981V5.32919H2.29375V9.33981C2.29375 10.1639 2.747 10.1502 3.00797 10.1914C3.07664 10.1914 3.11785 10.2601 3.11785 10.3287V10.3837C3.11785 10.4798 3.07664 10.521 2.9805 10.521H0.0961452C0.0412051 10.521 0 10.4798 0 10.4249V10.2875C0 10.2326 0.0412051 10.1776 0.0961452 10.1776C0.32964 10.1502 0.810366 10.1776 0.810366 9.33981V1.18121C0.810366 0.343374 0.30217 0.384579 0.0686751 0.343374C0.02747 0.329639 0 0.274699 0 0.219759V0.123614Z" fill="var(--fill-0, white)"/>
</g>
</svg>
