<svg preserveAspectRatio="none" width="100%" height="100%" overflow="visible" style="display: block;" viewBox="0 0 36.9437 11.0704" fill="none" xmlns="http://www.w3.org/2000/svg">
<g id="Group 1000003331">
<path id="Vector" d="M32.3425 4.02436V3.76339C32.3425 3.70845 32.3975 3.65351 32.4524 3.65351H33.2902V2.43109C33.2902 2.37616 33.3314 2.29374 33.3864 2.25254L34.6637 1.46964C34.6775 1.45591 34.6912 1.45591 34.7049 1.45591C34.7187 1.45591 34.7599 1.46964 34.7599 1.52458V3.65351H36.2433C36.2982 3.65351 36.3531 3.70845 36.3531 3.76339V4.02436C36.3531 4.0793 36.2982 4.13424 36.2433 4.13424H34.7599V8.28221C34.7599 8.77667 34.7049 10.4798 35.4604 10.4798H35.5153C36.2845 10.4386 36.4355 9.40848 36.5042 8.84535C36.5042 8.77667 36.5729 8.708 36.6416 8.708L36.8201 8.68053C36.8888 8.68053 36.9437 8.72173 36.9437 8.79041C36.8613 10.315 36.2707 11.0704 35.1719 11.0704H35.0208C33.7435 11.0292 33.2902 10.109 33.2902 8.58438V4.13424H32.4524C32.3975 4.13424 32.3425 4.0793 32.3425 4.02436Z" fill="var(--fill-0, white)"/>
<path id="Vector_2" d="M25.37 9.83422C25.315 9.6694 25.2876 9.49084 25.2876 9.31229C25.2876 9.22988 25.2876 9.14746 25.3013 9.05132C25.576 6.86745 28.4329 7.91131 29.4218 5.87853C29.4905 5.72745 29.5042 5.69997 29.5042 5.53515C29.5042 5.02696 29.5866 3.85948 28.3779 3.85948C28.323 3.85948 28.2681 3.85948 28.1994 3.87322C27.7187 3.91442 26.9083 4.24406 26.9083 4.94455C26.9083 5.32913 27.1693 5.41154 27.2105 5.79612C27.2242 5.83733 27.2242 5.8648 27.2242 5.906C27.2242 6.16697 26.9907 6.52408 26.5374 6.67516C26.4413 6.70263 26.3452 6.71637 26.249 6.71637C26.1391 6.71637 25.9331 6.70263 25.7683 6.52408C25.5897 6.34552 25.4936 6.04335 25.4936 5.69998C25.4936 4.0243 27.1693 3.46117 28.4054 3.46117H28.5153C30.2734 3.50237 31.0013 4.43635 31.0013 6.11203C31.0013 7.15589 30.9464 8.18601 30.9464 9.22987C30.9464 9.4771 30.9739 9.90289 31.2623 9.90289H31.3035C31.7568 9.90289 31.798 9.35349 31.798 8.99638C31.798 8.9277 31.8392 8.8865 31.9078 8.8865L32.0589 8.90023C32.1276 8.90023 32.1688 8.95517 32.1688 9.02385C32.1276 10.1639 31.6881 10.9055 30.6992 10.9605H30.6305C29.9437 10.9605 29.5866 10.3699 29.5454 9.84795C29.051 10.4523 28.1719 11.0017 27.2517 11.0017H27.0594C26.2627 11.0017 25.5897 10.5072 25.37 9.83422ZM26.7435 9.09253V9.20241C26.7435 9.57325 26.922 9.87542 27.2242 10.0677C27.5264 10.26 27.7736 10.2737 27.9247 10.2737C28.0208 10.2737 28.1032 10.26 28.1994 10.2463C28.79 10.0952 29.1471 9.7106 29.463 9.38096C29.463 9.10626 29.4767 8.77662 29.4767 8.51565C29.4767 7.74649 29.5179 7.14215 29.5591 6.37299C29.0097 7.56794 26.8533 7.76023 26.7435 9.09253Z" fill="var(--fill-0, white)"/>
<path id="Vector_3" d="M16.5439 10.6858C16.5439 10.6172 16.5988 10.5622 16.6538 10.5622C16.9559 10.5622 17.4779 10.6034 17.4779 9.55957V9.43596C17.4092 6.63401 17.4504 4.49135 17.4504 1.70314C17.4504 1.42844 17.3268 1.0576 17.0383 1.0576H17.0109C16.9422 1.0576 16.8873 1.0576 16.8598 1.07133C16.8049 1.07133 16.7499 1.03013 16.7499 0.961451V0.782896C16.7499 0.714221 16.7911 0.659281 16.8461 0.618076C17.1482 0.508196 18.1097 0.178556 18.2058 0.151085C18.4119 0.0961457 18.5904 0.0274698 18.7552 0.013735C18.769 1.63734e-07 18.7964 0 18.8102 0C18.8651 0 18.92 0.0274698 18.92 0.123615C18.9338 0.384581 18.9475 0.933981 18.9475 1.53832V2.51351C18.9475 3.17279 18.9338 3.77713 18.9338 4.20292V4.61497C19.3321 4.02436 19.9776 3.63978 20.8979 3.58484H21.049C22.5049 3.58484 23.5213 4.6287 23.5213 6.46919L23.535 9.39475V9.68319C23.535 9.77933 23.5487 9.86174 23.5625 9.95789C23.6312 10.4936 23.8784 10.5348 24.3728 10.5897C24.4415 10.6034 24.4827 10.6446 24.4827 10.7133V10.8507C24.4827 10.9193 24.4415 10.9605 24.3728 10.9605H21.461C21.3923 10.9605 21.3511 10.9193 21.3511 10.8507V10.6996C21.3511 10.6309 21.3923 10.6034 21.461 10.6034C21.9143 10.6034 22.0379 10.1639 22.0379 9.75186V9.38102C22.0379 8.1586 22.0104 7.6092 22.0104 6.88124V6.66148C22.0104 6.0022 21.9555 5.34292 21.7357 4.87593C21.516 4.40894 21.1589 4.24412 20.7605 4.24412C20.6919 4.24412 20.6232 4.24412 20.5545 4.25786C19.3596 4.36774 18.9338 5.52148 18.9338 6.11208V9.42222C18.9338 9.65572 18.92 10.1639 19.0162 10.3699C19.1398 10.5897 19.4008 10.5897 19.5656 10.5897C19.6343 10.5897 19.6755 10.6309 19.6755 10.6996V10.8507C19.6755 10.9193 19.6343 10.9605 19.5656 10.9605H16.6538C16.5851 10.9605 16.5439 10.9193 16.5439 10.8507V10.6858Z" fill="var(--fill-0, white)"/>
<path id="Vector_4" d="M9.27525 9.83422C9.22031 9.6694 9.19284 9.49084 9.19284 9.31229C9.19284 9.22988 9.19284 9.14746 9.20657 9.05132C9.48127 6.86745 12.3382 7.91131 13.3271 5.87853C13.3958 5.72745 13.4095 5.69997 13.4095 5.53515C13.4095 5.02696 13.4919 3.85948 12.2832 3.85948C12.2283 3.85948 12.1733 3.85948 12.1047 3.87322C11.6239 3.91442 10.8136 4.24406 10.8136 4.94455C10.8136 5.32913 11.0745 5.41154 11.1157 5.79612C11.1295 5.83733 11.1295 5.8648 11.1295 5.906C11.1295 6.16697 10.896 6.52408 10.4427 6.67516C10.3466 6.70263 10.2504 6.71637 10.1543 6.71637C10.0444 6.71637 9.83838 6.70263 9.67356 6.52408C9.49501 6.34552 9.39886 6.04335 9.39886 5.69998C9.39886 4.0243 11.0745 3.46117 12.3107 3.46117H12.4206C14.1786 3.50237 14.9066 4.43635 14.9066 6.11203C14.9066 7.15589 14.8517 8.18601 14.8517 9.22987C14.8517 9.4771 14.8791 9.90289 15.1676 9.90289H15.2088C15.662 9.90289 15.7032 9.35349 15.7032 8.99638C15.7032 8.9277 15.7444 8.8865 15.8131 8.8865L15.9642 8.90023C16.0329 8.90023 16.0741 8.95517 16.0741 9.02385C16.0329 10.1639 15.5934 10.9055 14.6044 10.9605H14.5358C13.849 10.9605 13.4919 10.3699 13.4507 9.84795C12.9562 10.4523 12.0772 11.0017 11.1569 11.0017H10.9647C10.168 11.0017 9.49501 10.5072 9.27525 9.83422ZM10.6487 9.09253V9.20241C10.6487 9.57325 10.8273 9.87542 11.1295 10.0677C11.4316 10.26 11.6789 10.2737 11.83 10.2737C11.9261 10.2737 12.0085 10.26 12.1047 10.2463C12.6953 10.0952 13.0524 9.7106 13.3683 9.38096C13.3683 9.10626 13.382 8.77662 13.382 8.51565C13.382 7.74649 13.4232 7.14215 13.4644 6.37299C12.915 7.56794 10.7586 7.76023 10.6487 9.09253Z" fill="var(--fill-0, white)"/>
<path id="Vector_5" d="M0 10.9606V10.7408C0 10.6721 0.0549401 10.6172 0.123615 10.6172C0.343375 10.576 0.810366 10.5897 0.810366 9.77934V1.62074C0.810366 0.810376 0.343375 0.796641 0.123615 0.796641C0.0549401 0.796641 0 0.741701 0 0.673026V0.549411C0 0.494471 0.0549401 0.439531 0.123615 0.439531H3.31014C5.4116 0.439531 7.19715 0.851581 7.19715 3.26894C7.19715 4.2716 6.92245 5.12317 5.86485 5.85113C5.59015 6.02968 5.26051 6.20824 4.8622 6.37306C5.26051 6.45547 5.59015 6.56535 5.83738 6.7027C6.73016 7.21089 6.88124 8.02126 6.99112 9.32609C7.03233 9.54585 7.101 10.1777 7.568 10.1777C7.92511 10.1777 8.02125 9.6832 8.06246 9.38103C8.07619 9.32609 8.14487 9.27115 8.19981 9.27115L8.37836 9.28488C8.4333 9.28488 8.48824 9.33982 8.48824 9.39476C8.48824 10.3837 8.04872 11.0018 7.00486 11.0018C5.93353 11.0018 5.38413 9.90296 5.34292 8.54319C5.31545 7.49933 4.77979 6.86752 4.09304 6.63402C3.85954 6.56535 3.62604 6.52414 3.39255 6.52414L2.30748 6.53788V9.77934C2.30748 10.5897 2.76074 10.6309 3.00797 10.6309C3.06291 10.6446 3.11785 10.6996 3.11785 10.7683V10.8507C3.11785 10.9056 3.06291 10.9606 3.00797 10.9606H0ZM2.30748 0.933991V6.01595L3.65352 6.00221C5.4528 5.89233 5.48027 4.09305 5.48027 3.26894C5.48027 2.51352 5.42533 0.988932 3.88701 0.920257L2.30748 0.933991Z" fill="var(--fill-0, white)"/>
</g>
</svg>
