<svg preserveAspectRatio="none" width="100%" height="100%" overflow="visible" style="display: block;" viewBox="0 0 12.7444 12.7444" fill="none" xmlns="http://www.w3.org/2000/svg">
<g id="boxicons:check-shield">
<path id="Vector" d="M10.8434 3.24452L6.61117 1.12045C6.46248 1.0461 6.28194 1.0461 6.13325 1.12045L1.90104 3.24452C1.73643 3.32417 1.63022 3.48347 1.60898 3.66402C1.60367 3.72243 1.09921 9.37777 6.14918 11.6346C6.21745 11.666 6.29173 11.6823 6.3669 11.6823C6.44207 11.6823 6.51634 11.666 6.58462 11.6346C11.6346 9.37777 11.1354 3.71712 11.1248 3.66402C11.1163 3.57488 11.085 3.48943 11.0338 3.41594C10.9827 3.34245 10.9134 3.2834 10.8328 3.24452H10.8434ZM6.37221 10.5672C2.79315 8.83082 2.62323 5.11901 2.65509 4.05697L6.37221 2.1931L10.0893 4.05697C10.1106 5.1137 9.91409 8.84675 6.37221 10.5672Z" fill="var(--fill-0, #282828)"/>
<path id="Vector_2" d="M5.84119 6.68551L5.15618 5.99519L4.40213 6.74923L5.84119 8.18298L8.34228 5.6872L7.58824 4.93315L5.84119 6.68551Z" fill="var(--fill-0, #282828)"/>
</g>
</svg>
