<svg preserveAspectRatio="none" width="100%" height="100%" overflow="visible" style="display: block;" viewBox="0 0 155 32" fill="none" xmlns="http://www.w3.org/2000/svg">
<g id="Logo 2" clip-path="url(#clip0_240_1704)">
<path id="Vector" d="M35.8165 0H1.54708C0.742912 0 0 0.643959 0 1.43832V5.65099C0 6.32522 0.565144 6.90897 1.23148 7.05511L29.1577 13.1798C29.7671 13.3134 30.3949 13.0485 30.7185 12.5212L37.0617 2.18389C37.6498 1.22533 36.9512 0 35.8165 0Z" fill="var(--fill-0, #E4E4E4)"/>
<path id="Vector_2" d="M1.45608 30.7106H15.5295C16.0016 30.7257 16.4443 30.4898 16.7174 30.1093L26.0265 17.1202C26.6292 16.2803 26.1696 15.1053 25.1517 14.8838L1.76925 9.79697C0.860636 9.59929 0 10.2826 0 11.2016V29.2625C0 30.0568 0.651908 30.7106 1.45608 30.7106Z" fill="var(--fill-0, #E4E4E4)"/>
<path id="Vector_3" d="M48.9798 28.0761L31.6373 16.1594C30.9812 15.7085 30.08 15.8643 29.6178 16.5083L21.0669 28.4255C20.3835 29.378 21.0729 30.7107 22.255 30.7107L48.1483 30.7103C49.5742 30.7103 50.1503 28.8804 48.9798 28.0761Z" fill="var(--fill-0, #E4E4E4)"/>
<path id="Vector_4" d="M144.351 30.7072C140.371 30.7072 136.557 29.4736 133.639 27.2865C133.498 27.1811 133.463 26.9875 133.553 26.8376L135.6 23.4563C135.712 23.2709 135.966 23.2305 136.137 23.366C138.341 25.1174 141.198 26.1434 144.175 26.1434C147.167 26.1434 149.763 24.7961 149.763 22.1883C149.763 19.4066 146.683 18.2332 143.295 17.1465C138.279 15.5384 134.363 12.8437 134.363 8.14965C134.363 2.93403 138.939 0.0219907 144.351 0.0219907C147.729 0.0219907 150.609 0.802148 153.798 2.84138C153.954 2.94121 154.002 3.14476 153.909 3.30368L152.015 6.5316C151.915 6.70288 151.69 6.75642 151.519 6.65271C149.098 5.18179 146.978 4.54218 144.615 4.54218C141.975 4.54218 139.643 5.67223 139.643 7.88885C139.643 10.5836 142.679 11.7136 145.759 12.7568C150.951 14.4084 154.999 16.8858 154.999 21.9275C154.999 27.4473 150.291 30.7072 144.351 30.7072Z" fill="var(--fill-0, #E4E4E4)"/>
<path id="Vector_5" d="M124.273 9.55976C125.739 11.8291 126.296 14.5569 125.834 17.2099C125.438 19.4819 124.32 21.5665 122.658 23.157C122.458 23.3479 122.523 23.6863 122.785 23.7781L126.358 25.0319C126.678 25.1443 127.037 25.0499 127.246 24.7853C129.276 22.2199 130.43 19.0781 130.522 15.8008C130.626 12.1017 129.369 8.49084 126.983 5.63757C124.597 2.78429 121.246 0.882107 117.549 0.283591C113.852 -0.314927 110.06 0.430815 106.878 2.38259C103.695 4.33436 101.336 7.3598 100.239 10.8981C99.1421 14.4365 99.3808 18.2476 100.911 21.6254C102.441 25.0032 105.16 27.7183 108.562 29.2676C111.587 30.6451 114.866 31.0731 118.092 30.4118C118.399 30.3487 118.535 29.9981 118.36 29.7413L116.298 26.7224C116.153 26.5092 115.903 26.3919 115.642 26.3991C113.834 26.449 111.883 25.9708 110.253 25.1869C107.802 24.0087 105.885 21.884 104.875 19.3836C103.866 16.8831 103.837 14.1006 104.794 11.58C105.75 9.05943 107.625 6.982 110.05 5.75386C112.475 4.52572 115.276 4.23518 117.907 4.93901C120.537 5.64284 122.807 7.29047 124.273 9.55976Z" fill="var(--fill-0, #E4E4E4)"/>
<path id="Vector_6" d="M126.883 27.7914L119.269 25.1151C118.78 24.9435 118.364 25.5033 118.676 25.9125L122.727 31.7009C122.901 31.9284 123.228 31.9742 123.458 31.8034L127.021 28.6913C127.355 28.4442 127.276 27.9295 126.883 27.7914Z" fill="var(--fill-0, #E4E4E4)"/>
<path id="Vector_7" d="M88.8728 30.711H93.5046C93.7053 30.711 93.868 30.5503 93.868 30.3519V11.8447C93.868 11.5968 93.7386 11.3663 93.5256 11.2352L89.0652 8.48895C88.8231 8.33986 88.5094 8.51185 88.5094 8.79371V30.3519C88.5094 30.5503 88.6721 30.711 88.8728 30.711Z" fill="var(--fill-0, #E4E4E4)"/>
<path id="Vector_8" d="M93.5046 0.00231481H88.8728C88.6721 0.00231481 88.5094 0.163095 88.5094 0.361428V4.76083C88.5094 5.00878 88.6388 5.23919 88.8518 5.37034L93.3122 8.11659C93.5543 8.26567 93.868 8.09368 93.868 7.81182V0.361428C93.868 0.163095 93.7053 0.00231481 93.5046 0.00231481Z" fill="var(--fill-0, #E4E4E4)"/>
<path id="Vector_9" d="M75.6834 18.4724L83.3793 30.3287C83.4898 30.4917 83.3714 30.7107 83.1728 30.7107H77.7157C77.5891 30.7107 77.4715 30.6459 77.4046 30.5396L70.1973 19.0595H65.4886V30.3492C65.4886 30.5488 65.3247 30.7107 65.1226 30.7107H60.4599C60.2578 30.7107 60.0939 30.5488 60.0939 30.3492V0.36383C60.0939 0.164171 60.2578 0.00231481 60.4599 0.00231481H72.3003C78.4721 0.00231481 82.8608 4.11181 82.8608 9.57608C82.8608 13.8662 80.1179 17.208 75.6834 18.4724ZM65.4886 14.6339H71.7516C75.3176 14.6339 77.4206 12.6921 77.4206 9.6664C77.4206 6.7762 75.1804 4.60856 71.8431 4.60856H65.4886V14.6339Z" fill="var(--fill-0, #E4E4E4)"/>
<path id="Vector_10" d="M75.6834 18.4724L83.3793 30.3287C83.4898 30.4917 83.3714 30.7107 83.1728 30.7107H77.7157C77.5891 30.7107 77.4715 30.6459 77.4046 30.5396L70.1973 19.0595H65.4886V30.3492C65.4886 30.5488 65.3247 30.7107 65.1226 30.7107H60.4599C60.2578 30.7107 60.0939 30.5488 60.0939 30.3492V0.36383C60.0939 0.164171 60.2578 0.00231481 60.4599 0.00231481H72.3003C78.4721 0.00231481 82.8608 4.11181 82.8608 9.57608C82.8608 13.8662 80.1179 17.208 75.6834 18.4724ZM65.4886 14.6339H71.7516C75.3176 14.6339 77.4206 12.6921 77.4206 9.6664C77.4206 6.7762 75.1804 4.60856 71.8431 4.60856H65.4886V14.6339Z" fill="var(--fill-0, #E4E4E4)"/>
<path id="Vector_11" d="M75.6834 18.4724L83.3793 30.3287C83.4898 30.4917 83.3714 30.7107 83.1728 30.7107H77.7157C77.5891 30.7107 77.4715 30.6459 77.4046 30.5396L70.1973 19.0595H65.4886V30.3492C65.4886 30.5488 65.3247 30.7107 65.1226 30.7107H60.4599C60.2578 30.7107 60.0939 30.5488 60.0939 30.3492V0.36383C60.0939 0.164171 60.2578 0.00231481 60.4599 0.00231481H72.3003C78.4721 0.00231481 82.8608 4.11181 82.8608 9.57608C82.8608 13.8662 80.1179 17.208 75.6834 18.4724ZM65.4886 14.6339H71.7516C75.3176 14.6339 77.4206 12.6921 77.4206 9.6664C77.4206 6.7762 75.1804 4.60856 71.8431 4.60856H65.4886V14.6339Z" fill="var(--fill-0, #E4E4E4)"/>
</g>
<defs>
<clipPath id="clip0_240_1704">
<rect width="155" height="32" fill="white"/>
</clipPath>
</defs>
</svg>
