<svg preserveAspectRatio="none" width="100%" height="100%" overflow="visible" style="display: block;" viewBox="0 0 158.179 32.0888" fill="none" xmlns="http://www.w3.org/2000/svg">
<g id="Group">
<path id="Vector" d="M11.4746 11.811C10.8766 12.809 10.0262 13.3013 8.92986 13.3013H6.13928V4.52623H9.18898C10.2786 4.52623 11.0959 5.04515 11.6208 6.06968C12.0327 6.86136 12.2254 7.81937 12.2254 8.91043C12.2188 10.0414 11.9729 11.0061 11.4746 11.811ZM16.6372 2.96282C15.2087 1.04681 13.4147 0.0888046 11.2354 0.0888046H0.0730866V17.6788H10.5843C12.9563 17.6788 14.9097 16.7208 16.4511 14.7849C17.8597 12.9952 18.564 10.9595 18.564 8.69088C18.5574 6.58194 17.9195 4.68589 16.6372 2.96282Z" fill="var(--fill-0, #E4E4E4)"/>
<path id="Vector_2" d="M36.3573 17.6788H29.6865V10.9329H23.4542V17.6788H16.6638V0.0888046H23.4542V6.04307H29.6865V0.0888046H36.3573V17.6788Z" fill="var(--fill-0, #E4E4E4)"/>
<path id="Vector_3" d="M41.5796 11.7844L43.5929 5.87009H43.8188L45.719 11.7844H41.5796ZM46.9615 0.0888046H40.4634L33.3341 17.6788H39.6528L40.397 15.4767H46.9017L47.6126 17.6788H54.1306L46.9615 0.0888046Z" fill="var(--fill-0, #E4E4E4)"/>
<path id="Vector_4" d="M72.1099 17.6788H64.3295L59.2998 10.7333L57.7185 12.1903V17.6788H51.1274V0.0888046H57.7185V5.59068H57.9511L63.592 0.0888046H71.5252L64.0637 6.70835L72.1099 17.6788Z" fill="var(--fill-0, #E4E4E4)"/>
<path id="Vector_5" d="M135.981 17.4526H131.177L124.42 8.88382V17.4526H118.294V0.348264H124.42L131.204 9.62893V0.334958H135.981V17.4526Z" fill="var(--fill-0, #E4E4E4)"/>
<path id="Vector_6" d="M135.981 17.4526H131.177L124.42 8.88382V17.4526H118.294V0.348264H124.42L131.204 9.62893V0.334958H135.981V17.4526Z" stroke="var(--stroke-0, #E4E4E4)" stroke-width="0.63"/>
<path id="Vector_7" d="M157.535 17.446H149.343L144.466 10.9994L142.944 12.4364L142.938 17.446H137.323V0.368222H142.944V6.43558L149.402 0.315H157.037L149.475 7.08756L157.535 17.446Z" fill="var(--fill-0, #E4E4E4)"/>
<path id="Vector_8" d="M157.535 17.446H149.343L144.466 10.9994L142.944 12.4364L142.938 17.446H137.323V0.368222H142.944V6.43558L149.402 0.315H157.037L149.475 7.08756L157.535 17.446Z" stroke="var(--stroke-0, #E4E4E4)" stroke-width="0.63"/>
<path id="Vector_9" d="M108.667 11.8111L110.733 6.11625H110.965L112.919 11.8111H108.667ZM114.221 0.354917H107.504L100.142 17.4393H106.673L107.451 15.3304H114.161L114.905 17.4393H121.656L114.221 0.354917Z" fill="var(--fill-0, #E4E4E4)"/>
<path id="Vector_10" d="M108.667 11.8111L110.733 6.11625H110.965L112.919 11.8111H108.667ZM114.221 0.354917H107.504L100.142 17.4393H106.673L107.451 15.3304H114.161L114.905 17.4393H121.656L114.221 0.354917Z" stroke="var(--stroke-0, #E4E4E4)" stroke-width="0.63"/>
<path id="Vector_11" d="M96.6537 6.9545C96.1288 7.24722 95.6571 7.39359 95.2252 7.39359H91.9696V4.51292H96.0757C96.5076 4.51292 96.8331 4.66594 97.0723 4.96531C97.3049 5.27134 97.4245 5.61729 97.4245 6.0098C97.4245 6.34244 97.172 6.65512 96.6537 6.9545ZM103.411 10.2077C102.873 9.42935 102.109 8.8439 101.139 8.42477C101.856 7.99234 102.428 7.46011 102.84 6.8414C103.251 6.21604 103.451 5.55076 103.451 4.83226C103.451 3.55492 102.886 2.52373 101.757 1.74535C100.62 0.960322 99.2583 0.388181 97.6836 0.388181H85.4449V17.4393H97.3115C99.0988 17.4393 100.66 17.0269 102.009 16.2086C103.491 15.3237 104.235 14.1661 104.235 12.7424C104.228 11.8244 103.956 10.9794 103.411 10.2077ZM97.2517 13.1882C96.966 13.5607 96.5873 13.7337 96.1023 13.7337H91.9696V10.6002H95.3913C96.0026 10.6002 96.5408 10.7133 96.9926 10.9661C97.451 11.1923 97.6836 11.5516 97.6836 12.0106C97.677 12.4298 97.5308 12.8223 97.2517 13.1882Z" fill="var(--fill-0, #E4E4E4)"/>
<path id="Vector_12" d="M96.6537 6.9545C96.1288 7.24722 95.6571 7.39359 95.2252 7.39359H91.9696V4.51292H96.0757C96.5076 4.51292 96.8331 4.66594 97.0723 4.96531C97.3049 5.27134 97.4245 5.61729 97.4245 6.0098C97.4245 6.34244 97.172 6.65512 96.6537 6.9545ZM103.411 10.2077C102.873 9.42935 102.109 8.8439 101.139 8.42477C101.856 7.99234 102.428 7.46011 102.84 6.8414C103.251 6.21604 103.451 5.55076 103.451 4.83226C103.451 3.55492 102.886 2.52373 101.757 1.74535C100.62 0.960322 99.2583 0.388181 97.6836 0.388181H85.4449V17.4393H97.3115C99.0988 17.4393 100.66 17.0269 102.009 16.2086C103.491 15.3237 104.235 14.1661 104.235 12.7424C104.228 11.8244 103.956 10.9794 103.411 10.2077ZM97.2517 13.1882C96.966 13.5607 96.5873 13.7337 96.1023 13.7337H91.9696V10.6002H95.3913C96.0026 10.6002 96.5408 10.7133 96.9926 10.9661C97.451 11.1923 97.6836 11.5516 97.6836 12.0106C97.677 12.4298 97.5308 12.8223 97.2517 13.1882Z" stroke="var(--stroke-0, #E4E4E4)" stroke-width="0.63"/>
<path id="Vector_13" d="M75.8838 11.7844L77.9369 5.87009H78.1695L80.0963 11.7844H75.8838ZM81.3521 0.0888046H74.741L67.4988 17.6788H73.9304L74.6945 15.4767H81.3055L82.0231 17.6788H88.6607L81.3521 0.0888046Z" fill="var(--fill-0, #E4E4E4)"/>
<path id="Vector_14" d="M0.0730866 31.7961V24.1054H0.777376V31.1441H3.46829V31.7961H0.0730866Z" fill="var(--fill-0, #E4E4E4)"/>
<path id="Vector_15" d="M25.5272 24.1054H24.8362V31.7961H25.5272V24.1054Z" fill="var(--fill-0, #E4E4E4)"/>
<path id="Vector_16" d="M51.2869 32.0888L48.5362 25.9083L47.9448 31.7961H47.214L48.277 23.7528L51.2736 30.6185L54.3831 23.7528L55.3797 31.7961H54.6422L54.0642 25.9083L51.2869 32.0888Z" fill="var(--fill-0, #E4E4E4)"/>
<path id="Vector_17" d="M77.7908 24.1054H77.0798V31.7961H77.7908V24.1054Z" fill="var(--fill-0, #E4E4E4)"/>
<path id="Vector_18" d="M101.345 31.7961V24.7441H99.1985V24.1054H104.208V24.7441H102.042V31.7961H101.345Z" fill="var(--fill-0, #E4E4E4)"/>
<path id="Vector_19" d="M125.649 31.7961V24.1054H129.516V24.7441H126.353V27.1657H129.516V27.8177H126.353V31.1441H129.516V31.7961H125.649Z" fill="var(--fill-0, #E4E4E4)"/>
<path id="Vector_20" d="M152.206 24.6909H152.837H152.977C153.874 24.6909 154.492 24.7308 154.857 24.8173C155.216 24.9171 155.515 25.0701 155.768 25.2896C156.093 25.5691 156.352 25.9416 156.518 26.3873C156.678 26.8331 156.771 27.352 156.771 27.9441C156.771 28.5096 156.678 29.0285 156.518 29.4676C156.346 29.9133 156.1 30.2925 155.774 30.5986C155.535 30.8048 155.256 30.9578 154.917 31.0443C154.585 31.1308 154.007 31.184 153.203 31.184H152.206V24.6909ZM152.705 31.7961H152.95C153.907 31.7961 154.611 31.7362 155.043 31.6298C155.482 31.5233 155.867 31.337 156.206 31.0842C156.625 30.7516 156.957 30.3258 157.183 29.7936C157.409 29.2547 157.528 28.636 157.528 27.9441C157.528 27.2589 157.415 26.6468 157.183 26.1079C156.957 25.5757 156.625 25.1366 156.193 24.7907C155.867 24.5379 155.475 24.3582 155.023 24.2518C154.572 24.1454 153.794 24.0988 152.698 24.0988H151.495V31.7894H152.705V31.7961Z" fill="var(--fill-0, #E4E4E4)"/>
<path id="Vector_21" d="M0 20.6327H158" stroke="var(--stroke-0, #E4E4E4)" stroke-width="0.676"/>
</g>
</svg>
