<svg preserveAspectRatio="none" width="100%" height="100%" overflow="visible" style="display: block;" viewBox="0 0 51.9224 40" fill="none" xmlns="http://www.w3.org/2000/svg">
<g id="Group 1000003310">
<path id="Vector" d="M36.0698 27.714C33.1676 35.337 26.1182 40 18.6654 40C16.3945 40 14.0798 39.5628 11.8352 38.6521C2.66396 34.8998 -2.04442 24.4171 0.848997 14.8086C0.612263 14.499 0.480744 14.1165 0.480744 13.6884C0.480744 12.6866 1.26986 11.8669 2.23433 11.8669C3.1988 11.8669 3.98792 12.6866 3.98792 13.6884C3.98792 14.6902 3.20757 15.5099 2.23433 15.5099H2.21679C-0.30837 24.2896 4.03176 33.7887 12.3876 37.204C21.1994 40.8197 31.2036 36.3024 34.6757 27.1493L36.0786 27.7231L36.0698 27.714Z" fill="var(--fill-0, white)"/>
<path id="Vector_2" d="M29.038 31.9487C25.9692 34.854 22.1288 36.3021 18.3586 36.3021C14.3868 36.3021 10.5026 34.6992 7.69682 31.5116C2.63773 25.7556 2.83062 16.8394 7.86342 10.8102C7.76697 10.5825 7.71436 10.3366 7.71436 10.0725C7.71436 9.07066 8.50347 8.25099 9.46795 8.25099C10.4324 8.25099 11.2215 9.07066 11.2215 10.0725C11.2215 11.0743 10.4412 11.894 9.46795 11.894C9.31012 11.894 9.16107 11.8758 9.01201 11.8302C4.46146 17.2765 4.2598 25.3002 8.81035 30.4642C13.7292 36.0562 22.348 36.2019 28.0297 30.8103L29.0467 31.9578L29.038 31.9487Z" fill="var(--fill-0, white)"/>
<path id="Vector_3" d="M21.9518 32.7782C20.926 33.0423 19.9001 33.1607 18.9006 33.1607C13.7626 33.1607 9.22957 29.8911 7.73026 24.7363C6.83593 21.6761 7.13404 18.443 8.56321 15.6287C9.8521 13.106 11.9038 11.1843 14.429 10.1642C14.5429 9.28082 15.2707 8.59775 16.1562 8.59775C17.1207 8.59775 17.9098 9.41743 17.9098 10.4193C17.9098 11.4211 17.1207 12.2408 16.1562 12.2408C15.6477 12.2408 15.2005 12.0131 14.8761 11.667C12.728 12.5686 10.9832 14.208 9.88717 16.3756C8.64212 18.8255 8.38785 21.6397 9.15943 24.3082C10.7201 29.6634 16.0598 32.6689 21.5924 31.2846L21.9431 32.7964L21.9518 32.7782Z" fill="var(--fill-0, white)"/>
<g id="Group">
<path id="Vector_4" d="M19.8485 8.50584C19.9274 8.84282 19.8485 9.0614 19.6205 9.11605C19.4188 9.17069 19.2435 9.02497 19.1646 8.6971C19.0857 8.36923 19.1909 8.15065 19.3925 8.096C19.603 8.04136 19.7696 8.19619 19.8485 8.50584ZM19.3049 8.66067C19.3662 8.91568 19.4802 9.04319 19.6117 9.00676C19.752 8.97033 19.7783 8.79728 19.717 8.54227C19.6556 8.29637 19.5591 8.15976 19.4188 8.19619C19.2961 8.22351 19.2435 8.39655 19.3136 8.66067H19.3049Z" fill="var(--fill-0, white)"/>
<path id="Vector_5" d="M20.2969 7.73182L20.0864 7.90487L20.0251 7.77736L20.2881 7.55878L20.4459 7.52235L20.709 8.84294L20.5336 8.87937L20.3056 7.72272L20.2969 7.73182Z" fill="var(--fill-0, white)"/>
<path id="Vector_6" d="M22.2334 7.69517C22.3211 8.25984 22.1457 8.61503 21.7687 8.66968C21.4355 8.72432 21.155 8.4511 21.0673 7.90464C20.9796 7.34909 21.1813 6.99389 21.532 6.93925C21.8915 6.8846 22.1457 7.15783 22.2246 7.69517H22.2334ZM21.304 7.86821C21.3741 8.30537 21.5407 8.52396 21.7599 8.48753C21.9967 8.4511 22.0668 8.15965 22.0054 7.7316C21.9441 7.32176 21.795 7.06675 21.5495 7.10318C21.3478 7.13961 21.2339 7.40373 21.304 7.85911V7.86821Z" fill="var(--fill-0, white)"/>
<path id="Vector_7" d="M23.0498 6.69357L22.7079 6.92125L22.6377 6.72089L23.0674 6.43856L23.3041 6.41123L23.4882 8.42399L23.2164 8.45132L23.0498 6.69357Z" fill="var(--fill-0, white)"/>
<path id="Vector_8" d="M25.8547 7.10323C25.881 7.90469 25.5829 8.36006 25.0393 8.37828C24.5658 8.39649 24.2326 7.96844 24.1975 7.18519C24.18 6.39284 24.5132 5.94657 25.0129 5.92836C25.5303 5.91014 25.8284 6.3473 25.8547 7.10323ZM24.5307 7.17609C24.5482 7.78629 24.7499 8.13237 25.048 8.12327C25.3812 8.11416 25.539 7.72254 25.5215 7.12144C25.504 6.53856 25.3461 6.16515 25.0042 6.17426C24.7148 6.17426 24.5132 6.52945 24.5307 7.17609Z" fill="var(--fill-0, white)"/>
<path id="Vector_9" d="M28.1172 7.02127C28.0733 7.94113 27.7051 8.42382 27.0826 8.3965C26.539 8.36918 26.197 7.85916 26.2233 6.96662C26.2671 6.06498 26.688 5.58228 27.2579 5.6096C27.8454 5.63693 28.1523 6.16516 28.1172 7.02127ZM26.6003 6.98484C26.5653 7.68611 26.7757 8.09595 27.1176 8.11417C27.5034 8.13238 27.7051 7.70433 27.7402 7.02127C27.7665 6.35642 27.6174 5.91015 27.2229 5.89194C26.8897 5.87372 26.6354 6.25624 26.6003 6.98484Z" fill="var(--fill-0, white)"/>
<path id="Vector_10" d="M29.6856 5.93757H29.6768L29.0981 6.13794L29.0543 5.81918L29.782 5.56417L30.1415 5.61881L29.7382 8.62429L29.3349 8.56964L29.6856 5.93757Z" fill="var(--fill-0, white)"/>
<path id="Vector_11" d="M32.5711 6.20181H32.5623L31.9047 6.35664V5.99234L32.7289 5.80108L33.1147 5.90126L32.3343 9.17996L31.8959 9.06157L32.5798 6.20181H32.5711Z" fill="var(--fill-0, white)"/>
</g>
<g id="Group_2">
<path id="Vector_12" d="M3.69688 10.0727C3.97745 10.2549 4.06513 10.4644 3.95115 10.6556C3.8547 10.8196 3.6355 10.8287 3.3637 10.6556C3.09189 10.4735 3.01298 10.2549 3.11819 10.0819C3.22341 9.90881 3.44261 9.90881 3.70565 10.0819L3.69688 10.0727ZM3.43384 10.5372C3.64427 10.6829 3.81086 10.6921 3.87224 10.5919C3.94238 10.4735 3.84593 10.3369 3.6355 10.1911C3.43384 10.0545 3.26725 10.0181 3.19711 10.1365C3.13573 10.2367 3.20587 10.3824 3.43384 10.5372Z" fill="var(--fill-0, white)"/>
<path id="Vector_13" d="M3.49584 9.22583L3.46953 9.48995L3.33801 9.4353L3.37309 9.10743L3.46077 8.97993L4.51292 9.76317L4.41647 9.89979L3.49584 9.21672V9.22583Z" fill="var(--fill-0, white)"/>
<path id="Vector_14" d="M4.81989 7.95998C5.24952 8.32428 5.35473 8.68858 5.13553 8.97092C4.94264 9.22593 4.57439 9.19861 4.15353 8.85252C3.73267 8.49733 3.64499 8.11481 3.84665 7.85069C4.05708 7.57747 4.41656 7.62301 4.81989 7.96909V7.95998ZM4.29381 8.67948C4.61823 8.9527 4.89003 9.00735 5.01278 8.85252C5.15307 8.67037 5.01278 8.41536 4.69714 8.14213C4.39026 7.87802 4.11845 7.78694 3.97817 7.96909C3.85542 8.12392 3.95186 8.38804 4.29381 8.67948Z" fill="var(--fill-0, white)"/>
<path id="Vector_15" d="M4.76743 6.68507L4.67098 7.06758L4.48685 6.95829L4.6096 6.47559L4.75866 6.31166L6.1703 7.70511L5.99494 7.89637L4.75866 6.67596L4.76743 6.68507Z" fill="var(--fill-0, white)"/>
<path id="Vector_16" d="M7.02766 5.25502C7.5362 5.85611 7.60634 6.38435 7.22932 6.72133C6.90491 7.02187 6.40513 6.89437 5.90536 6.31149C5.40559 5.7195 5.37052 5.16394 5.71247 4.85429C6.06318 4.53552 6.54542 4.68124 7.02766 5.24591V5.25502ZM6.1421 6.11112C6.52788 6.57561 6.88737 6.71222 7.0978 6.52096C7.33453 6.31149 7.20302 5.91987 6.81723 5.46449C6.44897 5.02733 6.09826 4.83607 5.86152 5.05465C5.65986 5.2368 5.73 5.62843 6.1421 6.11112Z" fill="var(--fill-0, white)"/>
<path id="Vector_17" d="M7.32798 3.5884L7.10878 4.06199L6.89835 3.87073L7.17893 3.27874L7.41566 3.1057L8.91498 5.31882L8.64317 5.51919L7.33675 3.5884H7.32798Z" fill="var(--fill-0, white)"/>
<path id="Vector_18" d="M10.6671 2.46822C11.1318 3.37897 11.0792 4.06203 10.5181 4.37169C10.0271 4.64491 9.4396 4.34436 8.9749 3.46094C8.5102 2.55929 8.62419 1.86712 9.14149 1.57568C9.67634 1.27513 10.2375 1.61211 10.6759 2.46822H10.6671ZM9.31685 3.26968C9.67634 3.96185 10.0797 4.25329 10.3953 4.08025C10.746 3.88899 10.6934 3.36075 10.3339 2.67769C9.99198 2.02195 9.61496 1.67586 9.25548 1.86712C8.95737 2.03106 8.93983 2.54108 9.31685 3.26968Z" fill="var(--fill-0, white)"/>
<path id="Vector_19" d="M11.6151 0.555558H11.6063L11.1942 1.05647L11.0013 0.755923L11.5187 0.136613L11.8606 0L12.9829 3.16941L12.5883 3.31513L11.6063 0.54645L11.6151 0.555558Z" fill="var(--fill-0, white)"/>
</g>
<g id="Group_3">
<path id="Vector_20" d="M14.1751 25.5011V23.7116H14.822C14.9556 23.7116 15.061 23.7335 15.1384 23.7627C15.2157 23.792 15.279 23.8577 15.3283 23.9307C15.3704 24.0038 15.3986 24.0841 15.3986 24.1645C15.3986 24.2375 15.3775 24.3105 15.3353 24.3836C15.2931 24.4566 15.2368 24.5077 15.1525 24.5443C15.2579 24.5735 15.3353 24.6319 15.3915 24.705C15.4478 24.778 15.4759 24.8729 15.4759 24.9752C15.4759 25.0555 15.4619 25.1359 15.4267 25.2089C15.3915 25.282 15.3493 25.3331 15.3001 25.3769C15.2509 25.4207 15.1876 25.4427 15.1103 25.4646C15.0329 25.4865 14.9415 25.4938 14.829 25.4938H14.1751V25.5011ZM14.4001 24.4639H14.7728C14.8712 24.4639 14.9485 24.4639 14.9907 24.442C15.047 24.4274 15.0892 24.3909 15.1243 24.3544C15.1595 24.3178 15.1665 24.2594 15.1665 24.201C15.1665 24.1425 15.1525 24.0914 15.1243 24.0476C15.0962 24.0038 15.061 23.9746 15.0048 23.9526C14.9556 23.938 14.8642 23.9307 14.7446 23.9307H14.4001V24.4712V24.4639ZM14.4001 25.2893H14.829C14.8993 25.2893 14.9556 25.2893 14.9837 25.282C15.0329 25.2747 15.0821 25.2528 15.1173 25.2308C15.1525 25.2089 15.1806 25.1724 15.2017 25.1286C15.2228 25.0848 15.2368 25.0336 15.2368 24.9752C15.2368 24.9095 15.2228 24.851 15.1876 24.7999C15.1525 24.7488 15.1103 24.7196 15.054 24.6976C14.9978 24.6757 14.9134 24.6684 14.8009 24.6684H14.4001V25.282V25.2893Z" fill="var(--fill-0, white)"/>
<path id="Vector_21" d="M17.1561 25.5001V25.3102C17.0576 25.4563 16.924 25.5293 16.7623 25.5293C16.692 25.5293 16.6216 25.5147 16.5584 25.4855C16.4951 25.4563 16.4459 25.4197 16.4177 25.3759C16.3896 25.3321 16.3685 25.281 16.3544 25.2152C16.3474 25.1714 16.3404 25.1057 16.3404 25.0107V24.2073H16.5513V24.9231C16.5513 25.0399 16.5513 25.113 16.5654 25.1568C16.5795 25.2152 16.6076 25.2591 16.6498 25.2956C16.692 25.3248 16.7482 25.3467 16.8115 25.3467C16.8748 25.3467 16.931 25.3321 16.9873 25.2956C17.0435 25.2591 17.0857 25.2152 17.1068 25.1568C17.1279 25.0984 17.142 25.0107 17.142 24.9012V24.2073H17.3529V25.5001H17.1631H17.1561Z" fill="var(--fill-0, white)"/>
<path id="Vector_22" d="M18.1695 25.1134L18.3805 25.0769C18.3945 25.1646 18.4227 25.2303 18.4789 25.2741C18.5352 25.3179 18.6055 25.3472 18.7039 25.3472C18.8024 25.3472 18.8727 25.3252 18.9219 25.2887C18.9711 25.2449 18.9922 25.2011 18.9922 25.1426C18.9922 25.0915 18.9711 25.055 18.9289 25.0258C18.9008 25.0039 18.8305 24.982 18.711 24.9527C18.5563 24.9089 18.4508 24.8797 18.3875 24.8505C18.3242 24.8213 18.282 24.7774 18.2539 24.7263C18.2258 24.6752 18.2047 24.6168 18.2047 24.551C18.2047 24.4926 18.2187 24.4415 18.2398 24.3903C18.2609 24.3392 18.3031 24.3027 18.3453 24.2662C18.3805 24.2443 18.4227 24.2223 18.4789 24.2004C18.5352 24.1858 18.5985 24.1712 18.6617 24.1712C18.7602 24.1712 18.8446 24.1858 18.9219 24.215C18.9993 24.2443 19.0485 24.2808 19.0836 24.3319C19.1188 24.383 19.1399 24.4488 19.154 24.5364L18.95 24.5656C18.943 24.4999 18.9149 24.4488 18.8657 24.4122C18.8164 24.3757 18.7602 24.3538 18.6758 24.3538C18.5774 24.3538 18.507 24.3684 18.4649 24.4049C18.4227 24.4415 18.4016 24.478 18.4016 24.5218C18.4016 24.551 18.4086 24.5729 18.4297 24.6021C18.4438 24.6241 18.4719 24.646 18.5141 24.6606C18.5352 24.6679 18.5985 24.6898 18.7039 24.719C18.8516 24.7628 18.9571 24.7921 19.0204 24.8213C19.0766 24.8505 19.1258 24.887 19.161 24.9381C19.1961 24.9893 19.2102 25.0477 19.2102 25.128C19.2102 25.2084 19.1891 25.2668 19.1469 25.3325C19.1047 25.3983 19.0485 25.4494 18.9711 25.4859C18.8938 25.5224 18.8094 25.5371 18.711 25.5371C18.5492 25.5371 18.4227 25.5005 18.3383 25.4348C18.2539 25.3691 18.1976 25.2595 18.1766 25.1207L18.1695 25.1134Z" fill="var(--fill-0, white)"/>
<path id="Vector_23" d="M20.0331 23.9673V23.7116H20.244V23.9673H20.0331ZM20.0331 25.5011V24.2083H20.244V25.5011H20.0331Z" fill="var(--fill-0, white)"/>
<path id="Vector_24" d="M21.1439 25.5005V24.2077H21.3338V24.3903C21.4252 24.2515 21.5588 24.1785 21.7276 24.1785C21.8049 24.1785 21.8752 24.1931 21.9315 24.2223C21.9948 24.2515 22.044 24.2881 22.0721 24.3319C22.1002 24.3757 22.1284 24.4341 22.1354 24.4926C22.1424 24.5364 22.1495 24.6021 22.1495 24.7044V25.5005H21.9385V24.7117C21.9385 24.624 21.9315 24.5583 21.9104 24.5072C21.8963 24.4633 21.8682 24.4268 21.826 24.4049C21.7838 24.383 21.7346 24.3684 21.6783 24.3684C21.5869 24.3684 21.5096 24.3976 21.4463 24.456C21.383 24.5145 21.3479 24.6313 21.3479 24.792V25.5005H21.1369H21.1439Z" fill="var(--fill-0, white)"/>
<path id="Vector_25" d="M23.9128 25.0842L24.1307 25.1134C24.0956 25.2449 24.0323 25.3471 23.9409 25.4202C23.8495 25.4932 23.7299 25.5297 23.5823 25.5297C23.3994 25.5297 23.2518 25.4713 23.1463 25.3544C23.0408 25.2376 22.9846 25.0769 22.9846 24.8651C22.9846 24.6533 23.0408 24.478 23.1463 24.3611C23.2518 24.2442 23.3924 24.1785 23.5682 24.1785C23.744 24.1785 23.8706 24.2369 23.976 24.3538C24.0815 24.4707 24.1378 24.6386 24.1378 24.8505C24.1378 24.8651 24.1378 24.8797 24.1378 24.9089H23.2096C23.2166 25.0477 23.2588 25.1572 23.3291 25.2376C23.3994 25.3106 23.4838 25.3544 23.5893 25.3544C23.6667 25.3544 23.7299 25.3325 23.7862 25.2887C23.8424 25.2449 23.8846 25.1791 23.9198 25.0842H23.9128ZM23.2166 24.7263H23.9128C23.9057 24.6167 23.8776 24.5364 23.8354 24.478C23.7651 24.3903 23.6807 24.3538 23.5752 24.3538C23.4768 24.3538 23.3994 24.3903 23.3291 24.456C23.2588 24.5218 23.2237 24.6167 23.2166 24.7263Z" fill="var(--fill-0, white)"/>
<path id="Vector_26" d="M24.8918 25.1134L25.1028 25.0769C25.1168 25.1646 25.145 25.2303 25.2012 25.2741C25.2575 25.3179 25.3278 25.3472 25.4262 25.3472C25.5247 25.3472 25.595 25.3252 25.6442 25.2887C25.6934 25.2449 25.7145 25.2011 25.7145 25.1426C25.7145 25.0915 25.6934 25.055 25.6512 25.0258C25.6231 25.0039 25.5528 24.982 25.4332 24.9527C25.2786 24.9089 25.1731 24.8797 25.1098 24.8505C25.0465 24.8213 25.0043 24.7774 24.9762 24.7263C24.9481 24.6752 24.927 24.6168 24.927 24.551C24.927 24.4926 24.941 24.4415 24.9621 24.3903C24.9832 24.3392 25.0254 24.3027 25.0676 24.2662C25.1028 24.2443 25.145 24.2223 25.2012 24.2004C25.2575 24.1858 25.3207 24.1712 25.384 24.1712C25.4825 24.1712 25.5668 24.1858 25.6442 24.215C25.7215 24.2443 25.7708 24.2808 25.8059 24.3319C25.8411 24.383 25.8622 24.4488 25.8762 24.5364L25.6723 24.5656C25.6653 24.4999 25.6372 24.4488 25.5879 24.4122C25.5387 24.3757 25.4825 24.3538 25.3981 24.3538C25.2996 24.3538 25.2293 24.3684 25.1871 24.4049C25.145 24.4415 25.1239 24.478 25.1239 24.5218C25.1239 24.551 25.1309 24.5729 25.152 24.6021C25.166 24.6241 25.1942 24.646 25.2364 24.6606C25.2575 24.6679 25.3207 24.6898 25.4262 24.719C25.5739 24.7628 25.6794 24.7921 25.7426 24.8213C25.7989 24.8505 25.8481 24.887 25.8833 24.9381C25.9184 24.9893 25.9325 25.0477 25.9325 25.128C25.9325 25.2084 25.9114 25.2668 25.8692 25.3325C25.827 25.3983 25.7708 25.4494 25.6934 25.4859C25.6161 25.5224 25.5317 25.5371 25.4332 25.5371C25.2715 25.5371 25.145 25.5005 25.0606 25.4348C24.9762 25.3691 24.9199 25.2595 24.8988 25.1207L24.8918 25.1134Z" fill="var(--fill-0, white)"/>
<path id="Vector_27" d="M26.6707 25.1134L26.8816 25.0769C26.8957 25.1646 26.9238 25.2303 26.9801 25.2741C27.0363 25.3179 27.1066 25.3472 27.2051 25.3472C27.3035 25.3472 27.3738 25.3252 27.423 25.2887C27.4723 25.2449 27.4934 25.2011 27.4934 25.1426C27.4934 25.0915 27.4723 25.055 27.4301 25.0258C27.402 25.0039 27.3316 24.982 27.2121 24.9527C27.0574 24.9089 26.9519 24.8797 26.8886 24.8505C26.8254 24.8213 26.7832 24.7774 26.755 24.7263C26.7269 24.6752 26.7058 24.6168 26.7058 24.551C26.7058 24.4926 26.7199 24.4415 26.741 24.3903C26.7621 24.3392 26.8043 24.3027 26.8464 24.2662C26.8816 24.2443 26.9238 24.2223 26.9801 24.2004C27.0363 24.1858 27.0996 24.1712 27.1629 24.1712C27.2613 24.1712 27.3457 24.1858 27.423 24.215C27.5004 24.2443 27.5496 24.2808 27.5848 24.3319C27.6199 24.383 27.641 24.4488 27.6551 24.5364L27.4512 24.5656C27.4441 24.4999 27.416 24.4488 27.3668 24.4122C27.3176 24.3757 27.2613 24.3538 27.1769 24.3538C27.0785 24.3538 27.0082 24.3684 26.966 24.4049C26.9238 24.4415 26.9027 24.478 26.9027 24.5218C26.9027 24.551 26.9097 24.5729 26.9308 24.6021C26.9449 24.6241 26.973 24.646 27.0152 24.6606C27.0363 24.6679 27.0996 24.6898 27.2051 24.719C27.3527 24.7628 27.4582 24.7921 27.5215 24.8213C27.5777 24.8505 27.627 24.887 27.6621 24.9381C27.6973 24.9893 27.7113 25.0477 27.7113 25.128C27.7113 25.2084 27.6902 25.2668 27.6481 25.3325C27.6059 25.3983 27.5496 25.4494 27.4723 25.4859C27.3949 25.5224 27.3105 25.5371 27.2121 25.5371C27.0504 25.5371 26.9238 25.5005 26.8394 25.4348C26.755 25.3691 26.6988 25.2595 26.6777 25.1207L26.6707 25.1134Z" fill="var(--fill-0, white)"/>
<path id="Vector_28" d="M29.7294 24.9235L29.9474 24.9016C29.9544 24.9892 29.9825 25.0623 30.0177 25.1207C30.0528 25.1791 30.1161 25.223 30.1935 25.2595C30.2708 25.296 30.3622 25.3106 30.4607 25.3106C30.545 25.3106 30.6224 25.296 30.6927 25.2668C30.763 25.2376 30.8122 25.2011 30.8404 25.1572C30.8755 25.1134 30.8896 25.0623 30.8896 25.0039C30.8896 24.9454 30.8755 24.9016 30.8404 24.8578C30.8122 24.8139 30.756 24.7774 30.6857 24.7555C30.6365 24.7336 30.538 24.7044 30.3763 24.6679C30.2216 24.6313 30.1091 24.5948 30.0458 24.5583C29.9614 24.5145 29.9052 24.4561 29.863 24.3903C29.8208 24.3246 29.7997 24.2515 29.7997 24.1712C29.7997 24.0836 29.8278 23.9959 29.877 23.9156C29.9263 23.8352 29.9966 23.7768 30.095 23.7403C30.1935 23.7037 30.2919 23.6818 30.4114 23.6818C30.538 23.6818 30.6505 23.7037 30.749 23.7476C30.8474 23.7914 30.9248 23.8498 30.974 23.9375C31.0232 24.0251 31.0513 24.1128 31.0584 24.2223L30.8404 24.2369C30.8263 24.1274 30.7912 24.0397 30.7208 23.9813C30.6505 23.9229 30.5521 23.8936 30.4185 23.8936C30.2849 23.8936 30.1794 23.9229 30.1161 23.974C30.0528 24.0251 30.0247 24.0909 30.0247 24.1639C30.0247 24.2296 30.0458 24.2808 30.095 24.3246C30.1372 24.3684 30.2567 24.4122 30.4396 24.4488C30.6224 24.4853 30.749 24.5291 30.8193 24.5656C30.9177 24.6167 30.9951 24.6752 31.0443 24.7482C31.0935 24.8213 31.1146 24.9089 31.1146 25.0039C31.1146 25.0988 31.0865 25.1865 31.0373 25.2741C30.988 25.3544 30.9107 25.4202 30.8122 25.4713C30.7138 25.5151 30.6013 25.5443 30.4818 25.5443C30.3271 25.5443 30.1935 25.5224 30.088 25.4713C29.9825 25.4202 29.8981 25.3544 29.8419 25.2595C29.7856 25.1645 29.7505 25.055 29.7505 24.9381L29.7294 24.9235Z" fill="var(--fill-0, white)"/>
<path id="Vector_29" d="M31.8881 24.8505C31.8881 24.6095 31.9514 24.4342 32.0779 24.3173C32.1834 24.2223 32.317 24.1712 32.4717 24.1712C32.6405 24.1712 32.7811 24.2296 32.8936 24.3465C32.9991 24.4634 33.0553 24.6241 33.0553 24.8286C33.0553 24.9966 33.0342 25.128 32.985 25.223C32.9358 25.3179 32.8655 25.391 32.7741 25.4421C32.6827 25.4932 32.5842 25.5224 32.4717 25.5224C32.2959 25.5224 32.1553 25.464 32.0498 25.3472C31.9443 25.2303 31.8881 25.0623 31.8881 24.8432V24.8505ZM32.1061 24.8505C32.1061 25.0185 32.1412 25.1426 32.2115 25.223C32.2818 25.3033 32.3662 25.3472 32.4717 25.3472C32.5772 25.3472 32.6616 25.3033 32.7319 25.223C32.8022 25.1426 32.8373 25.0112 32.8373 24.8432C32.8373 24.6825 32.8022 24.5583 32.7319 24.478C32.6616 24.3976 32.5772 24.3538 32.4717 24.3538C32.3662 24.3538 32.2748 24.3976 32.2115 24.478C32.1482 24.5583 32.1061 24.6825 32.1061 24.8505Z" fill="var(--fill-0, white)"/>
<path id="Vector_30" d="M33.8774 25.5011V23.7116H34.0883V25.5011H33.8774Z" fill="var(--fill-0, white)"/>
<path id="Vector_31" d="M35.8128 25.5001V25.3102C35.7143 25.4563 35.5807 25.5293 35.419 25.5293C35.3487 25.5293 35.2784 25.5147 35.2151 25.4855C35.1518 25.4563 35.1026 25.4197 35.0744 25.3759C35.0463 25.3321 35.0252 25.281 35.0111 25.2152C35.0041 25.1714 34.9971 25.1057 34.9971 25.0107V24.2073H35.208V24.9231C35.208 25.0399 35.208 25.113 35.2221 25.1568C35.2362 25.2152 35.2643 25.2591 35.3065 25.2956C35.3487 25.3248 35.4049 25.3467 35.4682 25.3467C35.5315 25.3467 35.5877 25.3321 35.644 25.2956C35.7003 25.2591 35.7424 25.2152 35.7635 25.1568C35.7846 25.0984 35.7987 25.0107 35.7987 24.9012V24.2073H36.0096V25.5001H35.8198H35.8128Z" fill="var(--fill-0, white)"/>
<path id="Vector_32" d="M37.3715 25.3037L37.3996 25.5009C37.3433 25.5155 37.2871 25.5228 37.2379 25.5228C37.1605 25.5228 37.1043 25.5082 37.0621 25.4863C37.0199 25.4644 36.9918 25.4279 36.9707 25.3841C36.9566 25.3402 36.9425 25.2599 36.9425 25.1284V24.3834H36.7878V24.2154H36.9425V23.894L37.1535 23.7626V24.2154H37.3644V24.3834H37.1535V25.143C37.1535 25.2088 37.1535 25.2453 37.1675 25.2672C37.1816 25.2891 37.1886 25.2964 37.2027 25.311C37.2168 25.3256 37.2449 25.3256 37.273 25.3256C37.2941 25.3256 37.3293 25.3256 37.3644 25.3183L37.3715 25.3037Z" fill="var(--fill-0, white)"/>
<path id="Vector_33" d="M38.1537 23.9673V23.7116H38.3647V23.9673H38.1537ZM38.1537 25.5011V24.2083H38.3647V25.5011H38.1537Z" fill="var(--fill-0, white)"/>
<path id="Vector_34" d="M39.1874 24.8505C39.1874 24.6095 39.2507 24.4342 39.3773 24.3173C39.4828 24.2223 39.6164 24.1712 39.7711 24.1712C39.9398 24.1712 40.0804 24.2296 40.193 24.3465C40.2984 24.4634 40.3547 24.6241 40.3547 24.8286C40.3547 24.9966 40.3336 25.128 40.2844 25.223C40.2351 25.3179 40.1648 25.391 40.0734 25.4421C39.982 25.4932 39.8836 25.5224 39.7711 25.5224C39.5953 25.5224 39.4546 25.464 39.3492 25.3472C39.2437 25.2303 39.1874 25.0623 39.1874 24.8432V24.8505ZM39.4054 24.8505C39.4054 25.0185 39.4406 25.1426 39.5109 25.223C39.5812 25.3033 39.6656 25.3472 39.7711 25.3472C39.8765 25.3472 39.9609 25.3033 40.0312 25.223C40.1015 25.1426 40.1367 25.0112 40.1367 24.8432C40.1367 24.6825 40.1015 24.5583 40.0312 24.478C39.9609 24.3976 39.8765 24.3538 39.7711 24.3538C39.6656 24.3538 39.5742 24.3976 39.5109 24.478C39.4476 24.5583 39.4054 24.6825 39.4054 24.8505Z" fill="var(--fill-0, white)"/>
<path id="Vector_35" d="M41.1838 25.5005V24.2077H41.3736V24.3903C41.465 24.2515 41.5986 24.1785 41.7674 24.1785C41.8447 24.1785 41.908 24.1931 41.9713 24.2223C42.0346 24.2515 42.0838 24.2881 42.1119 24.3319C42.1401 24.3757 42.1682 24.4341 42.1752 24.4926C42.1822 24.5364 42.1893 24.6021 42.1893 24.7044V25.5005H41.9783V24.7117C41.9783 24.624 41.9713 24.5583 41.9502 24.5072C41.9361 24.4633 41.901 24.4268 41.8658 24.4049C41.8236 24.3757 41.7744 24.3684 41.7182 24.3684C41.6267 24.3684 41.5494 24.3976 41.4861 24.456C41.4228 24.5145 41.3877 24.6313 41.3877 24.792V25.5005H41.1767H41.1838Z" fill="var(--fill-0, white)"/>
<path id="Vector_36" d="M43.0125 25.1134L43.2234 25.0769C43.2375 25.1646 43.2656 25.2303 43.3219 25.2741C43.3781 25.3179 43.4484 25.3472 43.5469 25.3472C43.6453 25.3472 43.7156 25.3252 43.7649 25.2887C43.8141 25.2449 43.8352 25.2011 43.8352 25.1426C43.8352 25.0915 43.8141 25.055 43.7719 25.0258C43.7438 25.0039 43.6735 24.982 43.5539 24.9527C43.3992 24.9089 43.2937 24.8797 43.2305 24.8505C43.1672 24.8213 43.125 24.7774 43.0969 24.7263C43.0687 24.6752 43.0476 24.6168 43.0476 24.551C43.0476 24.4926 43.0617 24.4415 43.0828 24.3903C43.1039 24.3392 43.1461 24.3027 43.1883 24.2662C43.2234 24.2443 43.2656 24.2223 43.3219 24.2004C43.3781 24.1858 43.4414 24.1712 43.5047 24.1712C43.6031 24.1712 43.6875 24.1858 43.7649 24.215C43.8422 24.2443 43.8914 24.2808 43.9266 24.3319C43.9617 24.383 43.9828 24.4488 43.9969 24.5364L43.793 24.5656C43.786 24.4999 43.7578 24.4488 43.7086 24.4122C43.6594 24.3757 43.6031 24.3538 43.5188 24.3538C43.4203 24.3538 43.35 24.3684 43.3078 24.4049C43.2656 24.4415 43.2445 24.478 43.2445 24.5218C43.2445 24.551 43.2516 24.5729 43.2726 24.6021C43.2867 24.6241 43.3148 24.646 43.357 24.6606C43.3781 24.6679 43.4414 24.6898 43.5469 24.719C43.6945 24.7628 43.8 24.7921 43.8563 24.8213C43.9125 24.8505 43.9618 24.887 43.9969 24.9381C44.0321 24.9893 44.0461 25.0477 44.0461 25.128C44.0461 25.2084 44.025 25.2668 43.9828 25.3325C43.9407 25.3983 43.8844 25.4494 43.8071 25.4859C43.7297 25.5224 43.6453 25.5371 43.5469 25.5371C43.3852 25.5371 43.2586 25.5005 43.1742 25.4348C43.0898 25.3691 43.0336 25.2595 43.0125 25.1207V25.1134Z" fill="var(--fill-0, white)"/>
<path id="Vector_37" d="M46.1413 25.5011V23.7116H46.3664V25.2893H47.2172V25.5011H46.1413Z" fill="var(--fill-0, white)"/>
<path id="Vector_38" d="M48.4959 25.3037L48.524 25.5009C48.4677 25.5155 48.4115 25.5228 48.3623 25.5228C48.2849 25.5228 48.2287 25.5082 48.1865 25.4863C48.1443 25.4644 48.1162 25.4279 48.0951 25.3841C48.081 25.3402 48.0669 25.2599 48.0669 25.1284V24.3834H47.9122V24.2154H48.0669V23.894L48.2779 23.7626V24.2154H48.4888V24.3834H48.2779V25.143C48.2779 25.2088 48.2779 25.2453 48.292 25.2672C48.299 25.2818 48.313 25.2964 48.3271 25.311C48.3412 25.3256 48.3693 25.3256 48.3974 25.3256C48.4185 25.3256 48.4537 25.3256 48.4888 25.3183L48.4959 25.3037Z" fill="var(--fill-0, white)"/>
<path id="Vector_39" d="M50.0944 25.5011V25.3404C50.017 25.4719 49.8975 25.5303 49.7428 25.5303C49.6444 25.5303 49.553 25.5011 49.4686 25.4427C49.3842 25.3842 49.3209 25.3039 49.2717 25.2016C49.2225 25.0994 49.2014 24.9825 49.2014 24.851C49.2014 24.7196 49.2225 24.6027 49.2647 24.5004C49.3069 24.3982 49.3701 24.3178 49.4545 24.2594C49.5389 24.201 49.6303 24.1718 49.7358 24.1718C49.8131 24.1718 49.8764 24.1864 49.9397 24.2229C49.996 24.2521 50.0452 24.2959 50.0803 24.3544V23.7116H50.2913V25.5011H50.0944ZM49.4264 24.851C49.4264 25.019 49.4615 25.1432 49.5248 25.2235C49.5951 25.3039 49.6725 25.3477 49.7639 25.3477C49.8553 25.3477 49.9327 25.3112 50.003 25.2308C50.0663 25.1505 50.1014 25.0336 50.1014 24.8729C50.1014 24.6977 50.0663 24.5662 50.003 24.4858C49.9397 24.4055 49.8553 24.3617 49.7569 24.3617C49.6584 24.3617 49.5811 24.3982 49.5178 24.4785C49.4545 24.5589 49.4264 24.683 49.4264 24.8583V24.851Z" fill="var(--fill-0, white)"/>
<path id="Vector_40" d="M51.2595 25.4999V25.2516H51.4986V25.4999H51.2595Z" fill="var(--fill-0, white)"/>
</g>
<g id="Group_4">
<path id="Vector_41" d="M14.7547 16.138V19.1617C14.7547 20.0633 15.0879 20.5278 15.6666 20.5278C16.2453 20.5278 16.596 20.0907 16.596 19.1617V16.138H17.7358V19.0797C17.7358 20.7009 16.9467 21.475 15.6315 21.475C14.3163 21.475 13.6061 20.7464 13.6061 19.0706V16.138H14.7547Z" fill="var(--fill-0, white)"/>
<path id="Vector_42" d="M20.2345 21.3932V16.1473H21.5672L22.6193 18.069C22.9175 18.6245 23.2156 19.2803 23.4435 19.8722H23.4698C23.3909 19.1801 23.3734 18.4697 23.3734 17.6773V16.1473H24.4255V21.3932H23.2243L22.1459 19.3713C21.8478 18.8067 21.5146 18.1327 21.2691 17.5134H21.2428C21.2691 18.2147 21.2866 18.9524 21.2866 19.8085V21.3932H20.2345Z" fill="var(--fill-0, white)"/>
<path id="Vector_43" d="M28.0551 16.138V21.3839H26.9065V16.138H28.0551Z" fill="var(--fill-0, white)"/>
<path id="Vector_44" d="M30.5804 20.1727C30.8873 20.3366 31.3608 20.5006 31.8518 20.5006C32.3779 20.5006 32.6497 20.2729 32.6497 19.9359C32.6497 19.5989 32.4129 19.4259 31.7992 19.1982C30.9575 18.8977 30.4138 18.415 30.4138 17.6499C30.4138 16.7574 31.1328 16.0652 32.3253 16.0652C32.8952 16.0652 33.316 16.1927 33.6141 16.3293L33.3599 17.2856C33.1582 17.1854 32.7987 17.0397 32.299 17.0397C31.7992 17.0397 31.5625 17.2765 31.5625 17.5497C31.5625 17.8867 31.843 18.0324 32.5006 18.2874C33.3949 18.6335 33.8158 19.1162 33.8158 19.8539C33.8158 20.7374 33.167 21.4933 31.7729 21.4933C31.1942 21.4933 30.6243 21.3294 30.3437 21.1654L30.5804 20.1818V20.1727Z" fill="var(--fill-0, white)"/>
<path id="Vector_45" d="M40.7164 18.7155C40.7164 20.4368 39.708 21.4842 38.235 21.4842C36.762 21.4842 35.8589 20.3093 35.8589 18.8157C35.8589 17.2401 36.8234 16.0652 38.3227 16.0652C39.822 16.0652 40.7251 17.2765 40.7251 18.7246L40.7164 18.7155ZM37.0601 18.7884C37.0601 19.8175 37.5248 20.537 38.2876 20.537C39.0504 20.537 39.5064 19.772 39.5064 18.7519C39.5064 17.8139 39.068 17.0033 38.2876 17.0033C37.5073 17.0033 37.0689 17.7683 37.0689 18.7884H37.0601Z" fill="var(--fill-0, white)"/>
<path id="Vector_46" d="M42.9698 16.138H46.0561V17.1125H44.1097V18.3147H45.9246V19.2801H44.1097V21.393H42.9611V16.1471L42.9698 16.138Z" fill="var(--fill-0, white)"/>
<path id="Vector_47" d="M49.3972 17.14H48.0382V16.1473H51.9224V17.14H50.5458V21.3932H49.3972V17.14Z" fill="var(--fill-0, white)"/>
</g>
<g id="Group_5">
<path id="Vector_48" d="M11.9475 7.00371C12.1317 7.28604 12.1317 7.52283 11.9475 7.65034C11.7897 7.75963 11.5793 7.68677 11.3952 7.41354C11.211 7.13121 11.2286 6.89442 11.3952 6.77602C11.5705 6.65762 11.7722 6.73959 11.9475 7.01281V7.00371ZM11.5092 7.33158C11.6494 7.55016 11.7985 7.62302 11.9037 7.55926C12.0177 7.4773 11.9826 7.30425 11.8423 7.08567C11.7108 6.8762 11.5705 6.77602 11.4478 6.85799C11.3513 6.93085 11.3601 7.09478 11.5092 7.33158Z" fill="var(--fill-0, white)"/>
<path id="Vector_49" d="M12.1144 6.12032L11.9741 6.35711L11.8777 6.25693L12.0531 5.96549L12.1846 5.88352L12.8509 7.04928L12.7019 7.14036L12.1232 6.12032H12.1144Z" fill="var(--fill-0, white)"/>
<path id="Vector_50" d="M13.9127 5.49203C14.1582 6.01116 14.1056 6.38457 13.7724 6.55761C13.483 6.70333 13.1499 6.53029 12.9044 6.02937C12.6589 5.51935 12.7465 5.12773 13.0446 4.9729C13.3603 4.80897 13.6759 5.00022 13.9039 5.48292L13.9127 5.49203ZM13.1148 5.92919C13.2989 6.32081 13.5269 6.48475 13.711 6.39367C13.9214 6.28438 13.8951 5.99294 13.711 5.60132C13.5356 5.22791 13.3252 5.03665 13.1148 5.13684C12.9394 5.22791 12.9131 5.51024 13.1148 5.92919Z" fill="var(--fill-0, white)"/>
<path id="Vector_51" d="M15.3681 4.7085C15.6136 5.34603 15.5084 5.8014 15.0963 5.96534C14.728 6.11106 14.3598 5.86515 14.1143 5.24584C13.8775 4.61743 14.0178 4.15294 14.3948 4.00722C14.7894 3.8524 15.1489 4.11651 15.3681 4.7085ZM14.3685 5.14566C14.5527 5.63747 14.8069 5.85605 15.0349 5.76497C15.2892 5.66479 15.2979 5.3096 15.1226 4.8269C14.9472 4.36242 14.7193 4.10741 14.4562 4.20759C14.237 4.29866 14.1756 4.63564 14.3685 5.14566Z" fill="var(--fill-0, white)"/>
<path id="Vector_52" d="M17.1731 3.98011C17.3747 4.75425 17.2081 5.26427 16.7084 5.40999C16.27 5.5375 15.8579 5.20052 15.6562 4.4446C15.4545 3.67957 15.6737 3.16954 16.1297 3.03293C16.6031 2.89632 16.9889 3.25151 17.1818 3.98011H17.1731ZM15.9631 4.36263C16.1209 4.95462 16.3839 5.24606 16.6645 5.16409C16.9802 5.07301 17.024 4.66318 16.8749 4.0803C16.7259 3.51563 16.4892 3.18776 16.1735 3.27883C15.9105 3.35169 15.7965 3.74332 15.9631 4.36263Z" fill="var(--fill-0, white)"/>
<path id="Vector_53" d="M19.3477 3.44267C19.4792 4.35342 19.2162 4.90898 18.6287 4.99094C18.1114 5.07291 17.6905 4.63575 17.559 3.75232C17.4275 2.85979 17.7431 2.30423 18.278 2.22226C18.8304 2.14029 19.2249 2.58656 19.3477 3.44267ZM17.9185 3.70678C18.0149 4.39895 18.2868 4.76326 18.6112 4.71772C18.9794 4.66307 19.0934 4.19859 18.9882 3.51553C18.8917 2.85979 18.6638 2.44995 18.2955 2.50459C17.9799 2.55013 17.8133 2.97818 17.9185 3.69768V3.70678Z" fill="var(--fill-0, white)"/>
<path id="Vector_54" d="M20.7416 2.10381H20.7328L20.2155 2.39525L20.1366 2.0856L20.7854 1.7213H21.1274L21.1712 4.7541H20.7767L20.7416 2.10381Z" fill="var(--fill-0, white)"/>
<path id="Vector_55" d="M24.704 3.35162C24.5549 4.49006 24.0639 5.06383 23.3274 4.96365C22.6786 4.87257 22.3191 4.19862 22.4506 3.09661C22.5909 1.97638 23.1521 1.42083 23.8184 1.5119C24.5111 1.60298 24.8267 2.28604 24.6952 3.36073L24.704 3.35162ZM22.9066 3.16036C22.7926 4.03468 22.9942 4.56292 23.4063 4.61756C23.8623 4.68131 24.1516 4.17129 24.2568 3.31519C24.362 2.49551 24.2218 1.92174 23.7571 1.85799C23.3625 1.80334 23.0205 2.24961 22.9066 3.16036Z" fill="var(--fill-0, white)"/>
</g>
</g>
</svg>
