<svg preserveAspectRatio="none" width="100%" height="100%" overflow="visible" style="display: block;" viewBox="0 0 60 60" fill="none" xmlns="http://www.w3.org/2000/svg">
<g id="Vector">
<path d="M6.32263 22.0584H22.0482ZM22.0482 6.33713H22.0644V6.32092" fill="black"/>
<path d="M22.0482 15.7373C25.54 15.7373 28.3707 18.5674 28.3708 22.0582C28.3708 25.5492 25.5401 28.3791 22.0482 28.3791H6.32263C2.83074 28.3791 0 25.5492 0 22.0582C9.09102e-05 18.5674 2.8308 15.7373 6.32263 15.7373H22.0482ZM22.0642 0C25.5561 0 28.3868 2.82997 28.3868 6.32092V12.6579H22.0482C18.5563 12.6579 15.7255 9.82791 15.7255 6.33696C15.7256 4.59151 16.433 3.01107 17.5772 1.86724L17.5933 1.8512C18.7374 0.707325 20.3183 4.58875e-05 22.0642 0Z" fill="#36C5F0"/>
<path d="M37.9358 6.33717V22.0584ZM53.6613 22.0584V22.0746H53.6775" fill="black"/>
<path d="M53.6613 15.7375C55.4073 15.7375 56.9881 16.4449 58.1323 17.5887L58.1483 17.6048C59.2925 18.7486 60 20.329 60 22.0745C60 25.5654 57.1693 28.3954 53.6774 28.3954H47.3387V22.0584C47.3387 18.5675 50.1694 15.7375 53.6613 15.7375ZM31.6132 22.0584V6.33717C31.6132 2.84622 34.4439 0.0162497 37.9358 0.0162497C41.4277 0.0162497 44.2584 2.84622 44.2584 6.33717V22.0584C44.2584 25.5494 41.4277 28.3794 37.9358 28.3794C34.4439 28.3794 31.6132 25.5494 31.6132 22.0584Z" fill="#2EB67D"/>
<path d="M53.6623 37.9418H37.9368ZM37.9368 53.663H37.9206V53.6792" fill="black"/>
<path d="M37.9366 47.3421C41.4285 47.3421 44.2593 50.1721 44.2593 53.663C44.2593 55.4126 43.5481 56.9959 42.3991 58.1404C41.2543 59.289 39.6707 60 37.9206 60C34.4287 60 31.598 57.17 31.598 53.6791V47.3421H37.9366ZM53.6622 31.6209C57.1541 31.6209 59.9848 34.4508 59.9848 37.9418C59.9848 41.4327 57.1541 44.2627 53.6622 44.2627H37.9366C34.4448 44.2626 31.614 41.4327 31.614 37.9418C31.614 34.4509 34.4448 31.6209 37.9366 31.6209H53.6622Z" fill="#ECB22E"/>
<path d="M6.32263 37.9418H6.33884V37.958M22.0644 37.958V53.6792Z" fill="black"/>
<path d="M15.7416 53.6791V37.9578C15.7417 34.467 18.5724 31.637 22.0642 31.6369C25.556 31.6369 28.3867 34.4669 28.3868 37.9578V53.6791C28.3868 57.17 25.5561 60 22.0642 60C18.5724 59.9999 15.7416 57.17 15.7416 53.6791ZM12.6613 31.6209V37.9578C12.6613 41.4488 9.83057 44.2787 6.33868 44.2787C4.58863 44.2787 3.00492 43.5677 1.86014 42.4191C0.711255 41.2746 0 39.6913 0 37.9418C0 34.4508 2.83074 31.6209 6.32263 31.6209H12.6613Z" fill="var(--fill-0, #E01E5A)"/>
</g>
</svg>
