<svg preserveAspectRatio="none" width="100%" height="100%" overflow="visible" style="display: block;" viewBox="0 0 60.0006 60" fill="none" xmlns="http://www.w3.org/2000/svg">
<g id="Group 1000003335">
<path id="Vector" d="M2.23128 2.91688e-05C1.58849 2.91688e-05 0.999534 0.271156 0.59998 0.715465C0.239992 1.09167 0.0162157 1.60344 0 2.15996V2.30784C0.0071349 2.57184 0.0590246 2.81961 0.151778 3.04728C0.15567 3.06739 0.164103 3.0836 0.171238 3.10371C0.243884 3.2756 0.33534 3.43516 0.451444 3.58369C0.49101 3.64012 0.535766 3.69201 0.583764 3.73936C0.593038 3.75257 0.603692 3.76474 0.615547 3.77569L7.72774 12.2195L10.2957 15.2674L17.9845 24.3923L20.5524 27.4357L27.4363 35.6084L29.9997 38.6517V60C31.4524 60.0037 32.8492 59.4398 33.8921 58.4284C33.8966 58.4284 33.8966 58.4284 33.8966 58.4238L34.6523 57.5242L53.1167 35.6084L59.4369 28.1037C59.4687 28.072 59.4966 28.0356 59.5252 28C59.6607 27.832 59.7684 27.6432 59.8482 27.4357C59.9487 27.1879 60.0006 26.9161 60.0006 26.6275V2.23196C60.0006 1.64365 59.7723 1.10334 59.3967 0.711573C59.1891 0.485858 58.9367 0.305978 58.6555 0.183451C58.3744 0.0609249 58.0708 -0.00154895 57.7641 2.91688e-05H2.23128Z" fill="var(--fill-0, black)"/>
<path id="Vector_2" d="M2.23128 2.91686e-05C1.58849 2.91686e-05 0.999534 0.271155 0.59998 0.715465C0.239992 1.09167 0.0162157 1.60344 0 2.15996V2.30784C0.0071349 2.57184 0.0590251 2.81961 0.151779 3.04728C0.155671 3.06739 0.164103 3.0836 0.171238 3.10371C0.243884 3.2756 0.33534 3.43516 0.451444 3.58369C0.491011 3.64012 0.535766 3.69201 0.583764 3.73936C0.593038 3.75257 0.603692 3.76474 0.615547 3.77569L7.72774 12.2195L10.2957 15.2674L17.9845 24.3923L20.5524 27.4357L27.4363 35.6084L29.9997 38.6517V60C31.4524 60.0037 32.8492 59.4398 33.8921 58.4284C33.8966 58.4284 33.8966 58.4284 33.8966 58.4238L34.6523 57.5242L53.1167 35.6084L59.4369 28.1037C59.4687 28.072 59.4966 28.0356 59.5252 28C59.6607 27.832 59.7684 27.6432 59.8482 27.4357C59.9487 27.1879 60.0006 26.9161 60.0006 26.6275V2.23195C60.0006 1.64365 59.7723 1.10334 59.3967 0.711573C59.1891 0.485858 58.9367 0.305978 58.6555 0.183452C58.3744 0.0609251 58.0708 -0.00154895 57.7641 2.91686e-05H2.23128Z" fill="url(#paint0_linear_0_30)"/>
<path id="Vector_3" d="M30.0003 50.8725V60C28.5479 60.0013 27.1519 59.4374 26.1079 58.4277C26.104 58.4277 26.104 58.4277 26.104 58.4245L25.3483 57.5242L6.88388 35.6084L0.59998 28.1478C0.583924 28.1386 0.571207 28.1245 0.563657 28.1076L0.463768 27.9922C0.455985 27.9837 0.450795 27.976 0.444309 27.9675C0.321134 27.8056 0.222559 27.6264 0.151778 27.4357C0.0583251 27.2027 0.00693686 26.9549 0 26.704V26.5522C0 26.5042 0.00389118 26.4556 0.0123233 26.4076C0.0557813 25.9042 0.271774 25.4554 0.59998 25.1038C0.808253 24.8793 1.06065 24.7002 1.34136 24.5778C1.62206 24.4554 1.92503 24.3922 2.23128 24.3923H7.68428L10.2483 27.4357L17.1322 35.6084L28.4196 49.0045L29.9958 50.8764L30.0003 50.8725Z" fill="var(--fill-0, #FCD1CA)"/>
<path id="Vector_4" d="M30.0003 38.6537V50.8712L29.9964 50.8751L28.4215 49.0038L17.1341 35.6097L10.249 27.4376L7.68428 24.3923L0.558468 15.9394C0.382677 15.7422 0.244211 15.5148 0.149832 15.2681C0.0577182 15.0325 0.00702798 14.7828 0 14.5299V14.3794C0.014685 13.8407 0.228435 13.3266 0.59998 12.9362C0.80667 12.7094 1.05864 12.5284 1.33963 12.4049C1.62062 12.2815 1.92437 12.2183 2.23128 12.2195H7.72904L10.2976 15.2681L17.9858 24.3923L20.5505 27.4376L27.4356 35.609L30.0003 38.6537Z" fill="var(--fill-0, #FF9D8D)"/>
</g>
<defs>
<linearGradient id="paint0_linear_0_30" x1="53.9207" y1="-7.1034" x2="7.71774" y2="39.1007" gradientUnits="userSpaceOnUse">
<stop stop-color="#FF6660"/>
<stop offset="1" stop-color="#FB4444"/>
</linearGradient>
</defs>
</svg>
