<svg preserveAspectRatio="none" width="100%" height="100%" overflow="visible" style="display: block;" viewBox="0 0 40 60" fill="none" xmlns="http://www.w3.org/2000/svg">
<g id="Group 1000003334">
<path id="Vector" d="M9.9998 60C15.5197 60 19.9996 55.52 19.9996 49.9999V39.9999H9.9998C4.47991 39.9999 0 44.4799 0 49.9999C0 55.52 4.47991 60 9.9998 60Z" fill="var(--fill-0, #0ACF83)"/>
<path id="Vector_2" d="M0 30.0004C0 24.4804 4.47991 20.0003 9.9998 20.0003H19.9996V40.0005H9.9998C4.47991 40.0005 0 35.5204 0 30.0004Z" fill="var(--fill-0, #A259FF)"/>
<path id="Vector_3" d="M0 10.0001C0 4.48003 4.47991 0 9.9998 0H19.9996V20.0001H9.9998C4.47991 20.0001 0 15.5201 0 10.0001Z" fill="var(--fill-0, #F24E1E)"/>
<path id="Vector_4" d="M20.0004 0H30.0002C35.5201 0 40 4.48003 40 10.0001C40 15.5201 35.5201 20.0001 30.0002 20.0001H20.0004V0Z" fill="var(--fill-0, #FF7262)"/>
<path id="Vector_5" d="M40 30.0004C40 35.5204 35.5201 40.0005 30.0002 40.0005C24.4803 40.0005 20.0004 35.5204 20.0004 30.0004C20.0004 24.4804 24.4803 20.0003 30.0002 20.0003C35.5201 20.0003 40 24.4804 40 30.0004Z" fill="var(--fill-0, #1ABCFE)"/>
</g>
</svg>
