<svg preserveAspectRatio="none" width="100%" height="100%" overflow="visible" style="display: block;" viewBox="0 0 60 60" fill="none" xmlns="http://www.w3.org/2000/svg">
<g id="Photoshop logo" clip-path="url(#clip0_0_6)">
<path id="Vector" d="M45.9375 0H14.0625C6.296 0 0 6.296 0 14.0625V45.9375C0 53.704 6.296 60 14.0625 60H45.9375C53.704 60 60 53.704 60 45.9375V14.0625C60 6.296 53.704 0 45.9375 0Z" fill="var(--fill-0, #001E36)"/>
<path id="Vector_2" d="M13.5 41.7281V16.0031C13.5 15.8281 13.575 15.7281 13.75 15.7281C14.175 15.7281 14.575 15.7281 15.15 15.7031C15.75 15.6781 16.375 15.6781 17.05 15.6531C17.725 15.6281 18.45 15.6281 19.225 15.6031C20 15.5781 20.75 15.5781 21.5 15.5781C23.55 15.5781 25.2499 15.8281 26.6501 16.3531C27.9 16.7781 29.0501 17.4781 30 18.4031C30.7999 19.2031 31.425 20.1781 31.8251 21.2531C32.2001 22.3031 32.4 23.3781 32.4 24.5032C32.4 26.6531 31.9001 28.428 30.9 29.8282C29.8999 31.2281 28.5 32.2781 26.8751 32.8781C25.1749 33.5032 23.3 33.7282 21.25 33.7282C20.65 33.7282 20.25 33.7282 20 33.7031C19.75 33.678 19.4 33.678 18.925 33.678V41.703C18.95 41.8781 18.825 42.0281 18.65 42.0532C18.625 42.0532 18.6 42.0532 18.55 42.0532H13.8C13.6 42.0532 13.5 41.9531 13.5 41.7281ZM18.95 20.5531V28.953C19.3 28.9781 19.625 29.0032 19.925 29.0032H21.25C22.225 29.0032 23.2 28.8532 24.1249 28.5532C24.9251 28.3282 25.6249 27.8531 26.175 27.228C26.7 26.6032 26.9501 25.7531 26.9501 24.6532C26.9749 23.8781 26.775 23.1031 26.3749 22.4281C25.95 21.7781 25.35 21.2781 24.6251 21.0031C23.7 20.6281 22.7 20.4781 21.675 20.5031C21.025 20.5031 20.45 20.5031 19.975 20.5281C19.475 20.5031 19.125 20.5281 18.95 20.5531Z" fill="var(--fill-0, #31A8FF)"/>
<path id="Vector_3" d="M48.0005 27.4284C47.2505 27.0283 46.4506 26.7534 45.6005 26.5783C44.6754 26.3784 43.7506 26.2533 42.8004 26.2533C42.3005 26.2284 41.7755 26.3034 41.3004 26.4283C40.9756 26.5033 40.7004 26.6784 40.5256 26.9283C40.4004 27.1284 40.3254 27.3783 40.3254 27.6033C40.3254 27.8283 40.4255 28.0533 40.5755 28.2534C40.8005 28.5283 41.1005 28.7533 41.4256 28.9284C42.0005 29.2284 42.6005 29.5033 43.2005 29.7534C44.5505 30.2034 45.8506 30.8283 47.0506 31.5783C47.8756 32.1033 48.5506 32.8033 49.0254 33.6534C49.4255 34.4533 49.6254 35.3283 49.6006 36.2283C49.6254 37.4034 49.2755 38.5783 48.6256 39.5533C47.9255 40.5534 46.9505 41.3283 45.8255 41.7783C44.6004 42.3033 43.1004 42.5784 41.3004 42.5784C40.1506 42.5784 39.0256 42.4783 37.9006 42.2533C37.0254 42.1033 36.1505 41.8284 35.3506 41.4534C35.1755 41.3533 35.0506 41.1783 35.0754 40.9783V36.6283C35.0754 36.5533 35.1005 36.4533 35.1755 36.4033C35.2505 36.3534 35.3255 36.3783 35.4005 36.4284C36.3755 37.0033 37.4004 37.4034 38.5006 37.6533C39.4505 37.9033 40.4506 38.0283 41.4504 38.0283C42.4006 38.0283 43.0756 37.9033 43.5256 37.6783C43.9254 37.5033 44.2006 37.0783 44.2006 36.6283C44.2006 36.2784 44.0004 35.9533 43.6006 35.6283C43.2005 35.3034 42.3755 34.9284 41.1504 34.4533C39.8754 34.0033 38.7005 33.4033 37.6006 32.6533C36.8255 32.1033 36.1756 31.3783 35.7005 30.5283C35.3004 29.7283 35.1005 28.8534 35.1256 27.9783C35.1256 26.9034 35.4256 25.8783 35.9754 24.9534C36.6005 23.9533 37.5256 23.1533 38.6004 22.6533C39.7756 22.0533 41.2505 21.7783 43.0254 21.7783C44.0506 21.7783 45.1006 21.8533 46.1255 22.0033C46.8755 22.1033 47.6004 22.3033 48.2754 22.5783C48.3755 22.6033 48.4756 22.7033 48.5255 22.8033C48.5506 22.9033 48.5754 23.0033 48.5754 23.1033V27.1783C48.5754 27.2784 48.5255 27.3783 48.4505 27.4284C48.2255 27.4783 48.1006 27.4783 48.0005 27.4284Z" fill="var(--fill-0, #31A8FF)"/>
</g>
<defs>
<clipPath id="clip0_0_6">
<rect width="60" height="60" fill="white"/>
</clipPath>
</defs>
</svg>
