<svg preserveAspectRatio="none" width="100%" height="100%" overflow="visible" style="display: block;" viewBox="0 0 64.3132 59.4802" fill="none" xmlns="http://www.w3.org/2000/svg">
<g id="Group">
<path id="Vector" d="M50.3263 31.4892C42.6014 31.4892 36.3394 37.7552 36.3394 45.4849C36.3394 53.2143 42.6014 59.4802 50.3263 59.4802C58.0512 59.4802 64.3132 53.2143 64.3132 45.4849C64.3132 37.7552 58.0512 31.4892 50.3263 31.4892ZM13.987 31.4904C6.26224 31.4904 0 37.7552 0 45.4849C0 53.2143 6.26224 59.4802 13.987 59.4802C21.712 59.4802 27.9745 53.2143 27.9745 45.4849C27.9745 37.7552 21.712 31.4904 13.987 31.4904ZM46.1433 13.9949C46.1433 21.7247 39.8813 27.9913 32.1567 27.9913C24.4316 27.9913 18.1697 21.7247 18.1697 13.9949C18.1697 6.26652 24.4316 0 32.1567 0C39.8813 0 46.1433 6.26652 46.1433 13.9949Z" fill="var(--fill-0, #F06A6A)"/>
</g>
</svg>
