<svg preserveAspectRatio="none" width="100%" height="100%" overflow="visible" style="display: block;" viewBox="0 0 58 60" fill="none" xmlns="http://www.w3.org/2000/svg">
<path id="Vector" d="M37.1742 0.143746L3.63297 2.58964C0.971978 2.82633 0 4.56213 0 6.66086V43.0652C0 44.6905 0.605495 46.1265 1.99176 47.9885L9.86319 58.1192C11.1379 59.7446 12.3489 60.0917 14.8346 59.9813L53.7615 57.6458C57.028 57.4091 58 55.91 58 53.3221V12.3732C58 11.0477 57.4582 10.7005 55.9445 9.54859L44.9341 1.87954C42.3209 0.0175067 41.2374 -0.219192 37.1742 0.143746ZM15.6791 11.7104C12.5242 11.9471 11.8071 11.9471 9.99066 10.5112L5.38571 6.91334C4.90769 6.43994 5.1467 5.8403 6.35769 5.77718L38.5764 3.44175C41.3011 3.20505 42.6874 4.16763 43.7231 4.94084L49.2363 8.90161C49.4753 9.02785 50.0808 9.73794 49.3637 9.73794L16.1253 11.7104H15.6951H15.6791ZM11.9824 52.9592V18.2433C11.9824 16.7442 12.4604 16.0184 13.8626 15.9079L52.0725 13.6829C53.3473 13.5567 53.9528 14.4088 53.9528 15.9079V50.3871C53.9528 51.8861 53.7137 53.2117 51.5945 53.3221L15.0258 55.4209C12.9066 55.5471 11.9984 54.8212 11.9984 52.9592H11.9824ZM48.0731 20.1054C48.3121 21.1784 48.0731 22.2041 46.9896 22.3303L45.2368 22.6933V48.3514C43.7231 49.1878 42.2731 49.6138 41.1258 49.6138C39.2456 49.6138 38.7676 49.0142 37.3654 47.2784L25.861 29.3524V46.6788L29.494 47.5151C29.494 47.5151 29.494 49.6138 26.5302 49.6138L18.4198 50.0872C18.1808 49.6138 18.4198 48.4619 19.2643 48.2252L21.3835 47.6256V24.6658L18.4198 24.4291C18.1808 23.356 18.7863 21.8569 20.4115 21.7307L29.1275 21.1311L41.1099 39.2938V23.2298L38.0824 22.8669C37.8434 21.6045 38.8154 20.6419 39.9626 20.5314L48.0731 20.058V20.1054Z" fill="var(--fill-0, white)"/>
</svg>
