<svg preserveAspectRatio="none" width="100%" height="100%" overflow="visible" style="display: block;" viewBox="0 0 59.8423 59.8418" fill="none" xmlns="http://www.w3.org/2000/svg">
<g id="Group">
<path id="Vector" d="M57.3423 0H28.5256C28.5256 3.45002 29.8961 6.75874 32.3357 9.19828C34.7752 11.6378 38.0839 13.0083 41.534 13.0083H46.8423V18.1333C46.8469 25.3111 52.6645 31.1287 59.8423 31.1333V2.5C59.8423 1.11929 58.723 0 57.3423 0Z" fill="var(--fill-0, #2684FF)"/>
<path id="Vector_2" d="M43.0842 14.3584H14.2676C14.2722 21.5362 20.0898 27.3538 27.2676 27.3584H32.5759V32.5001C32.5851 39.6779 38.4064 45.4917 45.5842 45.4917V16.8584C45.5842 15.4777 44.465 14.3584 43.0842 14.3584Z" fill="url(#paint0_linear_0_23)"/>
<path id="Vector_3" d="M28.8167 28.7084H0C0 35.8927 5.82403 41.7167 13.0083 41.7167H18.3333V46.8417C18.3379 54.013 24.1454 59.8279 31.3167 59.8417V31.2084C31.3167 29.8277 30.1974 28.7084 28.8167 28.7084Z" fill="url(#paint1_linear_0_23)"/>
</g>
<defs>
<linearGradient id="paint0_linear_0_23" x1="44.9676" y1="14.4084" x2="32.7838" y2="27.1216" gradientUnits="userSpaceOnUse">
<stop offset="0.18" stop-color="#0052CC"/>
<stop offset="1" stop-color="#2684FF"/>
</linearGradient>
<linearGradient id="paint1_linear_0_23" x1="31.525" y1="28.85" x2="17.4314" y2="42.7161" gradientUnits="userSpaceOnUse">
<stop offset="0.18" stop-color="#0052CC"/>
<stop offset="1" stop-color="#2684FF"/>
</linearGradient>
</defs>
</svg>
